<svg width="86" height="92" viewBox="0 0 86 92" fill="none" xmlns="http://www.w3.org/2000/svg">
<path d="M0 32C0 20.799 0 15.1984 2.17987 10.9202C4.09734 7.15695 7.15695 4.09734 10.9202 2.17987C15.1984 0 20.799 0 32 0H54C65.201 0 70.8016 0 75.0798 2.17987C78.843 4.09734 81.9027 7.15695 83.8201 10.9202C86 15.1984 86 20.799 86 32V54C86 65.201 86 70.8016 83.8201 75.0798C81.9027 78.843 78.843 81.9027 75.0798 83.8201C70.8016 86 65.201 86 54 86H32C20.799 86 15.1984 86 10.9202 83.8201C7.15695 81.9027 4.09734 78.843 2.17987 75.0798C0 70.8016 0 65.201 0 54V32Z" fill="url(#paint0_linear_1_78)"/>
<g filter="url(#filter0_dddi_1_78)">
<path d="M43.5 68C60.897 68 75 56.1355 75 41.5C75 26.8645 60.897 15 43.5 15C26.103 15 12 26.8645 12 41.5C12 50.9701 17.9048 59.28 26.786 63.9661C26.8018 66.5498 26.2166 69.6146 24 71C20.6584 73.0885 30.2281 70.6406 34.3433 66.863C37.241 67.6024 40.3153 68 43.5 68Z" fill="url(#paint1_linear_1_78)"/>
<path d="M43.5 68C60.897 68 75 56.1355 75 41.5C75 26.8645 60.897 15 43.5 15C26.103 15 12 26.8645 12 41.5C12 50.9701 17.9048 59.28 26.786 63.9661C26.8018 66.5498 26.2166 69.6146 24 71C20.6584 73.0885 30.2281 70.6406 34.3433 66.863C37.241 67.6024 40.3153 68 43.5 68Z" fill="url(#paint2_linear_1_78)" fill-opacity="0.6"/>
<path d="M43.5 68C60.897 68 75 56.1355 75 41.5C75 26.8645 60.897 15 43.5 15C26.103 15 12 26.8645 12 41.5C12 50.9701 17.9048 59.28 26.786 63.9661C26.8018 66.5498 26.2166 69.6146 24 71C20.6584 73.0885 30.2281 70.6406 34.3433 66.863C37.241 67.6024 40.3153 68 43.5 68Z" fill="url(#paint3_linear_1_78)" fill-opacity="0.6"/>
</g>
<g style="mix-blend-mode:overlay" opacity="0.4" filter="url(#filter1_i_1_78)">
<rect x="17" y="18" width="53" height="44" rx="22" fill="#F2F6F7"/>
</g>
<g style="mix-blend-mode:overlay" opacity="0.6" filter="url(#filter2_if_1_78)">
<rect x="14" y="29" width="20" height="24" rx="10" fill="#F2F6F7"/>
</g>
<defs>
<filter id="filter0_dddi_1_78" x="1" y="11" width="85" height="80.766" filterUnits="userSpaceOnUse" color-interpolation-filters="sRGB">
<feFlood flood-opacity="0" result="BackgroundImageFix"/>
<feColorMatrix in="SourceAlpha" type="matrix" values="0 0 0 0 0 0 0 0 0 0 0 0 0 0 0 0 0 0 127 0" result="hardAlpha"/>
<feOffset dy="2"/>
<feGaussianBlur stdDeviation="2.5"/>
<feColorMatrix type="matrix" values="0 0 0 0 0 0 0 0 0 0 0 0 0 0 0 0 0 0 0.14 0"/>
<feBlend mode="normal" in2="BackgroundImageFix" result="effect1_dropShadow_1_78"/>
<feColorMatrix in="SourceAlpha" type="matrix" values="0 0 0 0 0 0 0 0 0 0 0 0 0 0 0 0 0 0 127 0" result="hardAlpha"/>
<feOffset dy="9"/>
<feGaussianBlur stdDeviation="5.5"/>
<feColorMatrix type="matrix" values="0 0 0 0 0 0 0 0 0 0 0 0 0 0 0 0 0 0 0.34 0"/>
<feBlend mode="normal" in2="effect1_dropShadow_1_78" result="effect2_dropShadow_1_78"/>
<feColorMatrix in="SourceAlpha" type="matrix" values="0 0 0 0 0 0 0 0 0 0 0 0 0 0 0 0 0 0 127 0" result="hardAlpha"/>
<feOffset dy="2"/>
<feGaussianBlur stdDeviation="3"/>
<feColorMatrix type="matrix" values="0 0 0 0 0 0 0 0 0 0 0 0 0 0 0 0 0 0 0.25 0"/>
<feBlend mode="normal" in2="effect2_dropShadow_1_78" result="effect3_dropShadow_1_78"/>
<feBlend mode="normal" in="SourceGraphic" in2="effect3_dropShadow_1_78" result="shape"/>
<feColorMatrix in="SourceAlpha" type="matrix" values="0 0 0 0 0 0 0 0 0 0 0 0 0 0 0 0 0 0 127 0" result="hardAlpha"/>
<feOffset dy="-1"/>
<feGaussianBlur stdDeviation="2"/>
<feComposite in2="hardAlpha" operator="arithmetic" k2="-1" k3="1"/>
<feColorMatrix type="matrix" values="0 0 0 0 1 0 0 0 0 1 0 0 0 0 1 0 0 0 0.55 0"/>
<feBlend mode="normal" in2="shape" result="effect4_innerShadow_1_78"/>
</filter>
<filter id="filter1_i_1_78" x="17" y="13" width="53" height="49" filterUnits="userSpaceOnUse" color-interpolation-filters="sRGB">
<feFlood flood-opacity="0" result="BackgroundImageFix"/>
<feBlend mode="normal" in="SourceGraphic" in2="BackgroundImageFix" result="shape"/>
<feColorMatrix in="SourceAlpha" type="matrix" values="0 0 0 0 0 0 0 0 0 0 0 0 0 0 0 0 0 0 127 0" result="hardAlpha"/>
<feOffset dy="-5"/>
<feGaussianBlur stdDeviation="4"/>
<feComposite in2="hardAlpha" operator="arithmetic" k2="-1" k3="1"/>
<feColorMatrix type="matrix" values="0 0 0 0 0 0 0 0 0 0 0 0 0 0 0 0 0 0 0.55 0"/>
<feBlend mode="normal" in2="shape" result="effect1_innerShadow_1_78"/>
</filter>
<filter id="filter2_if_1_78" x="0" y="15" width="48" height="52" filterUnits="userSpaceOnUse" color-interpolation-filters="sRGB">
<feFlood flood-opacity="0" result="BackgroundImageFix"/>
<feBlend mode="normal" in="SourceGraphic" in2="BackgroundImageFix" result="shape"/>
<feColorMatrix in="SourceAlpha" type="matrix" values="0 0 0 0 0 0 0 0 0 0 0 0 0 0 0 0 0 0 127 0" result="hardAlpha"/>
<feOffset dy="-5"/>
<feGaussianBlur stdDeviation="4"/>
<feComposite in2="hardAlpha" operator="arithmetic" k2="-1" k3="1"/>
<feColorMatrix type="matrix" values="0 0 0 0 0 0 0 0 0 0 0 0 0 0 0 0 0 0 0.55 0"/>
<feBlend mode="normal" in2="shape" result="effect1_innerShadow_1_78"/>
<feGaussianBlur stdDeviation="7" result="effect2_foregroundBlur_1_78"/>
</filter>
<linearGradient id="paint0_linear_1_78" x1="22" y1="76.5" x2="25.5" y2="3.5" gradientUnits="userSpaceOnUse">
<stop stop-color="#12BA2D"/>
<stop offset="1" stop-color="#5FF278"/>
</linearGradient>
<linearGradient id="paint1_linear_1_78" x1="44.2326" y1="26.9507" x2="43.471" y2="71.7655" gradientUnits="userSpaceOnUse">
<stop stop-color="#F2F6F7"/>
<stop offset="0.473473" stop-color="#DADADA"/>
<stop offset="1" stop-color="#BCBCBC"/>
</linearGradient>
<linearGradient id="paint2_linear_1_78" x1="44.2326" y1="32.1792" x2="43.471" y2="71.7654" gradientUnits="userSpaceOnUse">
<stop stop-color="#1DC238" stop-opacity="0"/>
<stop offset="1" stop-color="#22C63D"/>
</linearGradient>
<linearGradient id="paint3_linear_1_78" x1="44.2326" y1="51.5991" x2="43.471" y2="71.7649" gradientUnits="userSpaceOnUse">
<stop offset="0.329728" stop-color="#1DC238" stop-opacity="0"/>
<stop offset="1" stop-color="#22C63D"/>
</linearGradient>
</defs>
</svg>
