<?xml version="1.0" encoding="utf-8"?>
<!-- Generator: Adobe Illustrator 26.3.1, SVG Export Plug-In . SVG Version: 6.00 Build 0)  -->
<svg version="1.1" id="Layer_1" xmlns="http://www.w3.org/2000/svg" xmlns:xlink="http://www.w3.org/1999/xlink" x="0px" y="0px"
	 viewBox="0 0 225 200" style="enable-background:new 0 0 225 200;" xml:space="preserve">
<style type="text/css">
	.st0{opacity:0.44;}
	.st1{opacity:0.34;fill:#C473EF;}
	.st2{opacity:0.5;fill:#FFFFFF;}
	.st3{font-family:'SamsungSharpSans-Bold';}
	.st4{font-size:24px;}
</style>
<g class="st0">
	<g>
		<path class="st1" d="M235,90.1C185.4,44.3,57.2,86.6,24.2,217c-0.4-0.5-0.9-0.9-1.3-1.4C53.3,82.9,181.3,38.3,233,81.7
			C233.7,84.5,234.4,87.3,235,90.1z"/>
		<path class="st1" d="M239,108.3C194,57.5,65.4,94.8,27.2,220.2c-0.5-0.5-1-1.1-1.5-1.6C61.5,90.9,189.9,51.2,237.2,99.6
			C237.8,102.5,238.4,105.4,239,108.3z"/>
		<path class="st1" d="M242.6,126.8c-40.2-55.7-168.8-23.4-212,97.1c-0.6-0.6-1.1-1.2-1.7-1.8C69.8,99.3,198.4,64.6,241,118
			C241.6,120.9,242.1,123.8,242.6,126.8z"/>
		<path class="st1" d="M245.8,145.8C210.7,85.1,82.3,112.5,34.5,228c-0.6-0.7-1.3-1.3-1.9-2c45.7-117.8,174.2-147.6,211.8-89.2
			C244.9,139.7,245.4,142.7,245.8,145.8z"/>
		<path class="st1" d="M248.2,162.6c-30.4-65-158.4-41.9-210.1,69.2c-0.7-0.7-1.4-1.5-2-2.2C85.7,116.2,214,90.7,247,153.4
			C247.4,156.4,247.8,159.5,248.2,162.6z"/>
	</g>
</g>
<text transform="matrix(1 0 0 1 178.2615 181.9997)" class="st2 st3 st4">FS</text>
</svg>
