<?xml version="1.0" encoding="utf-8"?>
<!-- Generator: Adobe Illustrator 26.3.1, SVG Export Plug-In . SVG Version: 6.00 Build 0)  -->
<svg version="1.1" id="Layer_1" xmlns="http://www.w3.org/2000/svg" xmlns:xlink="http://www.w3.org/1999/xlink" x="0px" y="0px"
	 viewBox="0 0 22 14" style="enable-background:new 0 0 22 14;" xml:space="preserve">
<style type="text/css">
	.st0{fill:#513426;}
	.st1{fill:#311C0F;}
	.st2{fill:#3B2417;}
	.st3{fill:#2A1407;}
	.st4{fill:#442D21;}
	.st5{fill:#56230F;}
	.st6{fill:#DDDDDE;}
	.st7{fill:#754538;}
	.st8{fill:#5E3F31;}
	.st9{fill:#474645;}
	.st10{fill:#A2756B;}
	.st11{fill:#8F574A;}
	.st12{fill:#885043;}
	.st13{fill:#230D02;}
	.st14{fill:#9D6659;}
</style>
<g id="Calque_3">
	<g id="Layer_1_00000178912918755332536170000003520893296910352787_">
		<path class="st0" d="M13.2,13L13.2,13L13.2,13C13.1,13,13.1,13,13.2,13L13.2,13L13.2,13c-0.1,0.1-0.1,0.1-0.1,0.1l0,0
			c0,0-0.1,0-0.1,0.1l0,0c0,0,0,0,0,0c0,0,0,0,0,0l0,0c0,0-0.1,0-0.1,0.1l0,0c0,0,0,0,0,0l0,0l0,0c0,0-0.1,0-0.1,0.1h0
			c0,0,0,0-0.1,0c0,0,0,0,0,0c0,0-0.1,0-0.1,0.1l0,0l0,0c0,0-0.1,0-0.1,0l0,0c0,0,0,0-0.1,0c-0.1,0.1-0.2,0.1-0.3,0.2
			c-0.3,0-0.5,0-0.8,0.1c-0.4,0-0.7,0-1.1-0.2c-0.2-0.2-0.4-0.3-0.6-0.3c-0.5-0.4-1-0.9-1.4-1.4c-0.2-0.2-0.3-0.4-0.4-0.6
			c-0.1-0.4-0.2-0.8-0.3-1.2c0-0.1,0-0.1-0.1-0.1l0,0c0,0,0-0.1-0.1-0.1c0-0.2,0-0.5,0-0.7c0-0.1,0.1-0.3-0.1-0.4c0,0,0,0,0,0
			c0.1-0.2,0-0.4,0-0.6c0.1,0,0.1,0,0.2,0.1c0.1,0.1-0.1,0.3,0.1,0.3c0,0.2,0,0.4,0,0.6c0,0.1,0,0.1,0.1,0.1c0,0,0,0.1,0,0.1
			c-0.1,0.3,0,0.5,0.1,0.7c0,0.1,0.1,0.2,0.1,0.3c0,0.1,0,0.1,0,0.2c0.3,0.7,0.7,1.3,1.2,1.8c0.1,0.1,0.1,0.3,0.3,0.3l0,0
			c0,0.2,0.1,0.2,0.2,0.3c0,0,0,0,0,0c0.1,0.3,0.3,0.4,0.6,0.4c0,0,0.1,0,0.1,0c0,0.1,0,0.1,0.1,0.1c0.1,0,0.1,0,0.2,0
			c0.2,0.1,0.4,0.1,0.6,0.1c0.6,0.1,1.1-0.1,1.5-0.6l0,0c0,0,0.1,0,0.1,0c0.4-0.4,0.9-0.8,1.2-1.2c0.2-0.3,0.4-0.5,0.5-0.8
			c0,0,0,0,0,0c0,0,0.1,0,0.1,0c0,0,0.1,0.1,0.2,0.1c0,0.1-0.1,0.1,0,0.2v0c-0.1,0.1-0.1,0.2-0.1,0.3v0c-0.1,0-0.1,0,0,0.1
			c0,0,0,0,0,0.1l0,0c-0.1,0-0.1,0.1-0.1,0.1l0,0c0,0,0,0,0,0.1l0,0c0,0,0,0,0,0.1l0,0c-0.1,0-0.1,0-0.1,0.1l0,0c0,0,0,0,0,0.1
			c0,0,0,0-0.1,0.1c0,0-0.1,0-0.1,0.1c0,0,0,0,0,0c-0.1,0-0.1,0-0.1,0.1l0,0c0,0,0,0,0,0l0,0c0,0,0,0,0,0l0,0c0,0,0,0,0,0l0,0
			c0,0-0.1,0-0.1,0.1l0,0l0,0c0,0-0.1,0-0.1,0l0,0l0,0c0,0,0,0,0,0l0,0c0,0-0.1,0-0.1,0.1c0,0,0,0,0,0c0,0-0.1,0-0.1,0l0,0l0,0
			c0,0,0,0,0,0l0,0c0,0-0.1,0-0.1,0.1l0,0c0,0,0,0,0,0l0,0l0,0C13.3,12.9,13.3,12.9,13.2,13L13.2,13C13.2,12.9,13.2,12.9,13.2,13
			L13.2,13C13.2,13,13.2,13,13.2,13z"/>
		<path class="st1" d="M7.7,2.1C7.7,2.1,7.8,2.1,7.7,2.1c0.2,0,0.3,0.2,0.4,0.1c0.1-0.1,0-0.3,0.1-0.4c0,0.1,0,0.2,0,0.3
			c0,0,0,0,0,0c0-0.1,0-0.2,0-0.2c0,0,0.1,0,0.1,0c0.2,0,0.2,0,0.2,0.2c0,0.1,0.1,0.2,0.2,0.2c0,0,0,0.1,0,0.1
			C8.6,2.5,8.7,2.6,8.6,2.7C8.5,2.8,8.6,2.9,8.6,3c0.1,0.2,0,0.4,0,0.7c0,0.1,0,0.2,0.1,0.2c0,0.2,0.1,0.2,0.1,0.4
			c-0.1,0-0.1-0.1-0.2,0c0,0.1,0.1,0.1,0.1,0.2c0,0,0,0.1,0,0.1c-0.1,0-0.1,0.2-0.2,0.2c-0.1,0-0.2,0.1-0.3,0.1c0-0.1,0-0.2,0.1-0.2
			c0.1-0.2,0.1-0.4,0-0.6c0-0.1-0.1-0.2-0.2-0.1c0,0-0.1,0-0.1,0C7.8,4,7.8,4,7.7,4.1c-0.1,0-0.1,0-0.2,0.1c-0.1,0-0.1,0-0.2,0
			c0.2-0.2,0.4-0.4,0.6-0.6C8,3.4,8,3.3,7.9,3.2c-0.1-0.1-0.1-0.1-0.2,0c0,0-0.1,0-0.1,0c0,0,0,0,0,0c0-0.1,0.1-0.2,0.1-0.3
			c0.1-0.2,0.1-0.3-0.2-0.3c0,0,0,0,0,0C7.5,2.4,7.6,2.3,7.7,2.1z M8.2,3.2c0.1,0,0.1-0.1,0.1-0.1c0-0.2,0-0.4,0-0.6
			c0-0.1-0.1-0.2-0.3-0.2C8,2.3,8,2.4,8,2.5C8,2.6,8,2.7,8,2.8C8.1,2.9,8.3,3,8.2,3.2z"/>
		<path class="st2" d="M16.2,2.8C16.3,3,16.4,3,16.6,3c0.1,0,0.1,0,0.2,0.1c0,0,0,0,0,0c-0.1,0-0.1,0.1-0.1,0.2
			c0,0.2,0.2,0.3,0.3,0.4c0.2,0.1,0.3,0.1,0.3-0.1c0,0,0,0,0,0c0.1,0.2-0.1,0.4-0.2,0.6c0,0-0.1,0-0.1-0.1c-0.1-0.1-0.2-0.2-0.3-0.2
			c-0.1,0-0.2-0.1-0.3-0.1c-0.1,0-0.2,0.1-0.3,0.2c0,0,0,0,0,0c0,0-0.1,0-0.1,0c0,0-0.1,0-0.1,0c-0.2,0-0.5,0.1-0.7,0
			c0-0.1-0.1-0.1-0.2-0.1c-0.1,0-0.3,0-0.4-0.2c-0.2-0.3-0.3-0.5-0.4-0.8c-0.1-0.4-0.1-0.4,0.3-0.4c-0.1,0.2,0,0.4,0,0.5
			c0.2,0.3,0.4,0.5,0.6,0.8c0.1,0.2,0.5,0.2,0.7,0.1c0.1,0,0.1,0,0.2,0c0.2,0,0.2-0.2,0.1-0.3c0-0.1,0-0.2-0.1-0.2
			c0-0.1-0.2-0.2-0.2-0.3C16.1,2.9,16.1,2.8,16.2,2.8z"/>
		<path class="st3" d="M16,7.9C16,7.9,15.9,7.9,16,7.9c-0.1,0.6-0.2,0.7-0.7,0.5c0-0.1,0-0.1,0-0.2c0-0.1,0.1-0.1,0.1-0.1
			c0,0.1,0.1,0.2,0.2,0.2c0,0,0.1,0.1,0.1,0c0,0,0-0.1,0-0.1C15.6,8.1,15.6,8,15.5,8c0-0.5,0-0.5-0.3-0.6c0,0,0-0.1,0-0.1
			c0.1,0,0.2,0,0.2,0.1c0.1,0.1,0.2,0.2,0.4,0.3l0,0c0,0.1,0,0.1,0.1,0.1c0.3,0.1,0.3,0.1,0.4-0.2c0.1-0.2,0.1-0.4,0-0.5
			c0-0.1,0-0.2-0.1-0.2c0-0.1-0.1-0.1-0.1-0.2c-0.3-0.3-0.6-0.5-0.9-0.7c0.1-0.1,0.3,0,0.3-0.2c0.1,0,0.2,0,0.3,0.2
			c-0.1,0.2,0.1,0.2,0.2,0.2c0.1,0,0.1,0,0.2,0.1c0.1,0.1,0.3,0.2,0.4,0.3c0,0,0,0,0,0c0.1,0.1,0.2,0.1,0.3,0.2c0.1,0,0.1,0,0.1-0.1
			c0.1,0,0.1,0,0.2,0c0,0.2-0.2,0.2-0.4,0.2c-0.2,0-0.2,0-0.2,0.2c0,0.3-0.2,0.5-0.3,0.8c0,0.1-0.1,0.1-0.2,0.2
			C16.1,7.8,16,7.8,16,7.9z"/>
		<path class="st2" d="M8,3.9c0.1-0.1,0.2,0,0.2,0.1c0.1,0.2,0.1,0.4,0,0.6C8.2,4.7,8.1,4.7,8.1,4.8C8.1,4.9,8,4.9,7.9,4.9
			c-0.2,0-0.3,0-0.5,0C7.4,4.9,7.3,5,7.3,5c0,0,0,0.1,0,0.1c0,0,0,0,0,0l0,0C7.1,5.2,7,5.1,7,5.2c0,0,0,0,0,0c0,0,0,0,0,0
			c0,0,0,0,0,0C6.7,5.7,7,6.1,7.1,6.5c0,0.1,0.1,0.1,0.1,0.1c0,0.1,0,0.1,0.1,0.1c0.1,0,0.2-0.1,0.3-0.1c0.1,0,0.1-0.1,0.1-0.1
			c0,0,0.1-0.1,0.1-0.1c0,0,0,0.1,0,0.1c0,0.1,0,0.1,0,0.2C7.6,6.6,7.5,6.7,7.5,6.8C7.4,6.9,7.2,6.8,7.3,7c-0.1,0-0.2,0.1-0.2-0.1
			C7.1,7,7,7,7,7.1l0,0C7,6.9,7.1,6.7,6.8,6.6c-0.1,0-0.1-0.2-0.1-0.3c0.1,0,0.1,0.1,0.1,0.1c0,0,0.1,0,0.1,0C6.8,6.2,6.9,6,6.7,5.9
			c0-0.1,0.1-0.3,0.1-0.4c0.1-0.2,0.1-0.4-0.1-0.4c0.2,0,0.3,0,0.2-0.2c0.2,0.1,0.2,0,0.3-0.2c0-0.1,0-0.3,0.1-0.4
			c0,0,0.1,0.1,0.1,0.1l0,0c0,0.1,0,0.1,0,0.2c0,0.1,0.1,0.2,0.2,0.2c0.3,0,0.4,0.1,0.5-0.2C8.2,4.4,8.3,4.1,8,3.9z"/>
		<path class="st2" d="M8.7,2.3c-0.1,0-0.2-0.1-0.2-0.2c0-0.2-0.1-0.2-0.2-0.2c0,0-0.1,0-0.1,0c0-0.1,0-0.2,0-0.2
			c0-0.1,0-0.2,0.1-0.3c0.2,0.2,0.3,0,0.4,0c0,0.1,0,0.1,0,0.1c0,0.1-0.1,0.1,0,0.2c0.1,0.1,0.1,0,0.2,0c0.1,0,0.2-0.1,0.3-0.1
			c0.3-0.1,0.6,0,0.8-0.3c0,0,0,0,0.1,0c0,0,0,0.1,0,0.1c0,0.1,0,0.2,0,0.2C9.8,1.7,9.6,1.8,9.4,1.9c0,0,0,0.1,0,0.1
			c0,0-0.1,0-0.1,0C9,2,8.8,2.1,8.7,2.3C8.8,2.3,8.8,2.3,8.7,2.3z"/>
		<path class="st4" d="M10,1.3C10,1.3,10,1.3,10,1.3C9.8,1.6,9.4,1.6,9.2,1.6c-0.1,0-0.2,0-0.3,0.1c-0.1,0-0.1,0.1-0.2,0
			c-0.1-0.1,0-0.1,0-0.2c0,0,0.1-0.1,0-0.1c-0.1,0-0.3,0.2-0.4,0c0-0.1,0.1-0.2,0.1-0.3c0.1,0.1,0.1,0.1,0.2,0.1
			c0.1,0,0.2-0.1,0.4-0.1c0,0,0,0.1-0.1,0.1c-0.1,0-0.1,0.1-0.1,0.2c0,0.1,0.1,0,0.2,0c0.1,0,0.1,0,0.2,0c0.2,0,0.3,0,0.5-0.1
			c0.2,0,0.3-0.2,0.1-0.4c-0.1,0-0.1-0.1-0.2-0.1c0-0.1,0.2-0.2,0.2-0.3c0.1,0.1,0.1,0.2,0.1,0.4c0,0.1,0,0.2,0.2,0.3
			C10,1.2,10,1.3,10,1.3z"/>
		<path class="st5" d="M15.3,8.4c0.4,0.2,0.6,0.1,0.6-0.4c0.2,0.2,0.3,0.5,0.2,0.9c-0.1-0.1,0-0.2-0.1-0.3c-0.1,0.1,0,0.1,0,0.2
			c-0.1,0.2,0,0.4-0.2,0.6C15.7,9,15.6,8.9,15.4,9c0-0.1,0-0.1,0-0.2c0-0.1,0-0.2-0.1-0.2C15.3,8.5,15.3,8.5,15.3,8.4z"/>
		<path class="st6" d="M15.4,9c0.2-0.1,0.4,0,0.5,0.3c0,0.3-0.1,0.5-0.2,0.8c0,0.1-0.1,0.1,0,0.1c0,0.1,0,0.1-0.1,0.1
			c-0.1-0.1-0.2-0.1-0.3-0.1c0-0.1,0.1-0.3,0.1-0.4c0.1-0.2,0-0.2-0.1-0.2C15.3,9.4,15.3,9.2,15.4,9C15.4,9,15.4,9,15.4,9z"/>
		<path class="st6" d="M7.2,8.3c0,0.2,0.1,0.4,0,0.6c-0.1,0-0.2,0-0.2,0c0,0,0,0,0,0c0,0,0,0,0,0c0,0.1,0,0.2,0,0.3
			c0,0.1,0,0.3,0,0.4c-0.1,0-0.2,0.1-0.3,0C6.6,9.5,6.6,9.4,6.6,9.3c0.2,0,0.1-0.1,0.1-0.2c0,0,0,0,0,0c0-0.1,0-0.1,0-0.2
			c-0.1-0.3,0-0.5,0.3-0.6c0,0,0.1,0,0.1-0.1C7.1,8.2,7.1,8.3,7.2,8.3L7.2,8.3z"/>
		<path class="st2" d="M10.3,0.9C10.3,0.9,10.3,0.9,10.3,0.9C10.3,0.8,10.3,0.8,10.3,0.9l0.1-0.1l0,0C10.4,0.9,10.6,1,10.7,1
			c0.4,0,0.8,0.1,1.2,0c0,0,0,0,0,0c0,0.1-0.1,0.1-0.1,0.1c-0.1,0-0.2,0-0.2,0.2c-0.2,0-0.4,0-0.6,0.1c0,0-0.1,0-0.1,0
			c0-0.1,0-0.1-0.1-0.1c-0.3,0-0.5-0.1-0.7-0.2C10.1,1,10.2,1,10.3,0.9C10.2,0.9,10.2,0.9,10.3,0.9z"/>
		<path class="st4" d="M14.9,1.4c0.2,0,0.5,0,0.7,0.1c0,0.1-0.1,0-0.2,0c0,0-0.1,0-0.1,0c0,0.1,0,0.1,0.1,0.1
			c0.1,0.1,0.2,0.2,0.3,0.2c0.3,0.2,0.6,0.4,0.9,0.3l0,0c0,0,0,0,0,0c0,0,0,0.1,0,0.1c0,0-0.1,0-0.1,0c-0.2,0.1-0.4,0.1-0.6-0.1
			c-0.2-0.2-0.5-0.4-0.8-0.6c0,0-0.1,0-0.1,0C14.9,1.6,14.9,1.6,14.9,1.4C14.9,1.5,14.9,1.5,14.9,1.4L14.9,1.4z"/>
		<path class="st4" d="M7.3,4.4C7.2,4.5,7.2,4.6,7.2,4.7c0,0.2-0.1,0.3-0.3,0.2C6.8,5,6.8,5.1,6.7,5c0-0.1,0-0.2-0.1-0.2
			c0-0.1,0-0.1,0-0.2c0.1-0.1,0.1-0.2,0.1-0.3l0,0c0,0,0,0,0.1-0.1l0,0l0,0c0,0,0,0,0,0l0,0c0,0,0,0,0,0l0,0c0,0,0,0,0,0l0,0
			c0,0,0.1,0,0.1,0c0.1,0,0.1,0,0.2,0C7.3,4.1,7.3,4.2,7.3,4.4z"/>
		<path class="st4" d="M12,1c-0.4,0-0.8-0.1-1.2,0c-0.1,0-0.3,0-0.4-0.2c0.1-0.2,0.3-0.4,0.5-0.5C11,0.3,11,0.4,11,0.4c0,0,0,0,0,0
			c-0.1,0-0.2,0-0.2,0.1c-0.1,0-0.2,0-0.2,0.1c0,0.1,0.1,0.1,0.2,0.1c0.4,0.1,0.7,0,1.1,0c0.1,0,0.1,0,0.1-0.1c0,0,0,0,0.1,0
			c0,0,0,0,0,0c0,0.1,0,0.1-0.1,0.2c0,0,0,0,0,0C12,1,12,1,12,1z"/>
		<path class="st3" d="M17.5,4.7c0.1,0.3,0,0.4-0.3,0.5c-0.1,0-0.2,0.1-0.1,0.2c0.1,0.2,0,0.3,0,0.5c-0.1,0,0-0.1-0.1-0.2
			c0-0.1-0.1-0.1-0.1-0.2c-0.2-0.3-0.3-0.3-0.5-0.2c0,0,0-0.1,0-0.1c0,0,0-0.1,0-0.1c0.2,0,0.1-0.1,0.2-0.2c0.2,0,0.5,0.1,0.7,0
			c0.1,0,0.1,0,0.1-0.1C17.5,4.9,17.6,4.8,17.5,4.7z"/>
		<path class="st4" d="M14.7,1.2c0.1,0,0.1,0.1,0.2,0.2l0,0c-0.1,0-0.2,0.1-0.2,0.1c-0.2,0.1-0.4,0.1-0.6,0
			c-0.1-0.1-0.2-0.1-0.4-0.1c-0.2,0-0.5-0.1-0.7-0.2c-0.1,0-0.2-0.1-0.2-0.3c0.1,0,0.2-0.1,0.3,0c0,0.2,0.6,0.5,0.9,0.4
			c0,0,0.1,0,0.1,0c0,0.1,0,0.1,0.1,0c0,0,0.1,0,0.1,0c0,0.1,0.1,0.1,0.2,0c0.1,0,0.1,0,0.2,0C14.8,1.4,14.7,1.3,14.7,1.2L14.7,1.2z
			"/>
		<path class="st4" d="M16.9,5.6c0.1,0.1,0.1,0.1,0.1,0.2c-0.1,0-0.2-0.1-0.3,0c-0.1,0.1-0.1,0.2,0,0.3c0.1,0.1,0.1,0.3,0.3,0.3
			c0.2,0,0.1-0.2,0.1-0.3c0.1,0.1,0.1,0.3,0,0.4c-0.1,0-0.1,0-0.2,0c-0.1,0-0.3-0.1-0.4-0.1c0,0,0,0,0,0c-0.1-0.2-0.2-0.5-0.1-0.7
			c0,0,0,0,0,0C16.6,5.5,16.8,5.6,16.9,5.6z"/>
		<path class="st1" d="M10.1,1.1c0.2,0.1,0.4,0.2,0.7,0.2c0.1,0,0.1,0,0.1,0.1c0,0.1-0.1,0.1-0.2,0.1c-0.1,0-0.2,0-0.2,0.1
			c-0.1,0-0.1,0-0.1,0.1c0,0-0.1,0-0.1,0c-0.1-0.1-0.2-0.3-0.4-0.3c0,0,0-0.1,0-0.1c0-0.1,0-0.1,0-0.2C10.1,1.1,10.1,1.1,10.1,1.1z"
			/>
		<path class="st0" d="M16.6,2.2c-0.4,0.1-0.7,0-0.9-0.3c-0.1-0.1-0.2-0.2-0.3-0.2c0,0-0.1,0-0.1-0.1c0,0,0.1,0,0.1,0
			c0.1,0,0.1,0,0.2,0c0.2,0,0.4,0.1,0.6,0.2c0,0-0.1,0-0.1,0c-0.1,0-0.2-0.2-0.3,0c0,0.1,0.1,0.2,0.2,0.2c0,0,0,0,0.1,0
			c0.1,0,0.2,0.2,0.3,0.1C16.5,2,16.3,2,16.2,1.9c0,0,0,0,0,0C16.4,1.9,16.5,2,16.6,2.2z"/>
		<path class="st2" d="M13.1,0.9c-0.1-0.1-0.2,0.1-0.3,0l0,0c0,0,0-0.1-0.1-0.1c-0.2,0-0.4-0.2-0.6-0.1c0,0,0,0,0,0c0,0,0-0.1,0-0.1
			c0.1,0,0.3,0,0.3-0.2c0,0,0,0,0,0v0c0.1,0.2,0.1,0,0.2,0c0,0,0,0,0,0c0,0,0,0,0,0c0,0.1,0.1,0.1,0.2,0.1c0.2,0.1,0.4,0.1,0.4,0.3
			v0c0,0-0.1,0-0.1,0C13.2,0.8,13.2,0.8,13.1,0.9C13.1,0.9,13.1,0.9,13.1,0.9z"/>
		<path class="st2" d="M7.7,2.1C7.6,2.3,7.5,2.4,7.4,2.6c0,0-0.1,0-0.1,0c0,0-0.1,0-0.1,0c-0.1,0-0.2,0-0.2,0
			C6.9,2.5,6.7,2.4,6.8,2.2c0,0,0.1,0.1,0.1,0.1C7,2.5,7,2.5,7.2,2.4C7.3,2.3,7.4,2.2,7.4,2C7.5,2,7.6,2,7.7,2.1z"/>
		<path class="st0" d="M17.2,6.1c0,0.1,0,0.3-0.1,0.3c-0.2,0-0.3-0.2-0.3-0.3c-0.1-0.1-0.1-0.2,0-0.3c0.1-0.1,0.2,0,0.3,0
			c0.1,0,0,0.1,0.1,0.2C17.2,6,17.2,6.1,17.2,6.1z"/>
		<path class="st7" d="M8.7,0.8c0.3-0.3,0.6-0.5,1-0.4c0,0,0,0,0,0.1C9.4,0.8,8.9,1,8.7,0.8z"/>
		<path class="st0" d="M13.2,0.3C13.2,0.3,13.2,0.3,13.2,0.3c0.1,0.1,0.1,0.1,0.2,0.1c0.4,0.1,0.7,0.4,1.1,0.3
			c0,0.1-0.2,0.1-0.2,0.3c-0.2,0-0.3-0.1-0.5-0.1c0-0.1,0-0.1-0.1-0.1c-0.2,0-0.3-0.2-0.5-0.2c-0.1,0-0.2-0.1-0.2-0.2
			C13.1,0.3,13.1,0.3,13.2,0.3z"/>
		<path class="st0" d="M17.5,4.7c0,0.1,0,0.2-0.1,0.2c0,0-0.1,0-0.1,0c-0.1-0.1-0.2-0.2-0.3-0.3c-0.2-0.2-0.4-0.5-0.4-0.8
			c0.1,0.1,0.2,0.1,0.3,0.2c-0.1,0.3,0.1,0.4,0.2,0.5c0,0.1,0.1,0.1,0.2,0.1c0.1,0,0.1-0.1,0.1-0.2C17.5,4.6,17.5,4.6,17.5,4.7z"/>
		<path class="st8" d="M8.7,0.8c0.3,0.1,0.7,0,1-0.3c0,0,0.1,0.1,0.1,0h0c0,0.2-0.2,0.2-0.2,0.3C9.4,0.9,9.3,1,9.1,1
			C9,1,8.8,1,8.7,1.1c-0.1,0-0.2,0-0.2-0.1C8.5,0.9,8.6,0.9,8.7,0.8z"/>
		<path class="st7" d="M7,9.5c0-0.1,0-0.3,0-0.4C7.1,9,7.1,8.9,7.2,8.9C7.3,9,7.2,9.1,7.3,9.3c0,0.2,0.1,0.5,0,0.7l0,0
			c0,0-0.1,0-0.1,0c0,0,0,0,0,0c0,0-0.1,0-0.1,0c0-0.1,0-0.2-0.1-0.3C7.1,9.6,7.1,9.6,7,9.5C7.1,9.5,7.1,9.5,7,9.5L7,9.5z"/>
		<path class="st7" d="M15.7,10.2c-0.1,0-0.1-0.1,0-0.1c0.1-0.3,0.2-0.5,0.2-0.8C16,9.1,16,8.9,16,8.7c0-0.1,0-0.1,0-0.2
			c0.1,0.1,0,0.2,0.1,0.3C16.1,9,16,9.2,16,9.5C15.9,9.7,15.8,9.9,15.7,10.2z"/>
		<path class="st3" d="M16.5,2.4C16.6,2.4,16.6,2.3,16.5,2.4C16.6,2.3,16.6,2.3,16.5,2.4c0.1,0.2-0.1,0.3-0.3,0.5
			c-0.1,0-0.1,0.1-0.2,0.1c-0.1-0.1-0.1-0.1-0.2-0.2c0-0.1,0-0.1-0.1-0.1c0,0,0,0,0,0c0.1,0,0.1,0,0.2-0.1
			C16.2,2.6,16.4,2.5,16.5,2.4z"/>
		<path class="st8" d="M17.5,4.5c0,0.1,0,0.2-0.1,0.2c-0.1,0-0.1-0.1-0.2-0.1c-0.1-0.1-0.3-0.3-0.2-0.5c0,0,0.1,0,0.1,0.1
			C17.2,4.2,17.4,4.3,17.5,4.5C17.4,4.5,17.4,4.5,17.5,4.5L17.5,4.5z"/>
		<path class="st4" d="M17.3,3.6c0,0.2-0.1,0.3-0.3,0.1c-0.1-0.1-0.3-0.2-0.3-0.4c0-0.1,0-0.2,0.1-0.2c0,0,0,0,0.1,0c0,0,0,0,0,0
			C16.9,3.4,17,3.6,17.3,3.6z"/>
		<path class="st7" d="M13.5,0.3c0.1,0,0.2,0,0.3,0c0.2,0.1,0.4,0.1,0.6,0.2l0,0c0,0.1,0.1,0.1,0.1,0.2C14.2,0.7,13.7,0.5,13.5,0.3z
			"/>
		<path class="st8" d="M13.5,0.3c0.2,0.2,0.7,0.4,0.9,0.3c0,0,0.1,0.1,0.1,0.1c0,0,0,0,0,0c-0.4,0-0.8-0.2-1.1-0.3
			c-0.1,0-0.1-0.1-0.1-0.1C13.3,0.3,13.4,0.3,13.5,0.3z"/>
		<path class="st4" d="M7.3,2.7c0,0,0.1,0,0.1,0c0,0,0,0,0,0c0,0.4-0.3,0.8-0.7,0.7c0,0,0,0,0,0c0,0-0.1-0.1-0.1-0.1
			c0.1,0,0.2,0.2,0.3,0.1C7.1,3.1,7.3,2.9,7.3,2.7z"/>
		<path class="st9" d="M6.7,9.1C6.7,9.1,6.7,9.1,6.7,9.1c0,0.1,0,0.1-0.1,0.1c-0.1-0.5-0.3-1-0.2-1.5c0-0.1,0.1-0.3,0.2-0.4l0,0
			c0,0.1,0,0.1,0,0.2C6.5,7.6,6.5,7.8,6.5,8C6.5,8.4,6.5,8.8,6.7,9.1z"/>
		<path class="st7" d="M16.2,1.9C16.2,1.9,16.2,1.9,16.2,1.9c0,0.1,0.2,0.2,0.1,0.3c-0.1,0.1-0.2-0.1-0.3-0.1c0,0-0.1,0-0.1,0
			c-0.1-0.1-0.3-0.1-0.2-0.2c0-0.1,0.2,0.1,0.3,0C16.1,1.8,16.1,1.8,16.2,1.9L16.2,1.9C16.1,1.8,16.2,1.8,16.2,1.9
			C16.2,1.8,16.2,1.8,16.2,1.9z"/>
		<path class="st4" d="M7.4,2c0,0.2-0.1,0.3-0.2,0.4C7,2.5,7,2.5,6.9,2.3c0,0,0.1,0,0.1,0c0.1,0,0.1-0.1,0.1-0.1
			c0-0.1-0.1-0.1-0.1-0.1C7.2,1.9,7.3,2.1,7.4,2z"/>
		<path class="st8" d="M11.5,0.1C11.5,0.1,11.5,0.1,11.5,0.1c0.1,0.1,0.6,0.1,0.8,0.1c0.1,0,0.1,0.1,0.2,0l0,0l0,0c0,0,0,0,0,0.1
			c0,0,0,0,0,0c-0.2,0-0.3,0-0.5,0c-0.1,0-0.2,0-0.3,0c0-0.1-0.2,0-0.2-0.1C11.3,0.1,11.4,0.2,11.5,0.1z"/>
		<path class="st0" d="M7.3,2.7c0,0.3-0.2,0.4-0.3,0.6C6.9,3.3,6.8,3.2,6.7,3.2c0,0,0-0.1,0-0.1c0.1,0,0.2,0.1,0.3,0
			C7.1,3,7.2,2.9,7.2,2.7C7.2,2.7,7.3,2.7,7.3,2.7z"/>
		<path class="st1" d="M6.7,3.3C6.8,3.3,6.8,3.3,6.7,3.3C6.9,3.5,7,3.5,7.1,3.6c0,0,0,0.1,0,0.1c-0.1,0.1,0,0.1,0,0.2
			c0,0,0,0.1,0,0.1C7.1,4,7,4.1,6.9,4.1l0,0c0.2-0.2,0.2-0.2,0-0.4C6.8,3.6,6.7,3.5,6.7,3.3z"/>
		<path class="st8" d="M17.3,3.6c-0.3,0-0.4-0.1-0.4-0.4C17.1,3.2,17.3,3.3,17.3,3.6C17.3,3.6,17.3,3.6,17.3,3.6z"/>
		<path class="st7" d="M7.2,2.7C7.2,2.9,7.1,3,7,3.1c-0.1,0.1-0.2,0-0.3,0c0-0.2,0.2-0.2,0.2-0.3C7,2.8,7.1,2.7,7.2,2.7z"/>
		<path class="st0" d="M11.5,0.1c0,0.1-0.2,0-0.1,0.1s0.1,0,0.2,0.1c-0.1,0-0.2,0-0.3,0.1c-0.1,0-0.1,0.1-0.2,0.1
			c0-0.1,0-0.1-0.1-0.1C11.1,0.2,11.2,0.1,11.5,0.1z"/>
		<path class="st9" d="M7.4,10c0.1,0,0.1,0.1,0.1,0.1c0.1,0.4,0.2,0.8,0.3,1.2c-0.2-0.3-0.2-0.6-0.3-0.9C7.5,10.3,7.4,10.2,7.4,10z"
			/>
		<path class="st0" d="M8.5,1c0,0.1,0.1,0.1,0.2,0.1C8.8,1,9,1,9.1,1C9.1,1.1,9,1.1,9,1.2c-0.1,0-0.2,0-0.4,0.1
			c-0.1,0-0.2,0-0.2-0.1C8.4,1.1,8.5,1,8.5,1z"/>
		<path class="st8" d="M7.1,9.7c0.1,0.1,0,0.2,0.1,0.3c-0.3,0-0.3-0.2-0.4-0.3C6.9,9.7,7,9.7,7.1,9.7z"/>
		<path class="st8" d="M15.5,10.3c0,0.3-0.2,0.4-0.5,0.3c-0.1,0-0.1,0-0.2,0l0,0c0,0,0-0.1,0-0.1c0,0,0.1,0,0.1,0
			c0.2,0.1,0.3,0.1,0.3-0.2C15.4,10.4,15.5,10.4,15.5,10.3z"/>
		<path class="st10" d="M7.1,9.7C7,9.7,6.9,9.7,6.8,9.7c0-0.1-0.1-0.1-0.1-0.2c0.1,0,0.2,0,0.3,0l0,0c0,0,0,0,0,0
			C7.1,9.6,7.1,9.6,7.1,9.7z"/>
		<path class="st8" d="M7.1,2c0,0.1,0.1,0,0.1,0.1c0,0.1-0.1,0.1-0.1,0.1c0,0-0.1,0-0.1,0c0,0-0.1-0.1-0.1-0.1C6.9,2.1,7,2.1,7.1,2z
			"/>
		<path class="st4" d="M6.7,5.9C6.9,6,6.8,6.2,6.9,6.4c0,0.1-0.1,0.1-0.1,0c0,0,0-0.1-0.1-0.1C6.7,6.2,6.7,6.1,6.7,5.9z"/>
		<path class="st4" d="M12.4,0.3C12.4,0.3,12.4,0.3,12.4,0.3C12.4,0.3,12.5,0.3,12.4,0.3c0.1,0,0.1,0,0.1,0c0,0,0,0.1,0,0.1
			c0,0.2-0.2,0.2-0.3,0.2c0,0,0-0.1,0-0.1c0-0.1,0.1-0.1,0.1-0.1C12.3,0.4,12.4,0.4,12.4,0.3z"/>
		<path class="st7" d="M12.2,0.2c-0.2,0.1-0.6,0-0.7-0.1c0,0,0.1,0,0.1-0.1c0.1,0.1,0.2,0,0.2,0C12,0.1,12.1,0.1,12.2,0.2z"/>
		<path class="st4" d="M14.5,0.7C14.5,0.7,14.5,0.7,14.5,0.7C14.5,0.7,14.6,0.7,14.5,0.7L14.5,0.7L14.5,0.7c0.1,0,0.1,0.1,0.1,0.2
			c0,0.1,0,0.1,0,0.2c0,0,0,0,0,0c-0.1,0-0.1-0.1-0.2-0.1C14.3,0.8,14.5,0.9,14.5,0.7z"/>
		<path class="st9" d="M12.2,0.2c-0.1-0.1-0.2-0.1-0.3-0.1c-0.1,0-0.2,0-0.2,0c0.3-0.1,0.6,0,0.8,0.2C12.4,0.2,12.3,0.2,12.2,0.2z"
			/>
		<path class="st9" d="M9.6,13.3c0.2,0.1,0.4,0.2,0.6,0.3C10,13.6,9.7,13.5,9.6,13.3z"/>
		<path class="st10" d="M15.5,10.3c-0.1,0-0.1,0.1-0.2,0c0-0.1-0.1-0.1,0-0.2C15.4,10.1,15.5,10.2,15.5,10.3
			C15.6,10.3,15.6,10.3,15.5,10.3z"/>
		<path class="st4" d="M11.2,13.8c0.3-0.1,0.5-0.1,0.8-0.1C11.8,13.8,11.5,13.9,11.2,13.8z"/>
		<path class="st9" d="M14.3,0.4c-0.2,0-0.4-0.1-0.6-0.2C14,0.2,14.2,0.3,14.3,0.4z"/>
		<path class="st8" d="M14.7,11.2c0-0.1,0-0.1,0-0.2c0-0.1,0.1-0.2,0.1-0.3c0,0,0,0,0.1,0l0,0C14.8,10.8,14.8,11,14.7,11.2z"/>
		<path class="st1" d="M6.7,5c0.1,0,0.2-0.1,0.2-0.1C7,5.1,6.8,5.1,6.7,5C6.7,5.1,6.7,5.1,6.7,5C6.7,5.1,6.7,5.1,6.7,5z"/>
		<path class="st9" d="M14.6,0.7C14.6,0.7,14.5,0.7,14.6,0.7c0,0-0.1-0.1-0.1-0.1c0-0.1-0.1-0.1-0.1-0.2C14.5,0.5,14.5,0.6,14.6,0.7
			z"/>
		<path class="st2" d="M6.7,5C6.7,5.1,6.7,5.1,6.7,5C6.6,5,6.5,4.9,6.5,4.8C6.7,4.9,6.6,5,6.7,5z"/>
		<path class="st3" d="M8.2,1.7c0.1,0.1,0,0.1,0,0.2c0,0.1,0,0.2,0,0.2c0,0,0,0,0,0c0-0.1,0-0.2,0-0.3C8.2,1.8,8.2,1.7,8.2,1.7z"/>
		<path class="st9" d="M6.7,7.4c0.1-0.1,0.2-0.1,0.3-0.1l0,0l0,0c0,0,0,0.1,0,0.1C6.9,7.3,6.8,7.4,6.7,7.4L6.7,7.4z"/>
		<path class="st8" d="M14.6,11.5c0-0.1,0-0.2,0.1-0.3C14.7,11.3,14.6,11.4,14.6,11.5z"/>
		<path class="st1" d="M6.7,4.4c0,0.1,0,0.2-0.1,0.3C6.6,4.5,6.6,4.4,6.7,4.4z"/>
		<path class="st9" d="M12.8,0.4c-0.1,0.1-0.1,0.2-0.2,0C12.6,0.4,12.7,0.4,12.8,0.4z"/>
		<path class="st9" d="M13.2,0.3c0,0-0.1,0-0.1,0c0,0-0.1,0-0.1,0c0,0,0,0,0,0C13,0.2,13.1,0.2,13.2,0.3z"/>
		<path class="st11" d="M6.6,9.2c0,0,0-0.1,0.1-0.1C6.7,9.2,6.8,9.3,6.6,9.2C6.6,9.3,6.6,9.3,6.6,9.2z"/>
		<path class="st9" d="M7.2,10C7.2,10,7.2,10,7.2,10C7.2,10,7.3,10,7.2,10L7.2,10c0.1-0.1,0.2-0.1,0.2,0C7.3,10,7.3,10,7.2,10z"/>
		<path class="st8" d="M14.4,11.8c0-0.1,0-0.1,0.1-0.1C14.5,11.7,14.5,11.7,14.4,11.8z"/>
		<path class="st8" d="M14.2,12c0-0.1,0-0.1,0.1-0.1C14.3,12,14.3,12,14.2,12z"/>
		<path class="st4" d="M9.8,0.5c-0.1,0-0.1,0-0.1,0C9.6,0.5,9.7,0.5,9.8,0.5C9.7,0.5,9.8,0.5,9.8,0.5z"/>
		<path class="st5" d="M16,7.9c0.1-0.1,0.1,0,0.2,0C16.1,7.9,16,7.9,16,7.9z"/>
		<path class="st9" d="M14.6,0.9c0-0.1,0-0.1,0-0.2C14.6,0.8,14.6,0.8,14.6,0.9z"/>
		<path class="st8" d="M14,12.3C14,12.3,14,12.2,14,12.3C14.1,12.3,14,12.3,14,12.3z"/>
		<path class="st1" d="M6.9,4.1C6.9,4.1,6.9,4.1,6.9,4.1C6.8,4.1,6.9,4.1,6.9,4.1L6.9,4.1C6.9,4.1,6.9,4.1,6.9,4.1z"/>
		<path class="st2" d="M6.9,7.2c0,0,0-0.1,0.1-0.1l0,0C7,7.2,7,7.2,6.9,7.2L6.9,7.2L6.9,7.2z"/>
		<path class="st9" d="M12.8,0.3c0,0,0.1,0,0.1,0c0,0,0,0,0,0C12.9,0.3,12.9,0.3,12.8,0.3C12.8,0.3,12.8,0.3,12.8,0.3z"/>
		<path class="st9" d="M12.5,0.4C12.5,0.4,12.5,0.3,12.5,0.4C12.5,0.3,12.6,0.3,12.5,0.4C12.5,0.4,12.5,0.4,12.5,0.4z"/>
		<path class="st8" d="M12.4,13.5C12.4,13.5,12.5,13.5,12.4,13.5C12.5,13.5,12.5,13.5,12.4,13.5z"/>
		<path class="st8" d="M12.5,13.5C12.5,13.4,12.6,13.4,12.5,13.5C12.6,13.5,12.5,13.5,12.5,13.5z"/>
		<path class="st8" d="M12.7,13.3C12.7,13.3,12.7,13.3,12.7,13.3C12.7,13.3,12.7,13.3,12.7,13.3z"/>
		<path class="st8" d="M12.8,13.3C12.8,13.2,12.8,13.2,12.8,13.3C12.9,13.2,12.8,13.3,12.8,13.3z"/>
		<path class="st8" d="M13,13.1C13,13.1,13,13.1,13,13.1C13,13.1,13,13.1,13,13.1z"/>
		<path class="st8" d="M13.4,12.8C13.4,12.8,13.4,12.8,13.4,12.8C13.4,12.8,13.4,12.8,13.4,12.8z"/>
		<path class="st8" d="M13.6,12.7C13.6,12.6,13.6,12.6,13.6,12.7C13.6,12.6,13.6,12.7,13.6,12.7z"/>
		<path class="st8" d="M14.5,1.1C14.5,1.1,14.6,1.1,14.5,1.1C14.6,1.1,14.6,1.1,14.5,1.1L14.5,1.1C14.6,1.1,14.5,1.1,14.5,1.1z"/>
		<path class="st8" d="M13.8,12.5C13.8,12.5,13.8,12.4,13.8,12.5C13.8,12.5,13.8,12.5,13.8,12.5z"/>
		<path class="st8" d="M14.5,11.6C14.5,11.5,14.5,11.5,14.5,11.6C14.6,11.5,14.6,11.5,14.5,11.6z"/>
		<path class="st8" d="M14.1,12.2C14.1,12.2,14.1,12.1,14.1,12.2C14.1,12.2,14.1,12.2,14.1,12.2z"/>
		<path class="st4" d="M10.3,0.9C10.2,0.9,10.2,0.9,10.3,0.9C10.2,0.9,10.2,0.9,10.3,0.9z"/>
		<path class="st8" d="M14.4,11.8C14.4,11.8,14.4,11.8,14.4,11.8C14.4,11.8,14.4,11.8,14.4,11.8z"/>
		<path class="st8" d="M14.3,11.9C14.3,11.9,14.3,11.9,14.3,11.9C14.4,11.9,14.3,11.9,14.3,11.9z"/>
		<path class="st9" d="M12.5,0.3C12.5,0.3,12.4,0.3,12.5,0.3C12.4,0.2,12.4,0.2,12.5,0.3C12.4,0.2,12.5,0.2,12.5,0.3z"/>
		<path class="st8" d="M14.5,11.6C14.5,11.6,14.5,11.6,14.5,11.6C14.5,11.6,14.5,11.6,14.5,11.6z"/>
		<path class="st8" d="M14.2,12.1C14.2,12.1,14.2,12,14.2,12.1C14.2,12,14.2,12.1,14.2,12.1z"/>
		<path class="st0" d="M16.6,2.3C16.6,2.3,16.6,2.3,16.6,2.3C16.6,2.3,16.6,2.3,16.6,2.3C16.6,2.3,16.6,2.3,16.6,2.3
			C16.6,2.3,16.6,2.3,16.6,2.3z"/>
		<path class="st8" d="M13.9,12.4C14,12.3,14,12.3,13.9,12.4C14,12.3,14,12.3,13.9,12.4z"/>
		<path class="st8" d="M13.9,12.4C13.9,12.4,13.9,12.4,13.9,12.4C13.9,12.4,13.9,12.4,13.9,12.4z"/>
		<path class="st8" d="M13.9,12.4C13.9,12.4,13.9,12.4,13.9,12.4C13.9,12.4,13.9,12.4,13.9,12.4z"/>
		<path class="st1" d="M6.8,4.1C6.8,4.2,6.8,4.2,6.8,4.1C6.8,4.2,6.8,4.2,6.8,4.1z"/>
		<path class="st8" d="M13.7,12.6C13.7,12.5,13.7,12.5,13.7,12.6C13.7,12.5,13.7,12.6,13.7,12.6z"/>
		<path class="st4" d="M10.3,0.8C10.3,0.8,10.3,0.8,10.3,0.8C10.3,0.8,10.3,0.8,10.3,0.8z"/>
		<path class="st8" d="M13.6,12.6C13.7,12.6,13.7,12.6,13.6,12.6C13.7,12.6,13.7,12.6,13.6,12.6z"/>
		<path class="st8" d="M14.6,1.1C14.6,1.2,14.6,1.2,14.6,1.1L14.6,1.1C14.6,1.2,14.6,1.2,14.6,1.1L14.6,1.1z"/>
		<path class="st8" d="M13.5,12.7C13.5,12.7,13.5,12.7,13.5,12.7C13.5,12.7,13.5,12.7,13.5,12.7z"/>
		<path class="st8" d="M13.4,12.8C13.5,12.8,13.5,12.8,13.4,12.8C13.5,12.8,13.5,12.8,13.4,12.8z"/>
		<path class="st8" d="M13.3,12.9C13.3,12.8,13.3,12.8,13.3,12.9C13.3,12.9,13.3,12.9,13.3,12.9z"/>
		<path class="st8" d="M13.3,12.9C13.3,12.9,13.3,12.9,13.3,12.9C13.3,12.9,13.3,12.9,13.3,12.9z"/>
		<path class="st8" d="M13.2,13C13.2,12.9,13.3,12.9,13.2,13C13.3,12.9,13.2,12.9,13.2,13z"/>
		<path class="st1" d="M6.8,4.2C6.8,4.2,6.8,4.2,6.8,4.2C6.8,4.2,6.8,4.2,6.8,4.2z"/>
		<path class="st8" d="M13.2,13C13.2,13,13.2,13,13.2,13C13.2,13,13.2,13,13.2,13z"/>
		<path class="st8" d="M13.1,13C13.1,13,13.1,13,13.1,13C13.1,13,13.1,13,13.1,13z"/>
		<path class="st8" d="M14.7,1.2C14.7,1.2,14.7,1.2,14.7,1.2L14.7,1.2C14.7,1.2,14.7,1.2,14.7,1.2C14.7,1.2,14.7,1.2,14.7,1.2z"/>
		<path class="st8" d="M13.1,13.1C13.1,13.1,13.1,13.1,13.1,13.1C13.1,13.1,13.1,13.1,13.1,13.1z"/>
		<path class="st0" d="M17.5,4.5C17.4,4.5,17.4,4.5,17.5,4.5C17.5,4.5,17.5,4.5,17.5,4.5z"/>
		<path class="st8" d="M12.9,13.2C12.9,13.1,13,13.1,12.9,13.2C13,13.1,12.9,13.2,12.9,13.2z"/>
		<path class="st8" d="M12.9,13.2C12.9,13.2,12.9,13.2,12.9,13.2C12.9,13.2,12.9,13.2,12.9,13.2z"/>
		<path class="st1" d="M6.7,4.2C6.7,4.2,6.7,4.3,6.7,4.2C6.7,4.3,6.7,4.2,6.7,4.2z"/>
		<path class="st8" d="M12.8,13.3C12.8,13.3,12.8,13.3,12.8,13.3C12.8,13.3,12.8,13.3,12.8,13.3z"/>
		<path class="st9" d="M12.8,0.4C12.8,0.4,12.8,0.3,12.8,0.4C12.8,0.3,12.8,0.3,12.8,0.4C12.8,0.4,12.8,0.4,12.8,0.4
			C12.8,0.4,12.8,0.4,12.8,0.4z"/>
		<path class="st0" d="M16.2,1.8C16.2,1.8,16.1,1.8,16.2,1.8C16.2,1.8,16.2,1.8,16.2,1.8z"/>
		<path class="st8" d="M12.6,13.4C12.6,13.4,12.7,13.3,12.6,13.4C12.7,13.4,12.7,13.4,12.6,13.4z"/>
		<path class="st1" d="M6.7,4.3C6.7,4.3,6.7,4.3,6.7,4.3C6.7,4.3,6.7,4.3,6.7,4.3z"/>
		<path class="st8" d="M16.8,3.1C16.8,3.1,16.8,3.1,16.8,3.1C16.8,3.1,16.8,3.1,16.8,3.1C16.8,3.1,16.8,3.1,16.8,3.1z"/>
		<path class="st8" d="M12.4,13.5C12.4,13.5,12.4,13.5,12.4,13.5C12.4,13.5,12.4,13.6,12.4,13.5z"/>
		<path class="st7" d="M14.5,10.9C14.5,10.9,14.5,10.9,14.5,10.9c-0.1,0-0.2,0.1-0.2,0.2c-0.3,0.4-0.5,0.8-0.9,1.1
			c-0.3,0.2-0.4,0.5-0.7,0.7c-0.1,0-0.1,0.1-0.1,0.2l0,0c-0.1,0-0.1,0-0.2,0c-0.5,0.5-1.2,0.5-1.8,0.4c0,0-0.1,0-0.1,0
			c-0.1,0-0.1,0-0.2,0c0-0.1,0-0.1-0.1-0.1c0,0-0.1,0-0.1,0C10,13.3,9.8,13.1,9.6,13c0,0,0,0,0,0c0-0.2-0.1-0.2-0.2-0.3l0,0
			c0-0.1,0-0.1-0.1-0.1c-0.2-0.3-0.4-0.5-0.6-0.8c-0.2-0.3-0.5-0.6-0.6-0.9c-0.1-0.2-0.1-0.3-0.3-0.4c0-0.1-0.1-0.2-0.1-0.3
			c0-0.2-0.1-0.5-0.1-0.7c0,0,0-0.1,0-0.1c0.1-0.3,0-0.6,0.2-0.8c0-0.1,0-0.3,0-0.4c0,0,0-0.1,0-0.1c0,0,0.1,0,0.1,0
			c0,0.1-0.1,0.2,0,0.4c0,0.1,0,0.2,0.1,0.2C8,8.4,8,8.3,8,8.3C8.1,8.1,8.1,8,8.3,8c0,0,0,0,0,0c0,0,0,0.1,0,0.1
			C8.1,8.2,8.1,8.6,7.9,8.7c0,0.1,0,0.2,0,0.2c-0.1,0.3-0.1,0.6,0,1c0,0.2,0.1,0.5,0.3,0.7c0.2,0.2,0.4,0.4,0.5,0.7
			c0.1,0.3,0.4,0.6,0.5,0.9c0.1,0.2,0.2,0.3,0.4,0.5c0.1,0.1,0.3,0,0.4,0c0.1-0.1,0-0.2,0-0.2c0-0.1,0-0.1,0-0.2c0,0,0-0.1,0-0.1
			l0,0c0,0,0-0.1-0.1-0.1c0,0,0,0,0,0.1c-0.1,0-0.1-0.2-0.2-0.2c0,0-0.1-0.1,0-0.2c0.1,0,0.1,0,0.2,0.1c0,0,0.1,0.1,0.1,0.1
			c0.3,0.3,0.5,0.6,0.9,0.7c0.6,0.2,1.1,0,1.5-0.4c0.2-0.1,0.3-0.4,0.5-0.3c-0.1,0.2-0.1,0.4-0.2,0.5c-0.1,0-0.1,0.1-0.2,0.2
			c0,0,0,0.1,0,0.2c0,0.1,0.1,0.1,0.1,0.1c0.1,0,0.2,0,0.2-0.1c0.2-0.2,0.5-0.5,0.7-0.7c0.2-0.3,0.3-0.7,0.7-0.7c0,0,0,0,0-0.1
			c0.1-0.2,0.3-0.5,0.4-0.7c0.1-0.3,0.1-0.5,0-0.8c0-0.1,0.1-0.1,0.1-0.2c0,0,0.1,0,0.1,0l0,0c0,0.3,0,0.5-0.1,0.8
			C14.7,10.4,14.5,10.6,14.5,10.9z M10.1,12.2C10.1,12.2,10.1,12.2,10.1,12.2C10.1,12.2,10.1,12.2,10.1,12.2c0,0.1,0.1,0.2,0.3,0.3
			c0,0,0,0,0,0c0,0,0,0,0,0C10.3,12.3,10.2,12.2,10.1,12.2z M10.5,12.5C10.5,12.5,10.5,12.5,10.5,12.5c0,0.3,0.2,0.4,0.4,0.5
			c0.1,0,0.2,0,0.3,0c0.2,0,0.5-0.2,0.6-0.4c0.1-0.1,0.3-0.1,0.3-0.3c-0.2,0.1-0.3,0.2-0.5,0.3C11.3,12.7,10.9,12.7,10.5,12.5z"/>
		<path class="st5" d="M14.8,10.6c0,0.1-0.1,0.2-0.1,0.3c-0.1,0-0.1,0-0.2-0.1c0.1-0.2,0.2-0.4,0.3-0.6c0.1-0.3,0-0.5,0.1-0.8
			c0-0.1,0-0.2-0.1-0.2l0,0c0-0.1,0-0.1,0-0.2c0-0.1,0.1-0.1,0.1-0.2c0.1-0.1,0-0.2,0-0.3c0,0,0,0,0,0C15,8.8,14.9,9,15.1,9.1
			c0,0,0,0.1,0,0.1c0,0,0,0.1,0.1,0.1c0,0,0,0,0-0.1c0-0.1,0.1-0.1,0.1-0.2c0,0,0.1,0,0.1,0c-0.1,0.1-0.1,0.3-0.1,0.5
			c-0.1,0.3-0.3,0.7-0.3,1C15,10.5,15,10.5,14.8,10.6C14.8,10.5,14.8,10.6,14.8,10.6z"/>
		<path class="st8" d="M12.6,13c0-0.1,0-0.1,0.1-0.2c0.3-0.2,0.5-0.5,0.7-0.7c0.4-0.3,0.6-0.7,0.9-1.1c0-0.1,0.1-0.1,0.2-0.1
			c-0.1,0.3-0.3,0.6-0.5,0.8C13.6,12.2,13.1,12.6,12.6,13C12.7,13,12.7,13,12.6,13z"/>
		<path class="st8" d="M7.8,8.5C7.6,8.7,7.7,9,7.6,9.3c-0.1,0-0.1,0-0.1-0.1c0-0.2,0-0.4,0-0.6c0-0.1,0-0.2,0-0.3c0.1,0,0-0.1,0-0.2
			c0-0.1,0-0.2,0-0.3c0,0,0.1-0.1,0.1-0.1c0.1,0.1,0.1,0.1,0.2,0.2c0,0,0,0.1,0,0.1C7.7,8.2,7.6,8.3,7.8,8.5z"/>
		<path class="st8" d="M7.8,10.4C7.9,10.5,8,10.6,8,10.8c0.1,0.4,0.4,0.7,0.6,0.9c0.2,0.3,0.4,0.5,0.6,0.8c0,0,0.1,0.1,0.1,0.1
			c-0.2,0-0.2-0.2-0.3-0.3c-0.5-0.5-0.9-1.1-1.2-1.8C7.8,10.5,7.8,10.5,7.8,10.4z"/>
		<path class="st12" d="M6.7,7.4c0.1,0,0.2-0.1,0.3,0h0c0,0,0,0,0,0C7,7.4,7,7.5,7.1,7.6c0,0.1,0.1,0.2,0.2,0.2c0,0.1,0,0.2,0.1,0.2
			c0,0.1,0,0.2,0,0.3c-0.1,0-0.1,0-0.2-0.1l0,0C7.2,8,7,7.8,6.8,7.7c0-0.1-0.1-0.1-0.2-0.1C6.7,7.5,6.7,7.4,6.7,7.4z"/>
		<path class="st8" d="M10.6,13.5c0,0,0.1,0,0.1,0c0.7,0.1,1.3,0.1,1.8-0.4c0,0,0.1-0.1,0.2,0c-0.4,0.5-0.9,0.6-1.5,0.6
			C11,13.6,10.7,13.7,10.6,13.5z"/>
		<path class="st8" d="M14.8,9.3c0.1,0,0.1,0.1,0.1,0.2c-0.1,0.3,0,0.5-0.1,0.8c-0.1,0.2-0.2,0.4-0.3,0.6c0,0-0.1,0-0.1,0
			c0-0.3,0.2-0.6,0.2-0.9C14.7,9.8,14.8,9.5,14.8,9.3z"/>
		<path class="st1" d="M7.3,8.3c0-0.1,0-0.2,0-0.3c0-0.1,0-0.2,0-0.3c0.1-0.1,0.1-0.2,0-0.3c0,0,0,0,0,0c0.1,0,0.2,0.1,0.2,0.2
			c-0.1,0.1-0.1,0.1,0,0.2c0,0.1,0,0.2,0,0.3c-0.1,0-0.1,0.1,0,0.2c0,0.1,0,0.2,0,0.3C7.2,8.6,7.4,8.4,7.3,8.3z"/>
		<path class="st8" d="M9.6,13c0.2,0.1,0.4,0.2,0.6,0.4C9.9,13.4,9.7,13.3,9.6,13z"/>
		<path class="st8" d="M7.6,9.4c0,0.2,0.1,0.5,0.1,0.7C7.6,9.9,7.5,9.7,7.6,9.4z"/>
		<path class="st10" d="M7.2,8.9C7.1,8.9,7.1,9,7,9.1C6.9,9,7,8.9,7,8.8l0,0C7,8.8,7.1,8.8,7.2,8.9C7.2,8.9,7.2,8.9,7.2,8.9z"/>
		<path class="st8" d="M9.3,12.7c0.1,0.1,0.2,0.1,0.2,0.3C9.4,12.9,9.3,12.8,9.3,12.7z"/>
		<path class="st8" d="M10.3,13.5C10.4,13.5,10.4,13.5,10.3,13.5C10.3,13.5,10.3,13.5,10.3,13.5z"/>
		<path class="st3" d="M10,1.4c0.2,0,0.2,0.2,0.4,0.3c0,0,0,0.1,0,0.1c-0.2,0.1-0.2,0.2-0.3,0.3C10,2.2,10,2.3,10,2.4
			c0,0.1,0,0.3,0.1,0.4c0,0.1,0.1,0,0.2,0c0.4-0.1,0.7-0.2,1.1-0.3C11.6,2.4,11.8,2.3,12,2c0,0,0,0,0,0c0.1,0,0.1-0.1,0.1-0.2
			c0,0,0,0,0,0c0.1,0.1,0.3,0,0.4,0.2c0,0,0,0,0,0c-0.1,0-0.2,0.1-0.3,0.2c0,0-0.1,0-0.1,0c0,0,0,0,0,0c0-0.1,0-0.2-0.1-0.1
			C12,2.2,12,2.3,11.9,2.3c-0.4,0.3-0.8,0.5-1.3,0.7c-0.2,0-0.3,0.1-0.2,0.3c0,0-0.1,0.1-0.2,0.1c-0.1,0-0.2,0.1-0.3,0.1
			c-0.1,0-0.2,0.1-0.1,0.3c0,0.1,0.1,0.1,0,0.2C9.7,3.8,9.6,3.7,9.4,3.7c0,0-0.1,0-0.1,0c0,0,0,0,0,0c0-0.1,0.1-0.1,0.2-0.2
			C9.7,3.4,9.9,3.3,9.9,3c0-0.1-0.1-0.2-0.2-0.3c-0.1,0-0.1,0.1-0.1,0.2C9.5,3,9.5,3.1,9.4,3.1C9.2,3.4,9,3.4,8.8,3.1
			C8.7,3,8.7,3,8.6,3c0-0.1-0.1-0.2,0.1-0.3c0,0,0,0.1,0,0.1c0,0.1,0.1,0.1,0.1,0.2C9,3.2,9.4,3.1,9.5,2.8c0-0.2,0.2-0.4,0.1-0.6
			c0.3,0,0.3-0.3,0.4-0.5C10,1.6,10,1.5,10,1.4z"/>
		<path class="st2" d="M9.4,3.7c0.2,0,0.3,0.1,0.4,0.3c0.1-0.1,0-0.2,0-0.2c-0.1-0.1,0-0.2,0.1-0.3c0.1,0,0.2-0.1,0.3-0.1
			c-0.1,0.3-0.1,0.4,0.2,0.4c0.1,0,0.1,0,0.2,0c0.2-0.1,0.4-0.1,0.6-0.2c0.3-0.1,0.3-0.1,0.2-0.4c0.2,0,0.2,0.2,0.2,0.3
			c0,0.1,0,0.1,0,0.2c0,0,0,0,0,0c-0.1,0-0.2,0-0.2,0.1c-0.1,0-0.2,0-0.3,0.1c-0.1,0-0.1,0-0.2,0c0-0.1-0.1-0.1-0.1,0
			c-0.2,0-0.4,0-0.5,0C10,4,10,4,10,4C9.9,4,9.9,4,9.9,4.1c0,0.1,0.1,0.2-0.1,0.2c-0.2,0-0.3,0-0.5,0.1C9.2,4.2,9,4.3,9,4.3
			c0,0-0.1,0-0.1,0c0-0.1-0.2-0.2-0.1-0.4c0.1,0,0.1-0.1,0.2-0.1c0,0.2,0.5,0.5,0.7,0.4c0.1,0,0.1-0.1,0-0.2
			C9.6,3.9,9.5,3.8,9.4,3.7z"/>
		<path class="st12" d="M8.4,4.7c0.1-0.1,0.1-0.2,0.2-0.2c0,0.2,0.2,0.2,0.3,0.3c0,0.1-0.1,0-0.1,0c-0.1,0-0.1,0-0.1,0.1
			c0,0.4-0.1,0.8,0,1.2c0,0.1-0.2,0.2-0.2,0.4c0,0.1-0.1,0.1,0,0.2c0.1,0,0.1,0,0.1-0.1c0,0.1,0,0.1,0,0.2c-0.1,0-0.2,0-0.3,0
			c-0.1,0-0.1-0.1,0-0.2c0.1-0.5,0-0.9,0-1.4c0-0.1,0-0.2,0-0.2C8.2,4.9,8.4,4.8,8.4,4.7z"/>
		<path class="st13" d="M8.8,4.2c0,0,0.1,0,0.1,0C9,4.4,9.1,4.3,9.2,4.4c0.2,0,0.3-0.1,0.5-0.1c0.2,0,0.2-0.1,0.1-0.2
			c0.1,0,0.1,0,0.2,0c0.2,0,0.4,0,0.5,0c0,0.1,0.1,0.1,0.1,0c0.1,0,0.1,0,0.2,0c0.1,0,0.2,0,0.3-0.1c0.1,0,0.2,0,0.2-0.1
			c0,0,0,0,0,0c0.1,0.1,0,0.1,0,0.2c-0.2,0.2-0.4,0.3-0.3,0.6c0,0,0,0,0,0c-0.1-0.2-0.3-0.2-0.4-0.2c-0.2,0-0.4,0-0.6,0
			c0,0-0.1,0-0.2,0C9.6,4.5,9.3,4.6,8.9,4.4c-0.1,0-0.1-0.1-0.2,0c0-0.1-0.1-0.1-0.1-0.2C8.7,4.2,8.8,4.2,8.8,4.2z"/>
		<path class="st13" d="M8.9,3.8c-0.1,0-0.1,0.1-0.2,0.1C8.6,3.8,8.6,3.7,8.6,3.6c0-0.2,0-0.4,0-0.7C8.7,3,8.7,3,8.8,3.1
			c0.2,0.3,0.4,0.3,0.6,0C9.5,3.1,9.5,3,9.5,2.9c0-0.1,0.1-0.2,0.1-0.2C9.8,2.8,9.9,2.9,9.9,3c0,0.3-0.2,0.3-0.4,0.4
			c-0.1,0-0.2,0.1-0.2,0.2c-0.1,0-0.1,0-0.2,0C9,3.7,9,3.7,8.9,3.8z"/>
		<path class="st7" d="M8.7,4.4c0.1,0,0.1,0,0.2,0c0,0.2,0.1,0.3,0.3,0.3c0.3,0.1,0.5,0,0.7-0.1c0.1-0.1,0.2-0.1,0.4,0
			c0.1,0.1,0.2,0.1,0.3,0.1c0.2,0,0.5,0,0.7,0c0,0,0,0,0,0v0c0,0.1,0,0.1,0,0.2c0,0-0.1,0-0.1,0c-0.1-0.1-0.3-0.1-0.4,0c0,0,0,0,0,0
			c-0.1,0-0.1,0-0.2,0c-0.1,0-0.1,0-0.2,0l0,0c0-0.1-0.1-0.1-0.1-0.1c-0.1-0.1-0.1,0-0.2,0c0,0-0.1,0-0.1,0c-0.1,0-0.1,0-0.1,0.1
			c-0.1,0-0.1,0-0.2,0.1c0,0-0.1,0-0.1,0c-0.2,0-0.4,0-0.6,0C8.9,4.7,8.7,4.7,8.7,4.5C8.7,4.5,8.7,4.5,8.7,4.4z"/>
		<path class="st2" d="M9.6,2.2c0.1,0.2-0.1,0.4-0.1,0.6C9.2,3,9,3,8.7,2.8c0,0,0,0-0.1,0c0,0,0-0.1,0-0.1c0-0.1-0.1-0.2,0.1-0.3
			c0,0.1,0,0.2,0.1,0.3c0.2,0.1,0.5,0,0.5-0.3c0-0.1,0-0.3,0-0.4C9.4,2.1,9.5,2.1,9.6,2.2z"/>
		<path class="st3" d="M8.2,3.2C8.3,3,8.1,2.9,8,2.8C8,2.7,8,2.6,8,2.5c0-0.1,0-0.2,0.1-0.2c0.1,0,0.3,0.1,0.3,0.2
			c0,0.2,0,0.4,0,0.6C8.3,3.1,8.3,3.2,8.2,3.2z"/>
		<path class="st0" d="M9.4,2c0,0.1,0,0.3,0,0.4c0,0.3-0.3,0.4-0.5,0.3C8.7,2.6,8.7,2.5,8.7,2.4c0,0,0-0.1,0-0.1c0,0,0,0,0,0
			C8.9,2.4,9,2.5,9.1,2.4c0.2-0.1,0.2-0.2,0.1-0.4c0,0,0-0.1,0-0.1C9.3,2,9.3,2,9.4,2C9.3,2,9.4,2,9.4,2z"/>
		<path class="st2" d="M7.1,3.6C7,3.5,6.9,3.5,6.8,3.3C7.1,3.4,7.5,3,7.5,2.6c0.2,0,0.3,0.1,0.2,0.3c0,0.1-0.1,0.2-0.1,0.3
			c-0.1,0-0.1,0.1-0.1,0.1C7.2,3.3,7.2,3.5,7.1,3.6z"/>
		<path class="st4" d="M8,3.9c0.2,0.2,0.2,0.4,0.1,0.7C8,4.9,7.9,4.8,7.6,4.8c-0.1,0-0.2-0.1-0.2-0.2c0,0,0.1,0,0.1,0
			c0.3,0.1,0.3,0,0.4-0.2C8.1,4.3,8,4.1,7.9,4C7.9,3.9,8,3.9,8,3.9z"/>
		<path class="st0" d="M7.9,4C8,4.1,8.1,4.3,8,4.5C7.8,4.7,7.8,4.7,7.5,4.7c0,0-0.1,0-0.1,0c0-0.1,0-0.1,0-0.2c0,0,0.1,0,0.1,0
			c0.1,0.1,0.2,0.1,0.3,0c0.1-0.1,0.1-0.2,0-0.3c0,0,0-0.1-0.1-0.1C7.8,4,7.8,4,7.9,4z"/>
		<path class="st3" d="M8.4,4.7c0,0.1-0.2,0.1-0.2,0.2C8.2,5,8.1,5.1,8.1,5.2C7.9,5.2,7.7,5.1,7.5,5c0,0-0.1-0.1-0.1-0.1
			c0.2,0,0.3,0,0.5,0c0.1,0,0.2-0.1,0.2-0.1C8.2,4.8,8.3,4.7,8.4,4.7z"/>
		<path class="st2" d="M7.7,3.2c0.1-0.1,0.2-0.1,0.2,0C8,3.3,8,3.4,7.9,3.5C7.7,3.7,7.5,3.9,7.3,4.1c-0.1,0-0.1,0-0.1-0.1
			C7.3,4,7.3,4,7.4,4c0.1-0.2,0.2-0.3,0.4-0.5C7.8,3.4,7.8,3.3,7.7,3.2z"/>
		<path class="st4" d="M7.7,3.2c0.1,0.1,0.1,0.2,0,0.3C7.6,3.6,7.5,3.8,7.4,4C7.3,4,7.3,4,7.2,4c0,0-0.1,0-0.1,0c0,0,0-0.1,0-0.1
			c0.1,0,0.2,0,0.3-0.2c0.1-0.2,0.2-0.3,0.1-0.5C7.6,3.2,7.6,3.2,7.7,3.2z"/>
		<path class="st8" d="M7.7,4.1c0,0,0,0.1,0.1,0.1c0,0.1,0.1,0.2,0,0.3c-0.1,0.1-0.2,0.1-0.3,0c0,0-0.1,0-0.1,0l0,0
			c0-0.1,0.1-0.2,0.1-0.3C7.6,4.1,7.6,4.1,7.7,4.1z"/>
		<path class="st0" d="M7.6,3.2c0,0.2,0,0.4-0.1,0.5C7.4,3.8,7.3,3.9,7.1,3.9c0-0.1-0.1-0.1,0-0.2c0.2,0,0.3-0.1,0.3-0.3
			C7.4,3.2,7.5,3.2,7.6,3.2C7.5,3.2,7.5,3.2,7.6,3.2z"/>
		<path class="st3" d="M7.5,4.2c0,0.1-0.1,0.2-0.1,0.3c0,0-0.1-0.1-0.1-0.1c0-0.1,0-0.2-0.2-0.2c-0.1,0-0.1,0-0.2,0c0,0,0,0,0-0.1
			C7,4.1,7.1,4,7.1,4c0,0,0.1,0,0.1,0c0,0.1,0.1,0.1,0.1,0.1C7.4,4.2,7.5,4.1,7.5,4.2z"/>
		<path class="st13" d="M11.5,3.6c0-0.1,0-0.3-0.2-0.3c0,0-0.1,0-0.1,0c-0.1-0.1-0.1-0.1-0.2,0c-0.2,0-0.4,0.1-0.7,0.1
			c0-0.2,0.1-0.3,0.2-0.3c0.5-0.1,0.9-0.4,1.3-0.7C12,2.3,12,2.2,12.1,2.1c0.1-0.1,0.1,0,0.1,0.1c0,0,0,0.1,0,0.1l0,0
			c-0.3,0.2-0.4,0.5-0.5,0.8c0,0.1,0,0.1,0,0.2c0.1,0.1,0.1,0,0.2,0c0.4-0.2,0.8-0.1,1.2-0.1c0.1,0,0.2,0,0.2,0c0.2,0,0.4,0,0.5-0.1
			c0.1,0,0.2-0.1,0.3-0.1C14,3,14,3,14,3.1c-0.2,0.2-0.2,0.4-0.1,0.5c0.2,0.1,0.3,0.2,0.5,0.2c0,0,0.1,0,0.1,0
			c0.2,0.1,0.3,0.2,0.5,0.2c0,0,0.1,0,0.1,0c0,0,0,0.1,0.1,0.1c0.2,0.1,0.5,0,0.8,0C16,4.1,16,4,16,3.9c0,0,0.1,0,0.1,0
			c0,0,0,0.1,0,0.1c0,0,0,0,0.1-0.1c0,0,0,0,0,0c0,0,0.1,0,0.1,0c-0.1,0.1-0.3,0.2-0.1,0.4c-0.1,0-0.1,0-0.2,0
			c-0.3-0.1-0.6-0.1-0.8-0.1c-0.2-0.1-0.4-0.1-0.6,0c0,0,0,0,0,0c-0.1-0.2-0.3-0.5-0.6-0.4c-0.3,0-0.7,0-1,0c-0.2,0-0.5,0-0.7-0.1
			C12,3.5,11.7,3.5,11.5,3.6z"/>
		<path class="st1" d="M14,3.1C14,3,14,3,14.1,2.9c-0.1,0-0.2,0.1-0.3,0.1c-0.2,0.1-0.3,0.1-0.5,0.1c-0.1,0-0.2,0-0.2,0
			c-0.4,0-0.8,0-1.2,0.1c-0.1,0-0.1,0.1-0.2,0c0-0.1,0-0.1,0-0.2c0.2-0.3,0.3-0.6,0.5-0.8c0,0.1,0,0.2-0.1,0.3
			c-0.1,0.2,0,0.5,0.2,0.4c0.2,0,0.5,0,0.7,0c0.2,0,0.4,0,0.5-0.1c0,0,0.1,0,0.1,0c0.1,0,0.2,0,0.2-0.1c0.1-0.1,0.2,0,0.2-0.2
			c0,0,0-0.1,0-0.1c0,0,0-0.1,0-0.1c0,0,0-0.1,0-0.1c0.4,0,0.6-0.2,0.8-0.4C14.9,2,15,2.2,15.2,2.3c0.1,0.1,0.1,0.1,0.1,0.2
			c0,0-0.1,0-0.1,0c0-0.1-0.2-0.1-0.3-0.1c-0.1-0.1-0.2-0.1-0.3-0.1c-0.4,0-0.4,0-0.3,0.4c0.1,0.3,0.2,0.6,0.4,0.8
			c0.1,0.1,0.2,0.2,0.4,0.2c0.1,0,0.2,0,0.2,0.1c-0.1,0-0.1,0-0.2,0c0,0-0.1,0-0.1,0c-0.1-0.2-0.3-0.2-0.5-0.2c0,0-0.1,0-0.1,0
			c0-0.1-0.1-0.1-0.1-0.1C14.1,3.5,14,3.3,14,3.1z"/>
		<path class="st0" d="M15,2.4c0.1,0,0.2-0.1,0.3,0.1c0,0.1,0,0.1,0,0.2c0,0.4,0.5,0.8,0.9,0.8c0.1,0,0.2,0,0.2-0.1
			c0.1,0.1,0,0.3-0.1,0.3c-0.1,0-0.1,0-0.2,0c-0.1-0.1-0.2,0-0.3-0.1C15.4,3.5,15.3,3.2,15,3C14.9,2.8,14.9,2.6,15,2.4z"/>
		<path class="st4" d="M15,2.4C14.9,2.6,14.9,2.8,15,3c0.2,0.3,0.4,0.5,0.7,0.7c0.1,0,0.2,0,0.3,0.1c-0.1,0.1-0.6,0-0.7-0.1
			c-0.2-0.3-0.4-0.5-0.6-0.8c-0.1-0.2-0.1-0.3,0-0.5C14.8,2.4,14.9,2.4,15,2.4z"/>
		<path class="st8" d="M16.3,3.4c0,0.1-0.1,0.2-0.2,0.1c-0.3-0.1-0.9-0.5-0.9-0.8c0-0.1,0-0.1,0-0.2c0,0,0.1,0,0.1,0
			c0.1,0.1,0.2,0,0.3,0.1c-0.1,0.2-0.1,0.4,0,0.5c0.1,0.1,0.2,0.2,0.3,0.2c0.2,0.1,0.2,0.1,0.3-0.1C16.4,3.2,16.3,3.4,16.3,3.4z"/>
		<path class="st7" d="M16.2,3.2c0,0.2-0.1,0.3-0.3,0.1c-0.1-0.1-0.2-0.2-0.3-0.2c-0.1-0.1-0.1-0.3,0-0.5c0.1,0,0.1,0,0.2,0
			c0,0,0,0,0,0c0,0.1,0,0.1,0.1,0.1c0.1,0.1,0.1,0.1,0.2,0.2C16.1,3,16.2,3.1,16.2,3.2z"/>
		<path class="st4" d="M16.7,3.9c0,0.3,0.2,0.6,0.4,0.8c0.1,0.1,0.2,0.2,0.3,0.3c-0.1,0-0.3,0-0.4-0.1c-0.2-0.3-0.4-0.6-0.6-0.9
			c0-0.1,0-0.1,0-0.2C16.5,3.8,16.6,3.8,16.7,3.9z"/>
		<path class="st3" d="M15.1,3.9c0.1,0,0.1,0,0.2,0c0.2,0.1,0.5,0,0.7,0c0,0.1,0,0.1-0.1,0.1C15.6,4.1,15.4,4.1,15.1,3.9
			C15.1,4,15.1,4,15.1,3.9z"/>
		<path class="st3" d="M16.4,3.8c0,0.1,0,0.1,0,0.2c0,0-0.1,0-0.1,0c0-0.1-0.1,0-0.1,0C16.2,3.8,16.3,3.8,16.4,3.8z"/>
		<path class="st3" d="M16.1,3.9C16.1,4,16.1,4,16.1,3.9C16.1,4,16.1,4,16.1,3.9C16.1,3.9,16.1,3.9,16.1,3.9z"/>
		<path class="st9" d="M8.3,6.7c0.1,0,0.2,0,0.3,0c0.5,0,1,0,1.4,0.2c0.1,0,0.2,0.1,0.3,0c0.1,0,0.2,0,0.3,0.1
			c0.2,0.1,0.3,0.1,0.5,0.1c0.2,0,0.4,0.1,0.6,0c0.1,0,0.1,0,0.2,0c0.1,0,0.3,0,0.4-0.1c0.1,0,0.3-0.1,0.5,0h0l0,0c0,0,0,0,0,0
			c0.3,0,0.7-0.1,1,0c0.1,0,0.2,0.1,0.3,0c0.1,0.1,0.2,0,0.3,0c0.1,0.1,0.2,0.1,0.4,0.1c0.1,0.1,0.2,0.1,0.3,0.1
			c0.3,0.1,0.3,0.1,0.3,0.6c0,0-0.1,0-0.1,0.1c-0.1,0-0.1,0-0.1,0.1c-0.1,0-0.1,0.1-0.2,0.1c-0.1,0-0.1,0.1-0.2,0.1c0,0,0,0,0,0
			c0,0,0-0.1,0-0.1c0-0.1,0-0.2,0-0.2c0-0.1,0-0.3-0.2-0.4c-0.1-0.1-0.2-0.1-0.2-0.1c-0.2-0.1-0.5,0-0.7-0.1c0,0,0,0,0,0
			c0,0,0,0,0,0c-0.3,0-0.7-0.1-1,0c-0.1,0-0.2,0-0.3,0.1c-0.1,0-0.2,0-0.3,0.1c0,0-0.1,0.1-0.1,0.1c0,0-0.1,0.1-0.1,0.1
			c-0.1-0.1-0.1-0.1-0.2-0.2c-0.2-0.2-0.2-0.2-0.4-0.1c-0.1,0-0.2,0.1-0.3,0.1c0-0.1-0.1-0.1-0.1-0.2c-0.2-0.1-0.3-0.2-0.5-0.2
			c0-0.1-0.1-0.1-0.2-0.1C9.6,7.3,9.1,7.2,8.7,7.2c-0.2,0-0.4-0.1-0.6,0.1C7.9,7.5,7.9,7.7,7.9,7.9l0,0c0,0-0.1,0-0.1,0
			C7.8,7.8,7.7,7.8,7.6,7.7c0,0-0.1,0-0.1,0c0-0.1-0.1-0.2-0.2-0.2c-0.2-0.2,0-0.3,0-0.5C7.2,6.8,7.5,6.9,7.5,6.8c0.1,0,0.1,0,0.2,0
			C7.9,6.8,8.1,6.8,8.3,6.7z"/>
		<path class="st4" d="M16.3,6.9c0.1,0.2,0.1,0.4,0,0.5c-0.1,0.3-0.2,0.3-0.4,0.2c0-0.1,0-0.1-0.1-0.1l0,0c0-0.1-0.1-0.2-0.1-0.2
			c-0.1-0.2-0.3-0.4-0.4-0.6c-0.1-0.1,0-0.2,0.1-0.2c0.2,0,0.5,0,0.7,0.2C16.2,6.9,16.2,6.9,16.3,6.9z"/>
		<path class="st13" d="M16.4,5.3C16.4,5.4,16.4,5.4,16.4,5.3c0,0.2,0,0.2,0,0.3c-0.1,0.1-0.2,0.1-0.3,0.2c0,0-0.1,0-0.1,0
			c-0.1,0-0.2,0-0.3,0c-0.1-0.1-0.2-0.1-0.3-0.2c0,0-0.1,0-0.1,0c0-0.1-0.1-0.2-0.2-0.2c-0.1-0.1-0.2-0.1-0.2-0.3c0,0,0-0.1,0-0.1
			c0,0,0-0.1,0-0.1c0,0,0-0.1,0-0.1c0.1,0,0.2,0,0.3,0.1c0.1,0.1,0.2,0.2,0.3,0.2c0.1,0,0.1,0.1,0.2,0.1c0,0,0,0.1,0.1,0.1
			c0,0,0,0,0-0.1c0.1,0,0.1,0,0.2,0c0,0,0,0.1,0,0.1c0,0,0,0,0.1-0.1C16.2,5.4,16.3,5.3,16.4,5.3z"/>
		<path class="st2" d="M16.3,6.9c-0.1,0-0.2-0.1-0.2-0.1c-0.2-0.2-0.4-0.2-0.7-0.2c-0.1,0-0.1,0.1-0.1,0.2c0.1,0.2,0.3,0.4,0.4,0.6
			c0.1,0.1,0.1,0.1,0.1,0.2c-0.2,0-0.3-0.2-0.4-0.3c-0.1-0.1-0.2-0.1-0.2-0.1c-0.1-0.2-0.1-0.5-0.1-0.8c0-0.1,0-0.2,0-0.4
			c0.2,0,0.4,0.1,0.6,0.2c0.2,0.1,0.4,0.3,0.6,0.4C16.3,6.8,16.3,6.9,16.3,6.9z"/>
		<path class="st1" d="M16.3,6.7c-0.2-0.1-0.4-0.3-0.6-0.4c-0.2-0.1-0.4-0.2-0.6-0.2c-0.1-0.2,0-0.3-0.1-0.5c-0.1,0.1,0,0.2-0.1,0.2
			c0,0,0-0.1,0-0.1c0-0.1,0.1-0.2,0.1-0.3c0,0,0-0.1,0-0.1c0,0,0-0.1,0-0.1c0,0,0.1-0.1,0.1-0.1c0,0.2,0.1,0.2,0.2,0.3
			c0,0.1,0.1,0.2,0.2,0.2c0,0,0.1,0,0.1,0c0,0.2-0.2,0.1-0.3,0.2c0.3,0.2,0.7,0.4,0.9,0.7C16.2,6.6,16.3,6.7,16.3,6.7z"/>
		<path class="st2" d="M16.1,5.8C16.1,5.8,16.2,5.8,16.1,5.8c0.2,0,0.3-0.1,0.3-0.1c0,0.3,0,0.5,0.1,0.7c-0.2-0.1-0.3-0.2-0.4-0.3
			c-0.1,0-0.1-0.1-0.2-0.1C15.9,5.9,16.1,6,16.1,5.8z"/>
		<path class="st1" d="M15.1,8.3c0-0.1,0.1-0.1,0.2-0.1c0,0.1,0,0.1,0,0.2c0,0.1,0,0.1,0,0.2c-0.1,0.2,0,0.3,0,0.5
			c0,0.1-0.1,0.1-0.1,0.2c0,0-0.1,0-0.1,0c0,0,0-0.1,0-0.1c0-0.2,0-0.4,0-0.6C15.1,8.4,15.1,8.4,15.1,8.3z"/>
		<path class="st8" d="M15.1,6.5c0,0.3,0,0.5,0.1,0.8c0,0,0,0.1,0,0.1c-0.1,0-0.2,0-0.3-0.1c0-0.1,0-0.2,0.1-0.3
			C15,6.8,14.9,6.6,15.1,6.5z"/>
		<path class="st1" d="M15.4,8.1C15.4,8,15.4,8,15.4,8.1c0.2-0.1,0.2,0,0.3,0.1c0,0,0,0.1,0,0.1c-0.1,0-0.1,0-0.1,0
			C15.5,8.2,15.4,8.2,15.4,8.1z"/>
		<path class="st1" d="M16.1,5.8c0,0.1-0.2,0.1-0.2,0.3c-0.1-0.1-0.2,0-0.2-0.2C15.9,5.9,16,5.9,16.1,5.8z"/>
		<path class="st2" d="M16.6,6.4c0.1,0,0.3,0.1,0.4,0.1c0,0.1,0,0.1-0.1,0.1C16.8,6.6,16.7,6.6,16.6,6.4z"/>
		<path class="st2" d="M15.8,7.6C15.9,7.6,15.9,7.6,15.8,7.6C15.9,7.7,15.8,7.6,15.8,7.6z"/>
		<path class="st7" d="M8.3,6.7c-0.2,0.1-0.4,0-0.6,0c0-0.1,0-0.1,0-0.2c0.1,0,0-0.1,0-0.2C7.8,6.2,7.9,6,7.9,5.8
			C7.9,5.7,8,5.6,8,5.4c0-0.1,0.1-0.2,0.1-0.3C8.1,5.1,8.2,5,8.2,5c0.1,0.1,0,0.1,0,0.2c0,0.5,0,0.9,0,1.4C8.2,6.6,8.2,6.7,8.3,6.7z
			"/>
		<path class="st4" d="M7.2,6.6c-0.1,0-0.1,0-0.1-0.1C7,6.1,6.7,5.7,7,5.3c0,0,0,0,0,0c0.1,0.2,0.1,0.4,0.3,0.5C7.4,6,7.4,6,7.7,5.9
			c0,0,0.1,0,0.1,0C7.7,6,7.5,6,7.5,6.1C7.4,6.3,7.2,6.3,7.2,6.6C7.2,6.5,7.2,6.5,7.2,6.6z"/>
		<path class="st4" d="M8,5.4c0,0.2-0.1,0.3-0.2,0.4c0,0,0,0,0,0c-0.1-0.1-0.2,0-0.3,0c-0.1,0-0.2,0-0.2-0.1c0-0.1,0-0.1,0-0.2
			c0.2,0.1,0.3,0,0.3-0.1c0-0.1-0.1-0.3-0.2-0.4c0-0.1,0.1-0.1,0.1-0.1c0,0,0.1,0.1,0.1,0.1C7.6,5.3,7.8,5.3,8,5.4z"/>
		<path class="st4" d="M7.3,7c0,0.2-0.1,0.4,0,0.5c0,0,0,0,0,0C7.3,7.7,7.2,7.6,7.1,7.6C7,7.5,7,7.4,7,7.4c0,0,0,0,0,0c0,0,0,0,0,0
			h0c0,0,0-0.1,0-0.1c0,0,0-0.1,0-0.1C7,7,7.1,7,7.1,6.9C7.1,7.1,7.3,6.9,7.3,7z"/>
		<path class="st8" d="M7.3,6.5c0-0.2,0.1-0.3,0.2-0.4c0.1,0,0.3-0.1,0.3,0.2c0,0-0.1,0.1-0.1,0.1c-0.1,0-0.1,0.1-0.1,0.1
			C7.5,6.6,7.4,6.7,7.3,6.6C7.3,6.6,7.3,6.6,7.3,6.5z"/>
		<path class="st0" d="M7.3,5c0.2,0.1,0.2,0.2,0.2,0.4c0,0.1-0.1,0.2-0.3,0.1c0-0.1,0-0.2,0-0.4l0,0C7.2,5.2,7.2,5.1,7.3,5
			C7.3,5.1,7.3,5.1,7.3,5z"/>
		<path class="st1" d="M7.2,5.2c0,0.1,0,0.3,0,0.4c0,0.1,0,0.1,0,0.2c0,0,0,0,0,0C7.1,5.6,7.1,5.4,7,5.2c0,0,0,0,0,0c0,0,0,0,0,0
			c0,0,0,0,0,0C7,5.1,7.1,5.2,7.2,5.2z"/>
		<path class="st0" d="M7.7,6.3C7.8,6,7.6,6.2,7.5,6.1C7.5,6,7.7,6,7.8,5.9c0,0,0,0,0,0c0,0,0,0,0,0C7.9,6,7.8,6.2,7.7,6.3
			C7.8,6.4,7.8,6.3,7.7,6.3z"/>
		<path class="st1" d="M7.7,6.6c0,0.1,0,0.1,0,0.2c0,0.1-0.1,0-0.2,0C7.5,6.7,7.6,6.6,7.7,6.6z"/>
		<path class="st0" d="M7.3,6.5c0,0,0,0.1,0,0.1C7.2,6.6,7.2,6.6,7.3,6.5C7.2,6.5,7.2,6.5,7.3,6.5z"/>
		<path class="st0" d="M7.6,6.5c0-0.1,0-0.1,0.1-0.1C7.6,6.5,7.6,6.5,7.6,6.5z"/>
		<path class="st1" d="M7.3,5.1C7.2,5.1,7.2,5.2,7.3,5.1C7.2,5.2,7.2,5.1,7.3,5.1z"/>
		<path class="st4" d="M7,5.2C7,5.2,7,5.2,7,5.2C7,5.2,7,5.2,7,5.2C7,5.2,7,5.2,7,5.2z"/>
		<path class="st7" d="M9.2,2c0,0,0,0.1,0,0.1c0,0.1,0,0.3-0.1,0.4C9,2.5,8.9,2.4,8.8,2.3C8.8,2,9,2,9.2,2z"/>
		<path class="st1" d="M9.4,2C9.4,2,9.3,2,9.4,2C9.3,2,9.3,1.9,9.4,2C9.6,1.8,9.8,1.7,10,1.7C9.9,1.8,9.9,2.1,9.6,2.2
			C9.5,2.1,9.4,2.1,9.4,2z"/>
		<path class="st12" d="M9,1.2C9,1.1,9.1,1.1,9.1,1c0.2,0,0.3-0.1,0.5-0.1C9.7,0.9,9.7,1,9.7,1c0,0.1,0,0.2-0.1,0.2
			C9.4,1.2,9.2,1.2,9,1.3c0,0-0.1,0-0.1,0C8.9,1.2,8.9,1.2,9,1.2z"/>
		<path class="st8" d="M8.9,1.3c0,0,0.1,0,0.1,0c0.2-0.1,0.4-0.1,0.6-0.2c0.1,0,0.1-0.1,0.1-0.2c0.1,0.2,0.1,0.3-0.1,0.4
			c-0.2,0-0.3,0.1-0.5,0.1c-0.1,0-0.1,0-0.2,0c-0.1,0-0.1,0.1-0.2,0C8.8,1.4,8.8,1.3,8.9,1.3z"/>
		<path class="st8" d="M15.2,9.1c0-0.2,0-0.3,0-0.5c0.1,0,0.1,0.1,0.1,0.2c0,0.1,0,0.1,0,0.2c0,0,0,0.1,0,0.1
			C15.3,9.1,15.3,9.1,15.2,9.1z"/>
		<path class="st7" d="M15,10.5c0-0.4,0.1-0.7,0.3-1c0.2,0,0.2,0.1,0.1,0.2c-0.1,0.1-0.1,0.3-0.1,0.4c0,0.1,0,0.2,0,0.2
			C15.3,10.6,15.3,10.6,15,10.5z"/>
		<path class="st11" d="M6.7,9.1C6.5,8.8,6.5,8.4,6.5,8c0.2,0,0.3,0.1,0.4,0.3C6.7,8.4,6.6,8.6,6.7,8.9C6.7,9,6.7,9,6.7,9.1z"/>
		<path class="st7" d="M6.9,8.3C6.8,8.1,6.7,8,6.5,8c0-0.2,0-0.4,0.2-0.5c0.1,0,0.2,0,0.2,0.1c-0.1,0-0.2-0.1-0.2,0
			c0,0.1,0,0.1,0.1,0.2C6.9,8,7,8.1,7,8.2C7,8.3,7,8.3,6.9,8.3z"/>
		<path class="st5" d="M7,8.2C7,8.1,6.9,8,6.7,7.9C6.7,7.8,6.6,7.8,6.6,7.7c0-0.1,0.1,0,0.2,0C7,7.8,7.2,8,7.2,8.3
			C7.1,8.3,7.1,8.2,7,8.2z"/>
		<path class="st10" d="M7,8.8C7,8.8,6.9,8.8,7,8.8C7,8.8,6.9,8.8,7,8.8C7,8.8,7,8.8,7,8.8z"/>
		<path class="st12" d="M11,1.4c0.2,0,0.4-0.1,0.6-0.1c0.1,0,0.1,0,0.2,0c0.1,0.1,0.2,0.1,0.3,0.1c0,0,0,0.1,0,0.1
			c0,0.1,0,0.1-0.1,0.2c0,0-0.1,0-0.1,0c-0.1,0-0.3,0-0.4,0C11.2,1.7,11,1.6,11,1.4z"/>
		<path class="st7" d="M11,1.4c0,0.3,0.2,0.3,0.4,0.3c0.1,0,0.3,0,0.4,0c-0.3,0.1-0.5,0.1-0.8,0.1c-0.3,0-0.3,0-0.3-0.3c0,0,0,0,0,0
			C10.8,1.5,10.9,1.4,11,1.4C11,1.4,11,1.4,11,1.4z"/>
		<path class="st13" d="M12.1,1.4c-0.1,0-0.2,0-0.3-0.1c0-0.1,0-0.1,0-0.2c0.1,0,0.1,0,0.1-0.1c0.1,0,0.1,0,0.1-0.1c0,0,0,0,0,0
			c0.1,0,0.2,0.1,0.1,0.2C12.1,1.2,12.1,1.3,12.1,1.4z"/>
		<path class="st1" d="M11.8,1.1c0,0.1,0,0.1,0,0.2c-0.1,0-0.1,0-0.2,0C11.6,1.2,11.7,1.2,11.8,1.1z"/>
		<path class="st1" d="M12.1,0.9c0,0.1,0,0.1-0.1,0.1c0,0,0,0,0,0C12,1,12,1,12.1,0.9z"/>
		<path class="st2" d="M15.7,2.6c-0.1,0-0.1,0-0.2,0c-0.1-0.1-0.2-0.1-0.3-0.1c0-0.1,0-0.2-0.1-0.2C15,2.2,14.9,2,14.7,1.9
			c0-0.1,0.1-0.1,0.1-0.2h0h0c0,0,0.1,0,0.1,0c0.2,0.2,0.5,0.4,0.8,0.6c0.2,0.2,0.4,0.2,0.6,0.1c0,0,0.1,0,0.1,0
			c-0.2,0.2-0.4,0.2-0.6,0.2C15.9,2.6,15.8,2.6,15.7,2.6z"/>
		<path class="st2" d="M12.8,0.9c-0.1,0.2,0,0.3,0.2,0.3c0.2,0.1,0.4,0.1,0.7,0.2c0.1,0,0.2,0.1,0.4,0.1c0.2,0.1,0.4,0.1,0.6,0
			c0.1,0,0.2-0.1,0.2-0.1c0,0,0,0.1,0,0.1c-0.1,0-0.1,0.1-0.2,0.1c0,0-0.1,0-0.1,0c0,0-0.1,0-0.1,0c-0.6,0.1-1.2-0.1-1.8-0.2
			c-0.1,0-0.3-0.1-0.2-0.2C12.5,1,12.6,0.9,12.8,0.9L12.8,0.9z"/>
		<path class="st3" d="M14.7,1.6c0.1,0,0.1-0.1,0.2-0.1c0,0.1,0,0.1,0,0.2h0h0C14.8,1.7,14.7,1.7,14.7,1.6
			C14.7,1.7,14.7,1.6,14.7,1.6z"/>
		<path class="st1" d="M12.8,0.9c-0.2,0-0.3,0.1-0.3,0.2c0,0.2,0.1,0.2,0.2,0.2c0.6,0.1,1.2,0.3,1.8,0.2c0,0.1-0.1,0.1-0.2,0.1
			c-0.3,0.1-0.7,0-1,0.2c-0.1,0-0.1,0.1-0.1,0.1c0,0-0.1,0-0.1,0c-0.1,0-0.2,0-0.3,0c0,0-0.1,0-0.1,0c0,0-0.1,0-0.1,0
			c-0.1-0.2-0.3-0.1-0.4-0.2c0,0,0-0.1,0-0.1c0-0.1,0-0.2-0.1-0.2c0,0,0-0.1,0-0.1c0-0.1,0-0.3,0.1-0.4c0.1-0.1,0-0.2-0.1-0.2
			c0-0.1,0.1-0.1,0.1-0.2c0.2-0.1,0.4,0.1,0.6,0.1C12.8,0.8,12.8,0.9,12.8,0.9z"/>
		<path class="st8" d="M12.1,0.5C12.1,0.5,12.1,0.5,12.1,0.5c0,0.1,0,0.1,0,0.2c0,0-0.1,0-0.1,0c-0.3,0.1-0.6,0.1-0.8,0
			c-0.1,0-0.4,0.1-0.4-0.2c0.1-0.1,0.1-0.1,0.2-0.1c0,0,0,0.1,0.1,0.1c0.3,0.1,0.5,0.1,0.8,0C11.9,0.6,12,0.6,12.1,0.5
			C12.1,0.4,12.1,0.5,12.1,0.5z"/>
		<path class="st0" d="M10.8,0.6c0.1,0.2,0.3,0.1,0.4,0.2c0.3,0,0.6,0,0.8,0c0,0.1-0.1,0.1-0.1,0.1c-0.4,0-0.7,0-1.1,0
			c-0.1,0-0.2,0-0.2-0.1C10.6,0.6,10.7,0.6,10.8,0.6z"/>
		<path class="st7" d="M11.8,0.6c-0.3,0-0.5,0-0.8,0c0,0,0,0-0.1-0.1c0,0,0,0,0,0c0.1,0,0.1-0.1,0.2-0.1c0,0.1,0,0.1,0.1,0.1
			C11.5,0.5,11.7,0.5,11.8,0.6z"/>
		<path class="st2" d="M16.4,5.3c-0.1,0-0.2,0-0.3,0c0,0-0.1,0-0.1,0c-0.1,0-0.1,0-0.2,0c0,0-0.1,0-0.1,0c0-0.1-0.1-0.1-0.2-0.1
			c0,0-0.1-0.1-0.1-0.1C15.5,5,15.4,5,15.3,5l0,0c-0.1-0.3-0.3-0.5-0.2-0.8c0.3,0,0.6,0.1,0.8,0.1c-0.1,0.1-0.1,0-0.2,0
			c-0.1,0-0.2,0.1-0.2,0.2c0,0.1,0.2,0.5,0.3,0.6c0.2,0.1,0.4,0,0.6,0.1C16.5,5.3,16.4,5.3,16.4,5.3z"/>
		<path class="st2" d="M16.3,4C16.3,4,16.4,4,16.3,4c0.3,0.3,0.5,0.5,0.7,0.8C17.1,5,17.2,5,17.3,5c0,0,0.1,0,0.1,0
			c0,0.1,0,0.1-0.1,0.1c-0.2,0.1-0.5,0-0.7,0c0,0,0,0,0,0c0-0.1,0-0.1-0.1-0.2c0-0.1,0-0.1-0.1-0.2c-0.1-0.1-0.2-0.2-0.3-0.2
			c0,0,0,0,0,0C16,4.2,16.2,4.1,16.3,4z"/>
		<path class="st4" d="M16.2,4.4C16.2,4.4,16.2,4.4,16.2,4.4c0,0.1-0.1,0.2-0.2,0.2c-0.1,0-0.2,0.1-0.1,0.2c0,0.2,0.1,0.3,0.2,0.4
			c0.1,0.1,0.3,0.1,0.4-0.1c0,0,0.1,0,0.1-0.1c0,0,0,0,0,0c-0.1,0.1,0,0.2-0.2,0.2c-0.2,0-0.4,0.1-0.6-0.1c-0.1-0.1-0.3-0.5-0.3-0.6
			c0-0.1,0.1-0.2,0.2-0.2c0.1,0,0.1,0,0.2,0C16.1,4.4,16.1,4.4,16.2,4.4z"/>
		<path class="st2" d="M16.4,5.6c0-0.1,0-0.1,0-0.2c0.2-0.1,0.3-0.1,0.5,0.2C16.8,5.6,16.6,5.5,16.4,5.6C16.4,5.7,16.4,5.6,16.4,5.6
			z"/>
		<path class="st12" d="M14.7,1.2C14.7,1.2,14.7,1.2,14.7,1.2c0,0.1,0.1,0.3-0.1,0.2c0,0,0-0.1-0.1-0.1c-0.2,0-0.4-0.1-0.5-0.2
			c-0.1,0-0.2-0.1-0.2-0.3c0,0,0.1,0,0.1,0c0.2,0,0.3,0.1,0.5,0.1c0.1,0,0.1,0.1,0.2,0.1C14.6,1.1,14.6,1.1,14.7,1.2
			C14.6,1.2,14.6,1.2,14.7,1.2z"/>
		<path class="st8" d="M13.7,0.9c0,0.2,0.1,0.2,0.2,0.3c0.2,0.1,0.3,0.2,0.5,0.2c0,0,0.1,0,0.1,0.1c-0.1,0-0.1,0-0.2,0
			c0-0.1-0.1,0-0.2,0c0,0-0.1,0-0.1,0c0,0-0.1,0-0.1,0c0,0-0.1,0-0.1,0c-0.1-0.1-0.2-0.1-0.3-0.1c-0.2,0-0.3-0.1-0.3-0.3v0
			C13.5,0.9,13.6,0.9,13.7,0.9z"/>
		<path class="st0" d="M13.3,0.9c0,0.2,0.1,0.3,0.3,0.3c0.1,0,0.2,0,0.3,0.1c-0.3,0.1-0.8-0.2-0.9-0.4c0,0,0.1,0,0.1,0
			C13.2,0.9,13.2,0.9,13.3,0.9C13.3,0.9,13.3,0.9,13.3,0.9z"/>
		<path class="st0" d="M14.2,1.4c0.1,0,0.1,0,0.2,0C14.3,1.5,14.3,1.4,14.2,1.4z"/>
		<path class="st0" d="M14.1,1.3C14.1,1.3,14.1,1.3,14.1,1.3C14.1,1.4,14.1,1.4,14.1,1.3z"/>
		<path class="st3" d="M16.4,5.6C16.4,5.6,16.4,5.7,16.4,5.6C16.4,5.7,16.4,5.7,16.4,5.6c-0.1,0.1-0.1,0.2-0.3,0.2
			C16.2,5.7,16.3,5.7,16.4,5.6z"/>
		<path class="st0" d="M10.8,1.5C10.8,1.5,10.8,1.5,10.8,1.5c-0.1,0.1-0.1,0.2-0.2,0.2c0,0,0,0,0,0C10.6,1.5,10.7,1.5,10.8,1.5z"/>
		<path class="st4" d="M10.6,1.6C10.6,1.6,10.6,1.6,10.6,1.6C10.6,1.7,10.6,1.7,10.6,1.6c0,0.1-0.1,0.1-0.1,0.1h0
			C10.5,1.7,10.5,1.6,10.6,1.6z"/>
		<path class="st2" d="M10.4,1.9C10.4,1.8,10.4,1.8,10.4,1.9c0-0.1,0.1-0.1,0.1-0.1h0C10.5,1.8,10.5,1.8,10.4,1.9
			C10.4,1.9,10.4,1.9,10.4,1.9C10.4,1.9,10.4,1.9,10.4,1.9z"/>
		<path class="st4" d="M13.7,0.9c-0.1,0-0.3,0-0.4,0c0-0.3-0.2-0.2-0.4-0.3c-0.1,0-0.2,0-0.2-0.1c0,0,0,0,0,0c0,0,0.1,0,0.1,0
			c0,0,0.1,0,0.1,0c0,0.1,0.1,0.2,0.2,0.2c0.2,0,0.3,0.2,0.5,0.2c0.1,0,0.1,0.1,0.1,0.1C13.8,0.9,13.8,0.9,13.7,0.9z"/>
		<path class="st4" d="M13.3,0.9C13.2,0.9,13.2,0.9,13.3,0.9C13.2,0.8,13.2,0.8,13.3,0.9z"/>
		<path class="st0" d="M7.3,9.9C7.3,10,7.2,10,7.3,9.9C7.2,10,7.3,9.9,7.3,9.9z"/>
		<path class="st6" d="M7.1,9.5C7.1,9.5,7.1,9.5,7.1,9.5C7.1,9.5,7.1,9.5,7.1,9.5z"/>
		<path class="st2" d="M15.8,2.8C15.8,2.8,15.8,2.7,15.8,2.8C15.8,2.7,15.8,2.7,15.8,2.8z"/>
		<path class="st12" d="M11.8,0.6c-0.2-0.1-0.3-0.1-0.5-0.1c-0.1,0-0.1,0-0.1-0.1c0.1,0,0.2,0,0.3-0.1c0.1,0,0.2,0,0.3,0
			c0.1,0,0.1,0.1,0.2,0.1C12,0.6,11.9,0.6,11.8,0.6z"/>
		<path class="st0" d="M12,0.4c-0.1,0-0.1-0.1-0.2-0.1c0.2,0,0.3,0,0.5,0c0,0.1-0.1,0.1-0.1,0.1C12.2,0.4,12.1,0.4,12,0.4
			C12.1,0.5,12.1,0.4,12,0.4z"/>
		<path class="st8" d="M7.4,3.3c0,0.3-0.1,0.4-0.3,0.3c0,0,0-0.1,0-0.1C7.2,3.5,7.2,3.3,7.4,3.3z"/>
		<path class="st0" d="M14.8,10.6C14.8,10.6,14.8,10.5,14.8,10.6C14.9,10.6,14.9,10.6,14.8,10.6C14.9,10.6,14.9,10.6,14.8,10.6z"/>
		<path class="st12" d="M12.8,11.7c-0.3,0-0.4,0.2-0.5,0.3c-0.5,0.4-0.9,0.6-1.5,0.4c-0.4-0.1-0.7-0.4-0.9-0.7c0,0,0-0.1-0.1-0.1
			c-0.1,0-0.1-0.1-0.2-0.1c-0.1,0,0,0.1,0,0.2c0.1,0.1,0,0.2,0.2,0.2c0,0,0.1,0,0.1,0l0,0c0,0,0,0.1,0,0.1c0,0.1,0,0.1,0,0.2
			c0,0.1,0.2,0.2,0,0.2c-0.1,0.1-0.2,0.1-0.4,0c-0.2-0.1-0.3-0.3-0.4-0.5c-0.2-0.3-0.4-0.5-0.5-0.9c-0.1-0.3-0.3-0.5-0.5-0.7
			C8,10.4,7.9,10.1,7.9,9.9c-0.1-0.3-0.1-0.6,0-1C7.9,9,8,9,8.1,9.1c0,0,0,0.1,0,0.1c-0.1,0.3-0.1,0.7,0.1,1
			c0.2,0.3,0.3,0.4,0.6,0.2c0.1,0,0.2-0.2,0.4,0c-0.1,0-0.1,0.1-0.2,0.1s-0.1,0.1-0.1,0.2C9,10.7,9,10.8,9.2,10.8c0,0,0,0.1,0,0.1
			c0,0-0.1,0.1-0.1,0.1C9,11,8.9,11.1,9,11.2c0,0.3,0.1,0.5,0.3,0.6c0,0,0,0,0,0c0,0.1,0.1,0.2,0.2,0.3c0,0,0.1,0.1,0.1,0.1
			c0.1,0,0-0.1,0-0.2c-0.1-0.2-0.2-0.4-0.2-0.7c0,0,0-0.1,0-0.1c0.1,0,0.1,0,0.2,0c0.2,0.2,0.3,0.3,0.5,0.4c0,0,0,0,0,0
			c0.1,0.1,0.2,0.2,0.3,0.1c0,0,0.1,0,0.2,0c0.4,0.1,0.7,0.1,1.1,0.1c0.1,0,0.2,0,0.2,0.1c0,0.2,0.1,0.1,0.1,0c0,0,0.1,0,0.1-0.1
			l0,0c0.4-0.2,0.7-0.4,0.8-0.8c0,0,0.1,0,0.1-0.1c0,0,0.1,0,0.1,0c0.1,0.1,0.2,0.1,0.3,0c0-0.1,0.1-0.2,0-0.2
			c-0.2-0.1-0.3-0.2-0.5-0.2c-0.1,0-0.2,0.1-0.2,0.2c-0.1,0-0.2,0-0.3,0c0,0,0,0,0,0c0-0.3,0-0.4,0.4-0.3c0.1,0,0.2,0,0.4,0
			c0.2,0,0.3,0,0.5,0.1c0.3,0.1,0.5,0,0.7-0.3c0.1-0.2,0.1-0.4,0-0.6c0.1-0.1,0.2-0.1,0.3-0.2c0.1,0.3,0,0.5,0,0.8
			c-0.1,0.3-0.2,0.5-0.4,0.7c0,0,0,0,0,0.1c-0.4,0.1-0.5,0.5-0.7,0.7c-0.2,0.3-0.5,0.5-0.7,0.7c-0.1,0.1-0.1,0.1-0.2,0.1
			c-0.1,0-0.1,0-0.1-0.1c0-0.1,0-0.1,0-0.2c0.1-0.1,0.1-0.2,0.2-0.2c0,0.1,0,0.2,0.1,0.1c0.1-0.1,0.1-0.2,0.2-0.3
			c0-0.1,0.1-0.1,0.1-0.2c0.1-0.2,0.1-0.3,0.1-0.5c0,0,0-0.1-0.1-0.1c0,0,0,0.1,0,0.1C13,11.4,12.9,11.6,12.8,11.7
			C12.9,11.7,12.9,11.7,12.8,11.7z M11.2,12.1c0.1,0,0.2,0,0.3,0c0,0,0.1-0.1,0.1-0.1c0,0,0-0.1-0.1-0.1c-0.3,0-0.5,0-0.8,0
			c0,0-0.1,0-0.1,0.1c0,0.1,0,0.1,0.1,0.1C10.8,12.1,11,12.1,11.2,12.1z"/>
		<path class="st10" d="M14.6,9.5c-0.1,0.1-0.2,0.1-0.3,0.2c-0.1,0-0.2,0-0.3,0c-0.1,0-0.2,0-0.3,0c-0.1,0-0.2,0-0.2,0.2
			c0,0.1-0.1,0.2-0.2,0.2c-0.1,0-0.2,0-0.2,0c-0.4,0.1-0.8-0.2-0.8-0.5c0-0.1,0-0.1-0.1-0.1c-0.1-0.1-0.1-0.2-0.2-0.3
			C12,9,12,9,12.1,9c0.1,0,0.2-0.1,0.1-0.2c0.1,0.1,0.3,0.1,0.4,0.1c0,0,0.1,0,0.1,0c0.1,0,0.3,0,0.4,0c0.1,0,0.2,0,0.3,0
			c0.1,0,0.3,0,0.4-0.1c0,0.1,0.1,0.1,0.2,0.1c0,0.4,0.2,0.6,0.7,0.6C14.6,9.4,14.6,9.4,14.6,9.5z"/>
		<path class="st14" d="M8.1,9.1C8,9,7.9,9,7.9,8.9c0-0.1,0-0.2,0-0.2c0.3,0.1,0.5,0,0.5-0.3c0-0.1,0-0.2,0-0.2c0,0,0-0.1,0-0.1
			c0,0,0,0,0,0c0.1,0.2,0.3,0.3,0.5,0.3c0,0,0.1,0.1,0.1,0.1C9,8.7,8.7,8.9,8.4,9c0,0,0-0.1,0-0.1c-0.1,0-0.1,0.1-0.1,0.1
			c0,0,0,0.1,0,0.1C8.1,9.1,8.1,9.1,8.1,9.1z"/>
		<path class="st8" d="M11.8,12.6c-0.1,0.2-0.4,0.4-0.6,0.4c-0.1,0-0.2,0-0.3,0c-0.2-0.1-0.3-0.2-0.4-0.4c0,0,0,0,0,0
			c0.4,0.2,0.8,0.2,1.2,0.1C11.7,12.6,11.8,12.6,11.8,12.6z"/>
		<path class="st14" d="M14.7,9.3c-0.4,0-0.6-0.2-0.7-0.6c0.1-0.1,0.2-0.1,0.3-0.2c0,0,0,0,0.1,0c0,0,0,0,0,0l0,0c0,0,0,0.1,0,0.1
			c-0.1,0.4,0,0.5,0.4,0.5c0,0.1,0,0.1,0,0.2C14.7,9.3,14.7,9.3,14.7,9.3z"/>
		<path class="st0" d="M8.3,8C8.1,8,8.1,8.1,8,8.3c0,0.1,0,0.2-0.1,0.2c-0.1,0,0-0.1-0.1-0.2c0-0.1,0-0.2,0-0.4l0,0
			C8,7.9,8,7.8,8.1,7.8c0.1-0.1,0.3-0.2,0.5-0.2C8.4,7.7,8.3,7.8,8.3,8z"/>
		<path class="st2" d="M8.3,8c0-0.2,0.1-0.3,0.2-0.5C8.7,7.4,8.8,7.4,9,7.3c0,0,0,0,0,0C9,7.4,8.8,7.5,8.9,7.7
			C8.7,7.8,8.5,7.9,8.3,8C8.4,8,8.4,8,8.3,8C8.3,8,8.3,8,8.3,8z"/>
		<path class="st11" d="M8.3,8.1c0,0.1,0,0.2,0,0.2c0,0.3-0.2,0.4-0.5,0.3C8.1,8.6,8.1,8.2,8.3,8.1z"/>
		<path class="st11" d="M12.8,11.7C12.9,11.7,12.9,11.7,12.8,11.7c0.1,0.1-0.1,0.2,0.1,0.3c-0.1,0.1-0.1,0.2-0.2,0.3
			c-0.1,0.1-0.1,0-0.1-0.1C12.8,12,12.8,11.8,12.8,11.7z"/>
		<path class="st5" d="M11.8,12.6c0,0-0.1,0-0.1,0c0.2-0.1,0.3-0.2,0.5-0.3C12.1,12.5,11.9,12.5,11.8,12.6z"/>
		<path class="st5" d="M10.4,12.4c-0.2,0-0.2-0.1-0.3-0.3l0,0C10.2,12.2,10.3,12.3,10.4,12.4L10.4,12.4z"/>
		<path class="st5" d="M7.8,8.5C7.7,8.3,7.7,8.2,7.8,8C7.8,8.2,7.8,8.3,7.8,8.5z"/>
		<path class="st5" d="M9.9,12C9.9,12,9.8,12,9.9,12C9.8,12,9.8,11.9,9.9,12C9.9,11.9,9.9,11.9,9.9,12z"/>
		<path class="st5" d="M9.9,12.1C9.9,12,9.9,12,9.9,12.1C9.9,12,9.9,12,9.9,12.1z"/>
		<path class="st5" d="M10.1,12.2C10.1,12.2,10.1,12.2,10.1,12.2C10.1,12.2,10.1,12.2,10.1,12.2C10.1,12.2,10.1,12.2,10.1,12.2z"/>
		<path class="st5" d="M10.4,12.4C10.4,12.4,10.4,12.5,10.4,12.4C10.4,12.5,10.4,12.4,10.4,12.4C10.4,12.4,10.4,12.4,10.4,12.4z"/>
		<path class="st5" d="M10.5,12.5C10.5,12.5,10.5,12.5,10.5,12.5C10.5,12.5,10.5,12.5,10.5,12.5z"/>
		<path class="st8" d="M14.8,8.3C14.8,8.4,14.8,8.4,14.8,8.3c-0.1,0.2,0,0.2,0,0.2c0,0,0,0.1,0,0.1c0,0,0,0,0,0
			c-0.1,0-0.1,0-0.2-0.1c-0.1-0.1-0.1-0.2-0.3-0.2c0-0.2-0.2-0.4-0.3-0.5c0.2,0,0.3,0.1,0.5,0.2C14.6,8.2,14.7,8.3,14.8,8.3z"/>
		<path class="st11" d="M14.7,9.1c-0.4,0-0.5-0.1-0.4-0.5c0,0,0-0.1,0-0.1c0.2,0,0.2,0.2,0.3,0.3c0,0.1,0.1,0.1,0.1,0.1
			C14.8,9,14.8,9,14.7,9.1z"/>
		<path class="st0" d="M14.9,8.7c0,0,0-0.1,0-0.1c0,0,0-0.1,0-0.1c0.1,0,0.1-0.1,0.2-0.1c0.1,0.1,0,0.1,0,0.2c-0.1,0.2,0,0.4,0,0.6
			C14.9,9,15,8.8,14.9,8.7z"/>
		<path class="st7" d="M14.8,8.9c-0.1,0-0.1-0.1-0.1-0.1c-0.1-0.1-0.1-0.3-0.3-0.3l0,0c0,0,0,0,0,0c0,0,0-0.1,0-0.1
			c0.1,0,0.2,0.1,0.3,0.2c0.1,0.1,0.1,0.1,0.2,0.1C14.8,8.8,14.9,8.9,14.8,8.9z"/>
		<path class="st0" d="M15.1,9.2C15.1,9.2,15.1,9.2,15.1,9.2C15.2,9.2,15.1,9.3,15.1,9.2C15.1,9.3,15.1,9.3,15.1,9.2z"/>
		<path class="st0" d="M7.5,7.7C7.6,7.7,7.6,7.7,7.5,7.7c0.1,0.1,0,0.1,0,0.2C7.5,7.8,7.5,7.7,7.5,7.7z"/>
		<path class="st0" d="M7.5,8.3c-0.1-0.1-0.1-0.1,0-0.2C7.5,8.2,7.6,8.3,7.5,8.3z"/>
		<path class="st3" d="M7.1,7.6c0.1,0,0.2,0,0.3-0.1c0.1,0.1,0,0.2,0,0.3c0,0-0.1,0-0.1,0C7.1,7.8,7.1,7.7,7.1,7.6z"/>
		<path class="st0" d="M7.2,7.8C7.3,7.8,7.3,7.8,7.2,7.8C7.3,7.9,7.3,8,7.3,8C7.2,8,7.3,7.9,7.2,7.8z"/>
		<path class="st2" d="M7,7.3C7,7.3,7,7.3,7,7.3C7,7.4,7,7.4,7,7.3C7,7.4,7,7.3,7,7.3z"/>
		<path class="st7" d="M11.2,3.2c0,0,0.1,0,0.1,0c0.1,0.3,0.1,0.3-0.2,0.4c-0.2,0.1-0.4,0.1-0.6,0.2c-0.1,0-0.1,0-0.2,0
			c-0.3-0.1-0.3-0.2-0.2-0.4c0.1,0,0.1,0,0.2-0.1c0.2,0,0.4-0.1,0.7-0.1C11.1,3.3,11.1,3.3,11.2,3.2z"/>
		<path class="st1" d="M12,2c-0.1,0.2-0.4,0.4-0.7,0.5c-0.4,0.1-0.7,0.2-1.1,0.3c-0.1,0-0.1,0-0.2,0C10,2.7,10,2.6,10,2.4
			c0-0.1,0.1-0.2,0.1-0.2c0.2,0.4,0.2,0.4,0.6,0.3c0.4-0.1,0.9-0.1,1.2-0.4C11.9,2,12,2,12,2z"/>
		<path class="st2" d="M12,2c0,0-0.1,0-0.1,0c-0.3,0.3-0.8,0.4-1.2,0.4c-0.4,0.1-0.4,0.1-0.6-0.3c0-0.1,0.1-0.3,0.3-0.3l0,0
			c-0.1,0.3,0.1,0.5,0.4,0.5c0.4-0.1,0.8-0.1,1.1-0.4C11.9,1.9,12,1.9,12,2C12,2,12,2,12,2z"/>
		<path class="st2" d="M13.5,3C13.4,3.1,13.2,3.1,13,3c-0.2,0-0.5-0.1-0.7,0c-0.2,0-0.3-0.2-0.2-0.4c0-0.1,0.1-0.2,0.1-0.3l0,0
			c0,0,0.1,0,0.1,0c0,0,0.1,0,0.1,0c0,0.2,0,0.5,0.2,0.6c0.1,0.1,0.3,0.1,0.4,0.1C13.2,2.9,13.3,2.9,13.5,3z"/>
		<path class="st4" d="M12,2c0-0.1-0.1-0.1-0.2,0c-0.3,0.2-0.7,0.3-1.1,0.4c-0.3,0.1-0.5-0.1-0.4-0.5c0,0,0,0,0,0
			c0,0.2,0.2,0.3,0.4,0.3c0.2,0,0.5-0.1,0.7-0.1c0.1,0,0.2,0,0.2-0.2c0.1,0,0.2,0,0.3-0.2c0.1,0,0.1-0.1,0.1-0.2
			c0.1,0,0.1,0.1,0.1,0.2c-0.1,0-0.1,0.1,0,0.1C12.2,1.9,12.1,2,12,2z"/>
		<path class="st4" d="M13.5,3c-0.2-0.1-0.4,0-0.5,0c-0.1,0-0.3,0-0.4-0.1c-0.3-0.1-0.2-0.4-0.2-0.6c0.1-0.1,0.1-0.2,0.3-0.2
			c0,0,0,0.1,0,0.1c-0.1,0.2,0,0.5,0.2,0.6c0.2,0.1,0.5,0.1,0.7,0.1c0.1,0,0.1,0,0.1-0.1c0.1,0,0.1,0,0.2,0c0,0.1-0.1,0.1-0.1,0.2
			C13.6,3,13.6,3,13.5,3z"/>
		<path class="st8" d="M8.9,3.8C9,3.7,9,3.7,9.2,3.7c0.1,0.1,0.1,0.1,0.2,0c0,0,0.1,0,0.1,0C9.5,3.8,9.6,3.9,9.6,4
			c0.1,0.1,0,0.1,0,0.2C9.4,4.2,8.9,4,8.9,3.8z"/>
		<path class="st0" d="M13.6,2.8c0,0.1-0.1,0.1-0.1,0.1c-0.2,0-0.5,0-0.7-0.1c-0.2-0.1-0.3-0.4-0.2-0.6c0,0,0-0.1,0-0.1c0,0,0,0,0,0
			c0,0,0.1,0,0.1,0c0,0,0,0.1,0,0.1c-0.2,0.3-0.1,0.5,0.2,0.6C13.2,2.7,13.4,2.8,13.6,2.8z"/>
		<path class="st1" d="M8.7,2.8C8.7,2.8,8.7,2.8,8.7,2.8C9,3,9.2,3,9.5,2.8C9.4,3.1,9,3.2,8.8,3C8.7,2.9,8.7,2.9,8.7,2.8z"/>
		<path class="st2" d="M9.3,3.7c-0.1,0.1-0.1,0.1-0.2,0C9.2,3.6,9.3,3.6,9.3,3.7C9.3,3.7,9.3,3.7,9.3,3.7z"/>
		<path class="st2" d="M12.2,1.8c-0.1,0-0.1-0.1,0-0.1C12.2,1.7,12.2,1.8,12.2,1.8C12.2,1.8,12.2,1.8,12.2,1.8z"/>
		<path class="st1" d="M12.2,2.2C12.2,2.3,12.2,2.3,12.2,2.2C12.2,2.3,12.2,2.2,12.2,2.2C12.2,2.2,12.2,2.2,12.2,2.2z"/>
		<path class="st1" d="M11.5,3.6c0.2-0.1,0.5,0,0.7,0.1c0.2,0.1,0.5,0.1,0.7,0.1c0.3,0,0.7,0,1,0c0.3,0,0.5,0.2,0.6,0.4
			c-0.1,0-0.1,0-0.1-0.1c-0.3-0.2-0.6-0.3-1-0.1c-0.2,0.1-0.2,0.2-0.2,0.4c0.1,0.2,0.1,0.4,0.2,0.6c0,0-0.1,0-0.1,0h0
			c0-0.1,0-0.1-0.1-0.1c0,0,0,0,0,0c0,0,0-0.1-0.1-0.1c0,0-0.1-0.1-0.1-0.1c0-0.1,0-0.1-0.1-0.1c-0.1-0.3-0.2-0.6-0.6-0.8
			C12,3.6,11.8,3.6,11.5,4c0,0,0,0,0,0c0-0.1,0-0.2,0-0.2C11.4,3.7,11.4,3.6,11.5,3.6z"/>
		<path class="st1" d="M11.2,3.9C11.2,4,11.1,4.1,10.9,4C11,3.9,11.1,3.9,11.2,3.9z"/>
		<path class="st1" d="M9.2,4.4C9.1,4.3,9,4.4,8.9,4.3C9,4.3,9.2,4.2,9.2,4.4z"/>
		<path class="st1" d="M11.4,3.8c0,0.1-0.1,0.1-0.2,0.1C11.2,3.8,11.3,3.8,11.4,3.8z"/>
		<path class="st3" d="M10,4.1c-0.1,0-0.1,0-0.2,0C9.9,4,9.9,4,10,4.1C10,4,10,4,10,4.1z"/>
		<path class="st1" d="M10.7,4.1c0,0.1-0.1,0.1-0.1,0C10.6,4,10.7,4,10.7,4.1z"/>
		<path class="st8" d="M8.6,6.6c-0.1,0-0.1,0.1-0.1,0.1c-0.1-0.1,0-0.1,0-0.2c0-0.1,0.2-0.2,0.2-0.4C8.9,6,9.1,5.9,9.4,5.9
			C9.7,6,10,6,10.2,6.1c0.2,0,0.3,0.1,0.3,0.4c-0.1,0.2-0.3,0.2-0.6,0.2c-0.1,0-0.2-0.1-0.3-0.1C9.2,6.3,8.9,6.3,8.6,6.6z"/>
		<path class="st11" d="M9.4,5.9C9.1,5.9,8.9,6,8.7,6.1c-0.1-0.4,0-0.8,0-1.2c0-0.1,0.1-0.1,0.1-0.1c0,0,0.1,0.1,0.1,0
			c0.2,0,0.4,0,0.6,0C9.4,5,9.4,5.1,9.4,5.3C9.4,5.5,9.4,5.7,9.4,5.9z"/>
		<path class="st11" d="M8.6,6.6c0.3-0.3,0.7-0.3,1.1-0.1C9.7,6.6,9.9,6.6,10,6.6C10,6.8,10.1,7,10.3,7c-0.1,0.1-0.2,0-0.3,0
			C9.5,6.8,9,6.8,8.6,6.8C8.6,6.7,8.6,6.7,8.6,6.6z"/>
		<path class="st2" d="M11.5,4C11.5,4,11.5,4,11.5,4c0.3-0.3,0.5-0.4,0.9-0.2c0.3,0.2,0.5,0.4,0.6,0.8c0,0,0,0.1,0,0.1l0,0
			c-0.1,0,0,0.2-0.2,0.2c0-0.2,0-0.3,0-0.5c-0.1-0.3-0.6-0.5-0.8-0.4c-0.2,0.1-0.3,0.3-0.5,0.4c-0.1,0.1-0.1,0.2,0,0.3
			c0.1,0.1,0.2,0.3,0.3,0.4c0.4,0.3,0.6,0.3,0.9-0.1c0,0,0.1-0.1,0.1-0.1c0,0.1,0,0.1,0,0.2c-0.3,0.3-0.6,0.3-1,0
			c-0.1-0.1-0.2-0.3-0.4-0.3c0-0.1,0-0.2-0.1-0.2v0C11.1,4.3,11.3,4.1,11.5,4z"/>
		<path class="st5" d="M11.2,4.6c-0.2,0.1-0.5,0-0.7,0c-0.1,0-0.2,0-0.3-0.1c-0.1-0.1-0.2,0-0.4,0C9.6,4.7,9.4,4.8,9.1,4.7
			C9,4.7,8.9,4.6,8.9,4.5C9.3,4.6,9.6,4.5,10,4.3c0.1,0,0.1,0,0.2,0c0.2,0.1,0.4,0.1,0.6,0C10.9,4.3,11.1,4.4,11.2,4.6z"/>
		<path class="st14" d="M9.4,5.9c0-0.2,0-0.4,0-0.7c0-0.2,0-0.3,0.1-0.4c0,0,0.1,0,0.1,0c0.1,0.1,0.1,0,0.2,0c0,0.3,0,0.6,0.3,0.8
			c0.3,0.2,0.6,0.4,0.9,0.5c0.4,0.2,0.8,0.2,1.2,0c0,0,0.1,0,0.1-0.1S12.1,6.1,12.1,6c-0.1,0-0.2,0-0.2-0.2l0,0
			C12.2,6,12.5,6,12.7,5.8c0.3-0.3,0.3-0.6,0.2-1c0,0,0-0.1,0-0.1l0,0c0,0,0.1,0,0.1,0c0,0,0.1,0.1,0.1,0.1c0,0,0,0.1,0.1,0.1
			c0,0,0,0,0,0c0,0.1,0,0.1,0.1,0.1h0c0,0,0,0.1,0.1,0.1c0.1,0.3,0.2,0.7,0.1,1.1c-0.2,0-0.5,0-0.7,0.1c-0.2,0-0.3,0.1-0.3,0.3
			c-0.4,0-0.8,0.4-0.8,0.8c-0.2,0-0.4,0-0.6,0c0-0.4-0.2-0.6-0.5-0.8c0-0.2,0-0.3-0.3-0.4C10,6,9.7,6,9.4,5.9z"/>
		<path class="st10" d="M11.9,5.9C11.9,6,12,6,12.1,6c0,0,0.1,0,0.1,0.1s-0.1,0.1-0.1,0.1c-0.4,0.2-0.8,0.2-1.2,0
			c-0.3-0.2-0.6-0.3-0.9-0.5S9.8,5.2,9.8,4.9c0,0,0,0,0,0c0.2,0,0.3-0.1,0.5,0c0,0,0.1,0,0.1,0l0,0c0.1,0.1,0.1,0.1,0.2,0
			c0.1,0,0.1,0,0.2,0c0.1,0.1,0.2,0.1,0.3,0c0,0,0.1,0,0.1,0c0.1,0.2,0.1,0.4,0.2,0.5C11.5,5.6,11.6,5.8,11.9,5.9z"/>
		<path class="st14" d="M11.9,5.9c-0.3-0.1-0.4-0.3-0.5-0.5c-0.1-0.2-0.2-0.4-0.2-0.5c0,0,0.1-0.1,0.1-0.1c0,0,0.1,0,0.1,0l0,0
			c-0.1,0.2,0,0.4,0.2,0.5c0,0.1,0.1,0.1,0.1,0.2C11.6,5.6,11.8,5.7,11.9,5.9L11.9,5.9z"/>
		<path class="st14" d="M10.3,4.8c-0.2,0-0.3,0-0.5,0c0,0,0,0,0,0c0-0.1,0.1-0.1,0.1-0.1c0.1,0.1,0.1,0,0.1,0
			C10.1,4.7,10.2,4.6,10.3,4.8C10.2,4.7,10.2,4.8,10.3,4.8z"/>
		<path class="st12" d="M11.2,4.7C11.2,4.8,11.1,4.8,11.2,4.7C11.1,4.8,11,4.8,11,4.8c-0.1-0.1-0.1,0-0.2,0
			C10.9,4.6,11,4.7,11.2,4.7z"/>
		<path class="st14" d="M10.8,4.8c0.1,0,0.2,0,0.2,0C10.9,4.9,10.8,4.9,10.8,4.8C10.7,4.8,10.8,4.8,10.8,4.8z"/>
		<path class="st11" d="M9.8,4.8C9.8,4.8,9.8,4.8,9.8,4.8C9.8,4.8,9.8,4.9,9.8,4.8C9.7,4.9,9.7,4.9,9.6,4.9C9.7,4.8,9.7,4.8,9.8,4.8
			z"/>
		<path class="st13" d="M11.2,4.6c0.1,0,0.1,0.1,0.1,0.2l0,0c0,0-0.1,0-0.1,0l0,0C11.3,4.7,11.2,4.6,11.2,4.6z"/>
		<path class="st14" d="M10.5,4.8c-0.1,0.1-0.1,0.1-0.2,0C10.4,4.8,10.5,4.8,10.5,4.8z"/>
		<path class="st11" d="M10.3,4.8C10.2,4.8,10.2,4.7,10.3,4.8C10.3,4.7,10.3,4.7,10.3,4.8C10.3,4.8,10.3,4.8,10.3,4.8z"/>
		<path class="st11" d="M10,4.7C10,4.7,10,4.8,10,4.7C9.9,4.7,10,4.7,10,4.7z"/>
		<path class="st2" d="M8,5.4C7.8,5.3,7.6,5.3,7.5,5c0.2,0.1,0.4,0.2,0.6,0.2C8.1,5.2,8,5.3,8,5.4z"/>
		<path class="st2" d="M13.4,5c0-0.2-0.1-0.4-0.2-0.6c-0.1-0.2-0.1-0.3,0.2-0.4c0.4-0.2,0.7-0.1,1,0.1c0,0,0.1,0.1,0.1,0.1
			c0,0,0,0,0,0c0.1,0.1,0.2,0.2,0.2,0.3c0,0-0.1,0-0.1,0c-0.2-0.3-0.6-0.4-0.9-0.3c-0.2,0.1-0.2,0.2-0.2,0.4c0.1,0.3,0.2,0.6,0.3,1
			c-0.1,0-0.1-0.1-0.1-0.1c-0.1-0.1-0.1-0.2-0.2-0.2C13.4,5.1,13.4,5.1,13.4,5z"/>
		<path class="st1" d="M14.7,4.5c0-0.1-0.1-0.2-0.2-0.3c0.2-0.1,0.4-0.1,0.6,0c-0.1,0.3,0.1,0.5,0.2,0.8c0,0-0.1,0-0.1,0
			C15.2,5,15,4.9,14.9,4.9c0,0,0,0-0.1,0c0,0,0-0.1,0-0.1C14.8,4.7,14.8,4.6,14.7,4.5L14.7,4.5z"/>
		<path class="st3" d="M14,3.1c0,0.2,0.1,0.4,0.3,0.5c0,0,0.1,0,0.1,0.1c-0.2,0-0.3-0.1-0.5-0.2C13.7,3.5,13.8,3.3,14,3.1z"/>
		<path class="st3" d="M14.5,3.7c0.2,0,0.4,0,0.5,0.2C14.8,3.9,14.6,3.8,14.5,3.7z"/>
		<path class="st2" d="M11.2,3.2c-0.1,0-0.1,0.1-0.2,0C11.1,3.2,11.1,3.2,11.2,3.2z"/>
		<path class="st13" d="M14.7,1.7c0,0,0.1,0,0.1,0c0,0.1-0.1,0.1-0.1,0.2c-0.3,0.2-0.5,0.4-0.8,0.4c0,0-0.1,0-0.1,0
			c-0.1-0.1-0.2-0.1-0.3-0.2c0.2-0.2,0.4-0.2,0.6-0.2C14.3,1.8,14.5,1.9,14.7,1.7C14.7,1.7,14.7,1.7,14.7,1.7z"/>
		<path class="st12" d="M13.5,2.1c0.1,0.1,0.2,0.1,0.3,0.2c0,0.1,0,0.1,0.1,0.1c0,0,0,0.1,0,0.1c0,0,0,0,0,0c0,0,0,0,0,0
			c0,0,0,0,0,0c0,0,0,0,0,0l0,0c-0.1,0-0.1,0-0.2,0c0-0.1-0.2-0.1-0.3-0.1C13.1,2.4,13,2.4,13.1,2c0,0,0.1,0,0.1,0l0,0
			c0,0,0,0.1,0.1,0C13.4,2.1,13.4,2.1,13.5,2.1z"/>
		<path class="st2" d="M13.6,3c0-0.1,0.1-0.1,0.1-0.2c0.1,0,0.1-0.1,0.2,0c0,0-0.1,0.1-0.1,0.1C13.8,2.9,13.7,3,13.6,3z"/>
		<path class="st4" d="M13.8,2.8c0-0.1,0.1-0.1,0.1-0.1c0,0,0,0,0,0l0,0c0,0,0.1,0,0.1,0C14.1,2.8,13.9,2.8,13.8,2.8z"/>
		<path class="st4" d="M13.9,2.4c-0.1,0-0.1,0-0.1-0.1C13.8,2.3,13.9,2.3,13.9,2.4C13.9,2.4,13.9,2.4,13.9,2.4z"/>
		<path class="st8" d="M14,2.6C14,2.6,13.9,2.7,14,2.6C13.9,2.7,13.9,2.6,14,2.6C13.9,2.6,13.9,2.6,14,2.6C13.9,2.6,13.9,2.6,14,2.6
			C14,2.6,14,2.6,14,2.6z"/>
		<path class="st11" d="M14.2,7.2c-0.1,0.1-0.2,0-0.3,0c-0.3-0.1-0.7,0-1,0c-0.1,0,0,0,0,0l0,0h0C12.7,7,12.9,6.9,13,6.7
			c0.1,0,0.2,0,0.3-0.1c0.2,0,0.5-0.2,0.7,0C14,6.8,14.2,7,14.2,7.2z"/>
		<path class="st7" d="M15.1,6.5C14.9,6.6,15,6.8,14.9,7c0,0.1,0,0.2-0.1,0.3c-0.1,0-0.3,0-0.4-0.1c0.1,0,0-0.1,0-0.2
			c0-0.1-0.1-0.3-0.1-0.4c0.1-0.1,0.2-0.1,0.2-0.2c0-0.1,0-0.3,0-0.4c0,0,0-0.1,0-0.1c0.1,0,0.1-0.2,0.1-0.2C15,5.8,15,5.9,15.1,6.1
			C15.1,6.2,15.1,6.4,15.1,6.5z"/>
		<path class="st12" d="M10.5,6.4c0.3,0.2,0.5,0.4,0.5,0.8c-0.2,0-0.3-0.1-0.5-0.1C10.5,7,10.4,7,10.3,7C10.1,7,10,6.8,10,6.6
			C10.2,6.6,10.4,6.6,10.5,6.4z"/>
		<path class="st12" d="M13,6.7c0,0.2-0.3,0.2-0.2,0.5c-0.2-0.1-0.3,0-0.5,0c-0.1,0-0.3,0-0.4,0.1c0.1-0.3,0.2-0.4,0.4-0.5
			c0.1,0,0.1-0.1,0.2-0.1C12.6,6.8,12.8,6.7,13,6.7z"/>
		<path class="st0" d="M10.8,7.6c0,0.1,0.1,0.1,0.1,0.2c0,0,0,0.1,0,0.1C10.7,8,10.5,7.9,10.3,8c-0.1-0.2-0.2-0.3-0.3-0.4
			C10.3,7.6,10.5,7.6,10.8,7.6z"/>
		<path class="st12" d="M9,7.3C9,7.3,9,7.3,9,7.3c-0.2-0.1-0.3,0-0.4,0c-0.2,0.1-0.4,0.2-0.5,0c0.2-0.2,0.4-0.1,0.6-0.1
			c0.5,0,0.9,0.1,1.4,0.2c0.1,0,0.2,0,0.2,0.1c-0.2,0-0.4-0.1-0.6-0.1c-0.1,0-0.2-0.1-0.4,0c-0.1-0.1-0.1-0.1-0.2,0
			C9.1,7.3,9.1,7.3,9,7.3z"/>
		<path class="st7" d="M8.1,7.3c0.2,0.2,0.3,0.1,0.5,0c0.1,0,0.3-0.1,0.4,0C8.8,7.4,8.7,7.4,8.5,7.5c-0.2,0-0.3,0.1-0.5,0.2
			C8,7.8,8,7.9,7.9,7.9C7.9,7.7,7.9,7.5,8.1,7.3z"/>
		<path class="st7" d="M14.8,8.3c-0.1,0-0.2-0.1-0.3-0.2c-0.1-0.2-0.3-0.2-0.5-0.2c-0.2-0.1-0.3-0.2-0.5-0.2c0.2,0,0.5,0,0.7,0.2
			c0.1,0.1,0.3,0.1,0.3-0.1c0.2,0.1,0.1,0.3,0.2,0.4C14.8,8.2,14.8,8.3,14.8,8.3z"/>
		<path class="st11" d="M12.5,6.6c-0.1,0-0.1,0.1-0.2,0.1c-0.3,0.1-0.4,0.3-0.4,0.5c-0.1,0-0.1,0-0.2,0C11.7,6.9,12.1,6.5,12.5,6.6
			C12.5,6.5,12.5,6.6,12.5,6.6z"/>
		<path class="st12" d="M14.6,7.7c-0.1,0.2-0.2,0.2-0.3,0.1c-0.2-0.1-0.4-0.2-0.7-0.2c-0.2,0-0.4,0-0.5,0c-0.2-0.1-0.3,0-0.5,0
			c-0.1,0-0.2,0.1-0.3,0c0.1,0,0.2,0,0.3-0.1c0.3,0,0.7,0,1,0c0.2,0.1,0.5,0,0.7,0.1C14.5,7.6,14.5,7.6,14.6,7.7z"/>
		<path class="st5" d="M10.9,7.9C10.9,7.8,10.9,7.8,10.9,7.9c0.1-0.1,0.2-0.2,0.3-0.2c0.1,0.1,0.2,0.1,0.4,0.1
			c0.1,0.1,0.2,0.1,0.2,0.2c0,0,0,0,0,0c0,0,0,0.1,0,0.1c0,0,0,0.1,0,0.1c0,0-0.1,0-0.1-0.1c0-0.1,0-0.1-0.1-0.1
			c-0.1-0.2-0.2-0.2-0.4-0.1c-0.1,0-0.2,0.2-0.3,0.1C10.9,8,10.9,7.9,10.9,7.9z"/>
		<path class="st0" d="M11.8,8C11.8,7.9,11.8,7.9,11.8,8c0-0.1,0.1-0.1,0.1-0.2c0.2,0,0.5,0,0.7,0C12.6,7.9,12.5,8,12.4,8
			c-0.2,0-0.4,0.1-0.5,0.1C11.9,8.1,11.9,8.1,11.8,8C11.9,8,11.9,8,11.8,8z"/>
		<path class="st12" d="M14.5,7c0,0.1,0,0.1,0,0.2c-0.1,0-0.2,0-0.3,0C14.2,7,14,6.8,14,6.6c0,0,0,0,0,0C14.2,6.7,14.3,7,14.5,7z"/>
		<path class="st8" d="M9.7,7.4c0.2,0,0.4,0.1,0.6,0.1c0.2,0,0.4,0.1,0.5,0.2c-0.3,0-0.5-0.1-0.8-0.1C9.9,7.5,9.8,7.5,9.7,7.4z"/>
		<path class="st8" d="M12.6,7.8c-0.2,0-0.5,0-0.7,0c0,0,0.1-0.1,0.1-0.1c0.2-0.1,0.4,0,0.6,0c0.1,0,0.1,0,0.1,0.1
			C12.7,7.8,12.7,7.8,12.6,7.8z"/>
		<path class="st7" d="M12.8,7.7c0-0.1-0.1-0.1-0.1-0.1c-0.2,0.1-0.4,0-0.6,0c0.1-0.1,0.2-0.1,0.3-0.1c0.1,0.1,0.2,0,0.3,0
			c0.2,0,0.3-0.1,0.5,0C13,7.8,12.9,7.7,12.8,7.7z"/>
		<path class="st8" d="M11.6,7.7c-0.1,0.1-0.3,0-0.4-0.1C11.4,7.5,11.4,7.5,11.6,7.7z"/>
		<path class="st4" d="M13.6,7.5c-0.3,0-0.7,0-1,0C13,7.5,13.3,7.5,13.6,7.5C13.7,7.5,13.7,7.5,13.6,7.5C13.7,7.5,13.7,7.5,13.6,7.5
			z"/>
		<path class="st7" d="M14.9,8.4c0,0,0,0.1,0,0.1C14.8,8.5,14.8,8.5,14.9,8.4C14.8,8.4,14.9,8.4,14.9,8.4z"/>
		<path class="st12" d="M12.8,7.2C12.8,7.2,12.8,7.1,12.8,7.2C12.8,7.2,12.8,7.2,12.8,7.2z"/>
		<path class="st0" d="M14.8,4.7c0,0,0,0.1,0,0.1c0,0.1,0,0.1,0.1,0.1c0,0,0,0.1,0,0.1c-0.1,0.1,0,0.1,0,0.2c0,0,0,0.1,0,0.1
			c0,0,0,0,0,0c-0.1,0.1-0.1,0.2-0.2,0.3l0,0c-0.1,0-0.2,0-0.3,0c0,0-0.1,0-0.1,0c0-0.1-0.1-0.1-0.2-0.1c0,0,0,0,0,0
			c-0.1-0.2-0.2-0.5-0.3-0.7c0-0.1-0.1-0.2,0-0.3c0.1-0.2,0.4-0.3,0.6-0.2c0.1,0,0.2,0.1,0.3,0.1c0,0,0.1,0,0.1,0l0,0
			C14.7,4.6,14.7,4.7,14.8,4.7z M14.7,5.2c0-0.1,0-0.1,0-0.2c0-0.2-0.2-0.4-0.4-0.5c-0.2,0-0.3,0.2-0.3,0.4c0,0.2,0.1,0.5,0.3,0.6
			c0.1,0,0.2,0.1,0.3-0.1C14.6,5.4,14.7,5.4,14.7,5.2C14.7,5.2,14.7,5.2,14.7,5.2z"/>
		<path class="st3" d="M15.3,5C15.3,5,15.3,5,15.3,5L15.3,5c0.1,0.1,0.2,0.1,0.2,0.1c0,0,0.1,0.1,0.1,0.1c0,0,0,0,0,0
			C15.4,5.2,15.3,5.2,15.3,5z"/>
		<path class="st3" d="M15.4,5.7c-0.1,0-0.2-0.1-0.2-0.2C15.3,5.5,15.3,5.6,15.4,5.7z"/>
		<path class="st1" d="M15.6,5.2C15.6,5.2,15.6,5.2,15.6,5.2c0.1,0,0.1,0,0.2,0c0,0,0,0,0,0C15.7,5.3,15.6,5.3,15.6,5.2z"/>
		<path class="st2" d="M14.9,5.3c0-0.1,0-0.2,0-0.2c0,0,0,0,0,0.1C14.9,5.2,14.9,5.2,14.9,5.3z"/>
		<path class="st2" d="M14.9,5c-0.1,0-0.1-0.1-0.1-0.1C14.9,4.9,14.9,4.9,14.9,5C14.9,4.9,14.9,5,14.9,5z"/>
		<path class="st3" d="M16,5.3C16,5.3,16.1,5.3,16,5.3c0.1,0.1,0.1,0.1,0,0.1C16,5.4,16,5.4,16,5.3z"/>
		<path class="st3" d="M15.8,5.3C15.8,5.3,15.8,5.3,15.8,5.3C15.8,5.3,15.8,5.3,15.8,5.3C15.8,5.4,15.8,5.4,15.8,5.3
			C15.8,5.4,15.8,5.4,15.8,5.3z"/>
		<path class="st3" d="M14.8,5.8c0,0,0,0.1,0,0.1c-0.4,0.2-0.5,0.1-0.8-0.1c0,0-0.1-0.1-0.1-0.1c-0.1-0.1-0.1-0.2-0.2-0.2
			c-0.1-0.1-0.1-0.2-0.2-0.4l0,0c0.1,0,0.2,0.2,0.2,0.2c0,0,0.1,0.1,0.1,0.1c0,0,0,0,0,0c0.1,0.2,0.3,0.2,0.5,0.3
			c0.1,0,0.2,0.1,0.3-0.1c0,0,0-0.1,0-0.1l0,0C14.7,5.8,14.7,5.8,14.8,5.8C14.8,5.8,14.8,5.8,14.8,5.8z"/>
		<path class="st4" d="M14.7,5.8c0,0-0.1,0-0.1,0c0.1-0.1,0.1-0.3,0.2-0.3c0,0,0,0,0,0C14.9,5.6,14.7,5.6,14.7,5.8z"/>
		<path class="st2" d="M14.9,5.5C14.9,5.4,14.8,5.4,14.9,5.5C14.8,5.4,14.9,5.4,14.9,5.5C14.9,5.4,14.9,5.4,14.9,5.5z"/>
		<path class="st3" d="M7.8,5.8C7.8,5.9,7.8,5.9,7.8,5.8c-0.1,0-0.1,0-0.1,0.1C7.4,6,7.4,6,7.3,5.7c0,0,0,0,0,0
			c0,0.1,0.1,0.1,0.2,0.1C7.6,5.8,7.7,5.8,7.8,5.8z"/>
		<path class="st8" d="M12,1.7c0,0.1-0.1,0.1-0.3,0.2C11.5,1.9,11.2,1.9,11,2c-0.2,0-0.3-0.1-0.4-0.3c0,0,0,0,0,0
			c0.1,0,0.1-0.1,0.2-0.1c0,0.3,0,0.3,0.3,0.3c0.3,0,0.6,0,0.8-0.1C11.9,1.7,11.9,1.7,12,1.7z"/>
		<path class="st3" d="M13.5,2.1c0,0-0.1,0-0.1,0c0,0-0.1,0-0.1,0l0,0c0-0.1,0-0.1,0.1-0.1c0.3-0.2,0.7-0.1,1-0.2
			c0.1,0,0.1,0,0.2-0.1c0,0,0.1,0,0.1,0c0,0,0,0,0,0c-0.1,0.2-0.4,0.1-0.6,0.2C13.9,1.9,13.6,1.9,13.5,2.1z"/>
		<path class="st1" d="M14.7,1.7C14.6,1.7,14.6,1.7,14.7,1.7C14.6,1.6,14.7,1.6,14.7,1.7C14.7,1.6,14.7,1.7,14.7,1.7
			C14.7,1.7,14.7,1.7,14.7,1.7z"/>
		<path class="st7" d="M13.1,2c-0.1,0.3-0.1,0.4,0.3,0.5c0.1,0,0.2,0,0.3,0.1c-0.3,0-0.5,0-0.8-0.1c-0.2-0.1-0.2-0.2-0.1-0.4
			c0,0,0.1-0.1,0.1-0.1C13,2,13.1,2,13.1,2z"/>
		<path class="st8" d="M12.9,2c0,0.1,0,0.1-0.1,0.1c-0.1,0.1-0.1,0.3,0.1,0.4c0.2,0.1,0.5,0.2,0.8,0.1c0.1,0,0.1,0,0.2,0
			c0,0,0,0,0,0c-0.1,0-0.1,0-0.2,0c-0.1,0-0.1,0-0.2,0c-0.2,0-0.4,0-0.6-0.1c-0.3,0-0.4-0.3-0.2-0.6c0,0,0-0.1,0-0.1
			C12.8,2,12.8,2,12.9,2z"/>
		<path class="st1" d="M15.5,5.1c-0.1,0-0.1,0-0.1-0.1C15.4,5,15.5,5,15.5,5.1z"/>
		<path class="st0" d="M16.6,5c0,0-0.1,0-0.1,0.1c-0.1,0.1-0.2,0.1-0.4,0.1C16,5,15.9,4.9,15.9,4.7c0-0.1,0-0.2,0.1-0.2
			c0.1,0,0.2,0,0.2-0.1c0.1,0,0.2,0.1,0.3,0.2c-0.1,0-0.2,0-0.3,0c-0.1,0-0.2,0.1-0.1,0.2c0.1,0.2,0.3,0.2,0.4,0
			C16.6,4.8,16.6,4.9,16.6,5z"/>
		<path class="st8" d="M16.6,4.8c-0.2,0.2-0.3,0.2-0.4,0c-0.1-0.1-0.1-0.2,0.1-0.2c0.1,0,0.2,0,0.3,0C16.5,4.7,16.6,4.7,16.6,4.8z"
			/>
		<path class="st0" d="M10.6,1.7C10.6,1.9,10.7,2,11,2c0.3-0.1,0.5-0.1,0.8-0.1C11.7,2,11.6,2,11.5,2c-0.2,0.1-0.5,0.1-0.7,0.1
			c-0.2,0-0.3-0.1-0.4-0.3c0,0,0-0.1,0-0.1C10.5,1.7,10.6,1.7,10.6,1.7z"/>
		<path class="st10" d="M8.1,9.1c0,0,0.1,0,0.1,0c0.1,0,0.1,0,0.2-0.1C8.7,8.9,9,8.7,9,8.4c0.1,0,0.3,0,0.4,0.1c0.1,0,0.3,0,0.4-0.1
			c0.1,0,0.1,0.1,0.2,0.1c0.1,0.2,0.2,0,0.3,0.1c0,0.1,0.1,0.1,0.1,0.2c0.2,0.1,0.1,0.2,0,0.4c-0.1,0.1-0.1,0.1-0.2,0.2
			c-0.1,0-0.1,0-0.1,0.1c0,0.3-0.2,0.4-0.4,0.4c-0.3,0.1-0.5,0-0.8-0.1c-0.1,0-0.2-0.1-0.1-0.2c0.1-0.2,0-0.2-0.1-0.2
			c-0.1,0-0.2-0.1-0.4-0.1C8.2,9.2,8.1,9.2,8.1,9.1C8.1,9.1,8.1,9.1,8.1,9.1z"/>
		<path class="st13" d="M12.9,11.1c-0.1,0.4-0.4,0.6-0.8,0.8c0,0,0-0.1,0-0.1c0.1-0.1,0.1-0.2-0.1-0.2c0,0-0.1,0-0.1,0
			c-0.1-0.1-0.2-0.1-0.3-0.1c-0.2-0.1-0.4,0.1-0.5,0c-0.3-0.1-0.6-0.1-0.9-0.1c-0.1,0-0.2,0.1-0.2,0.2c-0.2-0.1-0.3-0.3-0.5-0.4
			c0-0.1-0.1-0.2-0.2-0.3c0-0.2,0.1-0.2,0.2,0l0,0l0,0l0,0C9.7,11,9.9,11,10,11.1c0.7,0.2,1.3,0.2,2,0.2c0.2,0,0.4,0,0.6-0.2l0,0
			c0,0,0,0,0,0C12.8,11,12.9,11,12.9,11.1z"/>
		<path class="st11" d="M14,9.7c0.1,0,0.2,0,0.3,0c0.1,0.2,0.1,0.4,0,0.6c-0.2,0.3-0.3,0.4-0.7,0.3c-0.2-0.1-0.3-0.1-0.5-0.1
			c-0.1,0-0.2,0-0.4,0c-0.4-0.1-0.4,0-0.4,0.3c-0.2,0-0.3,0-0.5,0c0-0.1-0.1-0.1-0.2-0.1c-0.2,0-0.4,0.1-0.6,0c0.1-0.1,0.3,0,0.4,0
			c0.2,0,0.3-0.1,0.4-0.2c0,0,0-0.1,0-0.1c0.1,0,0.1-0.1,0.2-0.2c0-0.2-0.1-0.3-0.1-0.5c0.1,0,0.1,0.1,0.1,0.2
			c0.1,0.3,0.2,0.4,0.5,0.5c0.2,0,0.3,0.2,0.5,0.1c0.2-0.1,0.3-0.1,0.4,0c0.2,0,0.2,0,0.3-0.1C14.1,10.1,14,9.9,14,9.7z"/>
		<path class="st11" d="M8.1,9.1c0.1,0,0.1,0.1,0.2,0.1C8,9.4,8.1,9.7,8.2,9.9c0.1,0.2,0.2,0.3,0.4,0.3c0.2,0,0.3,0,0.5,0
			c0.3,0,0.7,0.1,1,0.2c0.2,0.1,0.2,0.1,0.2-0.2c0-0.2,0-0.4,0.2-0.5c0,0.1-0.1,0.2-0.1,0.3c0,0.1-0.1,0.2,0.1,0.2c0,0,0.1,0,0.1,0
			c0,0.2,0.2,0.2,0.3,0.2c0,0.2,0.2,0.1,0.2,0.2c-0.2,0-0.3-0.1-0.5-0.2c0-0.1-0.1-0.1-0.1,0c0,0.1-0.1,0.1-0.2,0.2
			c-0.1,0-0.3,0-0.4,0c-0.1,0-0.1,0-0.2,0c0-0.1,0.1-0.1,0.1-0.2c-0.1-0.1-0.1-0.1-0.2-0.1c-0.1,0-0.2,0-0.3,0c-0.1-0.2-0.3,0-0.4,0
			c-0.4,0.1-0.4,0.1-0.6-0.2C7.9,9.8,7.9,9.5,8.1,9.1z"/>
		<path class="st7" d="M9.8,10.6c0.1,0,0.3,0,0.4,0c0.2,0,0.4,0.1,0.6,0.2c0.2,0.1,0.4,0.1,0.5,0c0.2-0.1,0.3-0.1,0.5-0.1
			c0.2,0,0.3,0,0.5,0c0,0,0,0,0,0C12.3,11,12.1,11,11.9,11c-0.5,0-1,0-1.5-0.1C10.2,10.9,10,10.9,9.8,10.6z"/>
		<path class="st0" d="M11.9,11.6C11.9,11.6,12,11.6,11.9,11.6c0.1,0.1,0.1,0.1,0.2,0.2c0,0,0,0.1,0,0.1l0,0c0,0-0.1,0-0.1,0.1
			c-0.1,0-0.1,0.2-0.1,0c0-0.1-0.1-0.1-0.2-0.1c-0.4,0-0.7,0-1.1-0.1c-0.1,0-0.1,0-0.2,0c-0.1,0.2-0.2,0-0.3-0.1
			c0-0.1,0.1-0.2,0.2-0.1c0.2,0,0.4,0.1,0.6,0.1C11.3,11.7,11.6,11.7,11.9,11.6z"/>
		<path class="st7" d="M9.2,10.3c0.1,0,0.2-0.1,0.3,0c0.1,0,0.2,0,0.2,0.1c0.1,0.1,0,0.2-0.1,0.2c-0.1,0.1-0.2,0.1-0.2,0
			c0-0.2-0.2-0.1-0.3-0.1c-0.1,0-0.1,0.1,0,0.2c0,0.1,0.1,0.1,0.1,0c0.1,0,0.1,0.1,0.1,0.2c0,0,0,0,0,0c0,0,0,0,0,0c0,0-0.1,0-0.1,0
			c-0.2,0-0.2-0.1-0.3-0.2c-0.1-0.1,0-0.1,0.1-0.2C9,10.4,9.1,10.4,9.2,10.3z"/>
		<path class="st3" d="M11.9,11.6c-0.3,0.1-0.7,0.1-1,0c-0.2,0-0.4-0.1-0.6-0.1c-0.1,0-0.2,0-0.2,0.1c0,0,0,0,0,0
			c0-0.1,0.1-0.2,0.2-0.2c0.3,0,0.6,0,0.9,0.1c0.2,0.1,0.3-0.1,0.5,0C11.7,11.6,11.8,11.6,11.9,11.6z"/>
		<path class="st14" d="M9.3,10.9C9.3,10.9,9.3,10.9,9.3,10.9c0,0.1,0.1,0.3,0.1,0.4c0,0,0,0.1,0,0.1c-0.1,0.1,0,0.1,0,0.2
			c0,0.1,0.1,0.2-0.1,0.2c0,0,0,0,0,0C9.2,11.6,9,11.3,9.1,11C9.1,11,9.2,11,9.3,10.9C9.2,10.9,9.3,10.9,9.3,10.9z"/>
		<path class="st14" d="M11.2,12.1c-0.2,0-0.3,0-0.5-0.1c0,0-0.1,0-0.1-0.1c0-0.1,0.1-0.1,0.1-0.1c0.3,0,0.5,0,0.8,0
			c0,0,0.1,0,0.1,0.1c0,0.1,0,0.1-0.1,0.1C11.4,12.1,11.3,12.1,11.2,12.1z"/>
		<path class="st7" d="M12.7,10.8c0-0.2,0.1-0.2,0.2-0.2c0.2-0.1,0.4,0.1,0.5,0.2c0.1,0.1,0,0.2,0,0.2c-0.1,0.1-0.2,0.1-0.3,0
			c0.1-0.1,0.2-0.1,0.2-0.2c0-0.1-0.1-0.1-0.2-0.1c-0.1,0-0.1,0.1-0.1,0.2C12.8,10.9,12.7,10.9,12.7,10.8z"/>
		<path class="st14" d="M13,12c-0.2-0.1,0-0.2-0.1-0.3c0-0.1,0.1-0.3,0.1-0.4c0,0,0-0.1,0-0.1c0.1,0,0.1,0,0.1,0.1
			c0.1,0.2,0.1,0.4-0.1,0.5C13,11.9,13,11.9,13,12z"/>
		<path class="st5" d="M12.7,10.8c0.1,0,0.1,0.1,0.2,0.1c0.1,0,0.1,0.1,0.1,0.1c0,0-0.1,0-0.1,0.1c0-0.1-0.1-0.1-0.2-0.1
			c0,0,0,0,0,0l0,0c-0.2,0-0.4,0-0.6,0c0,0-0.1,0-0.1,0c0,0,0,0,0-0.1c0.2,0,0.4,0,0.5-0.2C12.5,10.8,12.6,10.8,12.7,10.8z"/>
		<path class="st11" d="M9.3,11.8c0.1,0,0.1-0.2,0.1-0.2c0-0.1-0.1-0.2,0-0.2c0.1,0.2,0.1,0.5,0.2,0.7c0,0,0,0.1,0,0.2
			c-0.1,0-0.1,0-0.1-0.1C9.5,12,9.3,12,9.3,11.8z"/>
		<path class="st11" d="M9.1,11c-0.1,0.3,0.1,0.5,0.2,0.8C9.1,11.7,9,11.4,9,11.2C8.9,11.1,9,11,9.1,11z"/>
		<path class="st8" d="M13,11c0-0.1,0-0.1-0.1-0.1c0-0.1,0-0.2,0.1-0.2c0.1,0,0.2,0,0.2,0.1C13.3,11,13.1,11,13,11
			C13,11,13,11,13,11z"/>
		<path class="st11" d="M9.4,11.3c0-0.1-0.1-0.2-0.1-0.4c0,0,0,0,0,0c0,0,0,0,0,0c0,0.1,0.1,0.2,0.2,0.3C9.5,11.3,9.5,11.3,9.4,11.3
			z"/>
		<path class="st11" d="M9.3,10.9C9.3,10.9,9.2,10.9,9.3,10.9C9.2,10.9,9.2,10.9,9.3,10.9C9.2,10.8,9.3,10.8,9.3,10.9z"/>
		<path class="st13" d="M12,11.9C12,11.9,12,11.9,12,11.9C12.1,11.9,12,11.9,12,11.9z"/>
		<path class="st14" d="M10.4,9.6c-0.2,0.1-0.2,0.3-0.2,0.5c0,0.3,0.1,0.2-0.2,0.2c-0.3-0.1-0.7-0.2-1-0.2c-0.2,0-0.3,0-0.5,0
			c-0.2,0-0.4-0.1-0.4-0.3C8.1,9.7,8,9.4,8.2,9.3c0.1,0,0.2,0.1,0.4,0.1c0.1,0,0.3,0,0.1,0.2c0,0.1,0,0.2,0.1,0.2
			c0.3,0,0.5,0.1,0.8,0.1c0.2-0.1,0.4-0.1,0.4-0.4c0-0.1,0.1-0.1,0.1-0.1c0.1,0,0.1-0.1,0.2-0.2c0.1-0.1,0.2-0.2,0-0.4
			c-0.1,0-0.1-0.1-0.1-0.2c0,0,0.1,0,0.1,0c0.1,0,0.1,0.1,0.2,0.1c0.2,0.1,0.3,0,0.3-0.2c0-0.2,0.1-0.3,0.3-0.3
			C11,8.4,11.1,8.6,11,8.8C10.9,8.9,10.9,9,11,9c0.1,0,0.3,0,0.4,0c0.1,0,0.2-0.1,0.1-0.2c0-0.1,0-0.3,0-0.4c0-0.1,0-0.2,0.1-0.1
			c0,0.2,0,0.4,0.1,0.5c0,0.1,0.1,0.1,0.1,0.1c0.1-0.1,0.2-0.1,0.3-0.2c0,0,0,0,0,0c0,0.1,0,0.2-0.1,0.2C12,9,12,9,12,9.1
			c0.1,0.1,0.1,0.2,0.2,0.3c0,0,0.1,0.1,0.1,0.1c0.1,0.4,0.5,0.6,0.8,0.5c0.1,0,0.2,0,0.2,0c0.1,0,0.2-0.1,0.2-0.2
			c0-0.2,0.1-0.2,0.2-0.2c0.1,0,0.2,0,0.3,0c0,0.2,0.1,0.3,0,0.5c-0.1,0.1-0.2,0.2-0.3,0.1c-0.1,0-0.3-0.1-0.4,0
			c-0.2,0.1-0.3-0.1-0.5-0.1c-0.3,0-0.4-0.2-0.5-0.5c0-0.1,0-0.2-0.1-0.2l0,0c0-0.1-0.1-0.2-0.2-0.3c-0.1-0.1-0.3-0.1-0.4,0
			c-0.1,0.1,0,0.2,0,0.3c0,0,0,0.1,0.1,0.1c0.1,0.2,0,0.3-0.2,0.3c0,0,0-0.1,0-0.1c0-0.1-0.1-0.1-0.2-0.2c-0.1,0-0.2,0-0.2,0.1
			c0,0.1,0.1,0.1,0.1,0.1c0,0,0.1,0,0.1,0.1c0,0-0.1,0-0.1,0c0,0-0.1,0-0.1,0c-0.2-0.1-0.2-0.2-0.1-0.4c0-0.1,0.1-0.1,0.1-0.2
			c0.1-0.1,0-0.1-0.1-0.2C10.8,9.1,10.5,9.2,10.4,9.6C10.4,9.6,10.4,9.6,10.4,9.6z"/>
		<path class="st1" d="M13.4,8.7c-0.1,0-0.2,0-0.3,0c-0.3,0-0.4-0.2-0.3-0.6c0.1,0.1,0.2,0.1,0.2,0c0.1-0.1,0-0.1,0-0.2
			c0.4,0,0.4,0,0.6,0.4C13.6,8.5,13.5,8.6,13.4,8.7z"/>
		<path class="st6" d="M14.2,8.5c0,0.2-0.2,0.1-0.3,0.2c-0.1,0-0.2,0.1-0.2-0.1c0,0,0-0.1,0-0.1c0-0.1,0-0.2,0-0.3
			c0-0.1,0-0.1,0-0.2C14,8.2,14.2,8.3,14.2,8.5z"/>
		<path class="st6" d="M12.2,8.7C12.2,8.7,12.2,8.7,12.2,8.7C12.2,8.7,12.2,8.7,12.2,8.7c-0.1-0.1-0.1-0.1,0-0.2
			c0.1-0.1,0.2-0.2,0.3-0.3c0,0.2,0,0.4,0.1,0.5l0,0c0,0,0,0.1,0,0.1C12.5,8.8,12.4,8.8,12.2,8.7z"/>
		<path class="st8" d="M12.8,8.2c-0.1,0.3,0,0.5,0.3,0.6c-0.1,0.1-0.3,0-0.4,0c0,0,0-0.1-0.1-0.1l0,0c0-0.1,0-0.2,0-0.2
			C12.7,8.4,12.7,8.2,12.8,8.2C12.8,8.1,12.8,8.2,12.8,8.2z"/>
		<path class="st12" d="M13.8,8.5C13.8,8.6,13.8,8.6,13.8,8.5c-0.1,0.2-0.2,0.2-0.4,0.2c0.1-0.1,0.2-0.2,0.2-0.4
			C13.8,8.3,13.7,8.5,13.8,8.5z"/>
		<path class="st0" d="M12.7,8.7c0.1,0,0.1,0,0.1,0.1c0,0-0.1,0-0.1,0C12.7,8.8,12.7,8.8,12.7,8.7z"/>
		<path class="st2" d="M9.8,8.4C9.7,8.5,9.6,8.5,9.4,8.5C9.3,8.5,9.1,8.4,9,8.4c0,0-0.1-0.1-0.1-0.1C8.8,8.1,8.9,7.9,9,7.7
			c0,0,0,0,0,0c0.3-0.1,0.6-0.1,0.8,0.2c0,0.1,0,0.2,0,0.3C9.9,8.3,9.8,8.3,9.8,8.4z M9.4,7.8c0-0.1-0.1-0.1-0.2-0.1
			c-0.1,0-0.1,0.1-0.1,0.2C9.1,7.9,9.2,8,9.3,8C9.3,8,9.4,7.9,9.4,7.8z"/>
		<path class="st6" d="M9,7.7C8.9,7.9,8.8,8.1,8.9,8.3C8.7,8.4,8.5,8.3,8.4,8c0.1-0.2,0.3-0.3,0.5-0.4C8.9,7.7,8.9,7.7,9,7.7
			C9,7.7,9,7.7,9,7.7L9,7.7z"/>
		<path class="st9" d="M8.4,9c0,0-0.1,0.1-0.2,0.1c0,0,0-0.1,0-0.1c0-0.1,0.1-0.1,0.1-0.1C8.4,8.8,8.3,8.9,8.4,9z"/>
		<path class="st1" d="M12.5,8.2c-0.1,0.1-0.2,0.2-0.3,0.3c0-0.1,0.1-0.2,0.1-0.4c0.1,0,0.1-0.1,0.1-0.2c0.1,0,0.2-0.1,0.2-0.2
			c0,0,0.1-0.1,0.1-0.1c0.1-0.1,0.3,0,0.3-0.1c0.2,0,0.4,0,0.5,0c0.2,0.1,0.3,0.2,0.5,0.2c0.1,0.1,0.2,0.3,0.3,0.5c0,0,0,0.1,0,0.1
			c0,0,0,0,0,0c0,0,0,0-0.1,0c-0.1-0.2-0.3-0.3-0.4-0.5c0,0-0.1,0-0.1,0l0,0c0,0,0,0-0.1,0c0,0-0.1,0-0.1,0c-0.2-0.1-0.5-0.1-0.7,0
			c0,0,0,0-0.1,0.1C12.7,8,12.6,8.2,12.5,8.2z"/>
		<path class="st11" d="M14.3,8.5C14.3,8.5,14.4,8.5,14.3,8.5C14.4,8.5,14.4,8.5,14.3,8.5C14.3,8.5,14.3,8.5,14.3,8.5z"/>
		<path class="st1" d="M9,7.7C8.9,7.7,8.9,7.7,9,7.7C8.8,7.5,9,7.4,9,7.3c0,0,0.1,0,0.1,0c0.1,0.1,0.1,0.1,0.2,0c0.1,0,0.3,0,0.4,0
			C9.8,7.5,9.9,7.5,10,7.5c0.1,0.1,0.2,0.3,0.3,0.4c0,0.1,0.1,0.2,0,0.4c-0.1-0.1-0.1-0.2-0.2-0.3C10.1,8,10,7.9,9.9,7.8
			C9.6,7.6,9.3,7.5,9,7.7C9,7.6,9,7.6,9,7.7C9,7.6,9,7.6,9,7.7z"/>
		<path class="st3" d="M13.4,5c0,0.1,0.1,0.1,0,0.2l0,0c0,0,0,0-0.1-0.1C13.3,5.1,13.3,5,13.4,5C13.3,5,13.4,5,13.4,5z"/>
		<path class="st3" d="M13.3,5c-0.1,0-0.1-0.1-0.1-0.1C13.3,4.9,13.3,4.9,13.3,5z"/>
		<path class="st7" d="M13,4.7C13,4.7,13,4.7,13,4.7C12.9,4.6,12.9,4.6,13,4.7C13,4.6,13,4.6,13,4.7z"/>
		<path class="st3" d="M13.2,4.8C13.2,4.8,13.1,4.8,13.2,4.8C13.2,4.8,13.2,4.8,13.2,4.8z"/>
		<path class="st0" d="M12.8,4.9c0,0-0.1,0-0.1,0.1c-0.3,0.4-0.6,0.4-0.9,0.1c-0.1-0.1-0.2-0.2-0.3-0.4c-0.1-0.1-0.1-0.2,0-0.3
			c0.1-0.2,0.3-0.3,0.5-0.4c0.2-0.1,0.7,0.1,0.8,0.4C12.8,4.5,12.8,4.7,12.8,4.9C12.8,4.8,12.8,4.9,12.8,4.9z M12.5,4.9
			c0.1,0,0.1-0.1,0.2-0.1c0.1-0.2,0-0.4-0.2-0.6c-0.2-0.2-0.4-0.2-0.6-0.1c-0.4,0.2-0.5,0.5-0.2,0.7C11.8,4.9,11.9,5,12,5
			C12.2,5.1,12.3,5.1,12.5,4.9C12.4,4.9,12.4,4.9,12.5,4.9z"/>
		<path class="st13" d="M11.4,4.8c0.2,0.1,0.2,0.2,0.4,0.3c0.4,0.3,0.7,0.3,1,0c0,0,0.1,0,0.1,0c0,0.1-0.1,0.2-0.1,0.2
			c-0.3,0.3-0.6,0.2-1,0c-0.1-0.1-0.2-0.1-0.2-0.2C11.5,5,11.5,5,11.4,5C11.4,4.9,11.4,4.8,11.4,4.8L11.4,4.8z"/>
		<path class="st1" d="M12.8,5c0,0-0.1,0-0.1,0c0-0.1,0-0.1,0-0.2c0,0,0,0,0,0c0.1,0,0-0.2,0.2-0.2c0,0,0,0.1,0,0.1
			C12.9,4.9,12.9,5,12.8,5z"/>
		<path class="st8" d="M13.6,5.6c0.1,0,0.1,0.1,0.2,0.2c0,0.1,0.2,0.2,0.1,0.4c-0.1,0.1,0,0.2,0,0.2c0.1,0.1,0.1,0.2,0.1,0.3
			c0,0,0,0,0,0c-0.3-0.2-0.5,0-0.7,0c-0.1,0-0.2,0.1-0.3,0.1c-0.2,0-0.4,0-0.5-0.1c0,0,0-0.1,0-0.1c0-0.2,0.1-0.3,0.3-0.3
			c0.2,0,0.5,0,0.7-0.1c0.1,0,0.1,0,0.2,0c0.2,0,0.2-0.1,0.1-0.2C13.7,5.8,13.6,5.7,13.6,5.6z"/>
		<path class="st7" d="M12.8,5c0.1-0.1,0-0.2,0.1-0.3c0.1,0.4,0,0.7-0.2,1C12.5,6,12.2,6,11.9,5.9c-0.1-0.2-0.3-0.3-0.4-0.5
			c0-0.1-0.1-0.1-0.1-0.2c0-0.1-0.1-0.2,0-0.3c0.1,0,0.1,0.1,0.1,0.1c0.1,0.3,0.2,0.5,0.4,0.6c0.4,0.2,0.7,0,0.7-0.4
			C12.7,5.2,12.8,5.1,12.8,5z"/>
		<path class="st11" d="M13.6,5.6c0,0.2,0.1,0.3,0.1,0.4c0.1,0.1,0.1,0.2-0.1,0.2c-0.1,0-0.1,0-0.2,0c0.1-0.4,0-0.7-0.1-1.1
			c0,0,0,0,0.1,0.1C13.5,5.3,13.6,5.4,13.6,5.6z"/>
		<path class="st12" d="M11.4,5c-0.1,0.1,0.1,0.2,0,0.3c-0.1-0.1-0.2-0.3-0.2-0.5c0,0,0.1,0,0.1,0C11.4,4.8,11.4,4.9,11.4,5z"/>
		<path class="st4" d="M13.9,5.6C13.8,5.6,13.8,5.6,13.9,5.6c-0.1-0.4-0.2-0.7-0.3-1c-0.1-0.2,0-0.3,0.2-0.4c0.3-0.1,0.7,0,0.9,0.3
			c-0.1,0-0.2-0.1-0.3-0.1c-0.2-0.1-0.5,0-0.6,0.2c0,0.1,0,0.2,0,0.3c0,0.3,0.1,0.5,0.3,0.7C14,5.6,13.9,5.6,13.9,5.6z"/>
		<path class="st2" d="M14.8,4.7c-0.1,0-0.1-0.1-0.1-0.2C14.8,4.6,14.8,4.7,14.8,4.7z"/>
		<path class="st7" d="M13.3,2C13.3,2,13.3,2,13.3,2C13.3,2.1,13.3,2.1,13.3,2z"/>
		<path class="st7" d="M13.9,2.6C13.9,2.6,13.9,2.6,13.9,2.6C13.9,2.6,13.9,2.6,13.9,2.6C13.9,2.6,13.9,2.6,13.9,2.6z"/>
		<path class="st5" d="M13.9,6.1c0-0.2-0.1-0.2-0.1-0.4c0,0,0.1,0.1,0.1,0.1c0.3,0.3,0.5,0.3,0.8,0.1c0,0.2,0,0.3,0,0.4
			c0,0.1-0.2,0.1-0.2,0.2c0,0,0,0,0,0C14.3,6.4,14.3,6.2,13.9,6.1C14,6.2,14,6.1,13.9,6.1z"/>
		<path class="st0" d="M14.4,6.6C14.4,6.6,14.4,6.6,14.4,6.6c0,0.2,0.1,0.3,0.1,0.4c-0.2-0.1-0.3-0.3-0.5-0.4c0-0.1,0-0.2-0.1-0.3
			c-0.1-0.1-0.1-0.1,0-0.2c0.1,0,0.1,0,0.1,0.1c0,0.1,0.1,0.2,0.1,0.3C14.2,6.6,14.3,6.7,14.4,6.6z"/>
		<path class="st7" d="M10.4,8.3c0.1-0.1,0-0.3,0-0.4c0.2,0,0.4,0.1,0.6-0.1c0,0,0,0.1,0,0.1c0,0,0,0.1,0,0.1
			c-0.1,0-0.1,0.1-0.1,0.2c0,0.2-0.1,0.3-0.3,0.3C10.4,8.5,10.4,8.4,10.4,8.3z"/>
		<path class="st2" d="M9.3,7.3c-0.1,0.1-0.1,0.1-0.2,0C9.2,7.3,9.3,7.3,9.3,7.3z"/>
		<path class="st7" d="M12.3,8.2c-0.1,0.1-0.1,0.2-0.1,0.4c0,0,0,0.1,0,0.1c-0.1,0-0.2,0-0.2-0.1c0-0.2-0.1-0.2-0.3-0.2
			c0,0,0-0.1,0-0.1c0,0,0-0.1,0-0.1c0,0,0.1,0,0.1,0c0,0,0,0.1,0.1,0.1c0.1,0,0-0.1,0-0.1c0,0,0,0,0,0c0,0,0,0,0,0
			c0,0.1,0.1,0.1,0.2,0.1C12.2,8.2,12.2,8.2,12.3,8.2z"/>
		<path class="st8" d="M10.9,8.1C10.9,8.1,10.9,8,10.9,8.1c0.2-0.1,0.3-0.2,0.4-0.2c0.2-0.1,0.3,0,0.4,0.1l0,0
			c-0.2-0.1-0.3-0.1-0.4,0C11.1,8.1,11,8.1,10.9,8.1z"/>
		<path class="st8" d="M11.7,8.1C11.7,8.1,11.6,8.1,11.7,8.1L11.7,8.1C11.6,8.1,11.6,8,11.7,8.1L11.7,8.1C11.7,8,11.7,8,11.7,8.1z"
			/>
		<path class="st8" d="M11.9,8C11.9,8,11.8,8,11.9,8C11.8,8,11.8,8,11.9,8C11.9,8,11.9,8,11.9,8z"/>
		<path class="st8" d="M12.3,8.2c-0.1,0-0.2,0-0.2,0c-0.1,0-0.2,0-0.2-0.1c0.2,0,0.4-0.1,0.5-0.1C12.4,8.1,12.4,8.1,12.3,8.2z"/>
		<path class="st7" d="M14.7,5c0,0.1,0,0.1,0,0.2c-0.1,0-0.1,0-0.1,0.1c0,0.1,0,0.2-0.1,0.3c-0.2,0-0.4-0.2-0.5-0.3
			c0-0.1,0.1-0.4,0.2-0.4C14.5,4.6,14.6,4.8,14.7,5C14.7,4.9,14.7,5,14.7,5z"/>
		<path class="st8" d="M14.7,5C14.7,5,14.7,4.9,14.7,5c-0.2-0.2-0.3-0.4-0.4-0.3c-0.1,0.1-0.2,0.3-0.2,0.4c0.1,0.2,0.3,0.3,0.5,0.3
			c-0.1,0.1-0.2,0.1-0.3,0.1c-0.2-0.1-0.4-0.4-0.3-0.6c0-0.2,0.2-0.4,0.3-0.4C14.5,4.6,14.7,4.8,14.7,5z"/>
		<path class="st2" d="M13.9,5.6c0.1,0,0.1,0,0.2,0c0,0,0,0,0,0c0,0.1,0.1,0.1,0.2,0.1c0,0,0.1,0,0.1,0c0.1,0.1,0.2,0,0.3,0
			c-0.1,0.2-0.2,0.1-0.3,0.1C14.2,5.8,14,5.7,13.9,5.6z"/>
		<path class="st4" d="M14.6,5.8c-0.1,0-0.2,0-0.3,0C14.4,5.7,14.5,5.8,14.6,5.8C14.6,5.8,14.6,5.8,14.6,5.8z"/>
		<path class="st4" d="M14.3,5.8c-0.1,0-0.2,0-0.2-0.1C14.2,5.6,14.3,5.6,14.3,5.8z"/>
		<path class="st8" d="M14.7,5.3C14.7,5.2,14.7,5.2,14.7,5.3C14.7,5.2,14.7,5.2,14.7,5.3z"/>
		<path class="st6" d="M10.4,8.3c0,0.1,0,0.1,0.1,0.2c0,0,0,0,0,0c0,0-0.1,0-0.1,0c-0.1,0-0.3,0.1-0.3-0.1c0,0,0.1-0.1,0.1-0.1
			c0.1-0.1,0-0.3,0.1-0.4C10.2,8.1,10.3,8.2,10.4,8.3z"/>
		<path class="st11" d="M10,8.4c0,0.1,0,0.1-0.1,0.1c-0.1,0-0.1-0.2-0.2-0.1c0-0.1,0.1-0.2,0.1-0.3C10.1,8.2,10,8.4,10,8.4z"/>
		<path class="st10" d="M11.9,11.1c0,0,0.1,0,0.1,0c0,0.1,0.1,0.1,0,0.2c-0.7,0-1.4,0-2-0.2c0-0.1,0-0.1,0-0.2c0.1,0,0.3,0,0.4,0.1
			C10.9,11.1,11.4,11.1,11.9,11.1z"/>
		<path class="st0" d="M11.9,11.1c-0.5,0-1,0-1.5-0.1c-0.1,0-0.3,0-0.4-0.1c-0.1,0-0.3-0.1-0.4-0.1l0,0c0,0,0,0,0,0
			c-0.1-0.1-0.2-0.1-0.2,0c0,0,0,0,0,0c0-0.1,0-0.2-0.1-0.2c0-0.2,0.1-0.2,0.2-0.1c0,0.1,0.1,0.1,0.2,0c0.1,0,0.1,0,0.2,0
			c0.1,0.2,0.4,0.2,0.6,0.3C10.9,11,11.4,11,11.9,11.1C11.9,11,11.9,11.1,11.9,11.1z"/>
		<path class="st9" d="M12.1,11.3c0-0.1,0-0.1,0-0.2c0.2-0.1,0.4,0,0.6,0C12.5,11.2,12.3,11.2,12.1,11.3z"/>
		<path class="st11" d="M9.7,10.8c0.1,0,0.3,0.1,0.4,0.1c0,0.1,0,0.1,0,0.2C9.9,11,9.7,11,9.7,10.8z"/>
		<path class="st3" d="M12.1,11.8c0,0-0.1-0.1-0.1-0.2C12.1,11.6,12.2,11.7,12.1,11.8z"/>
		<path class="st9" d="M12.6,11C12.6,11,12.7,11,12.6,11C12.7,11,12.6,11,12.6,11z"/>
		<path class="st11" d="M9.6,10.8C9.6,10.8,9.7,10.8,9.6,10.8L9.6,10.8L9.6,10.8z"/>
		<path class="st7" d="M11,10C11,10,11.1,10,11,10c0.2,0.2,0.4,0.1,0.6,0c0.1,0,0.1-0.2,0.1-0.2c0-0.1,0-0.1,0-0.2
			c0-0.1,0-0.1,0.1-0.1c0.1,0,0.1,0,0.1,0.1c0,0.1,0.1,0.1,0.2,0.1l0,0c0,0.2,0.1,0.3,0.1,0.5c0,0.1,0,0.2-0.2,0.2c0,0,0-0.1,0-0.1
			c0.1,0,0.1-0.1,0.1-0.2c0-0.1-0.1,0-0.1,0c-0.1,0.1-0.3,0.1-0.4,0.1c-0.1,0-0.3,0-0.4,0c0,0-0.1,0-0.1,0c-0.1-0.2-0.2,0-0.3-0.2
			c-0.1-0.1-0.2-0.1-0.2,0.1c-0.1,0-0.1-0.1-0.1-0.2c0-0.1,0.1-0.2,0.1-0.3c0,0,0,0,0,0c0.1,0,0.1,0,0.1-0.1c0.1-0.1,0.1,0,0.1,0
			c0,0.1,0.1,0.2,0,0.3c-0.1,0.1,0,0.1,0.1,0.2C10.8,10,10.9,10,11,10z"/>
		<path class="st5" d="M10.9,10.2c0,0,0.1,0,0.1,0c0.3,0.1,0.5,0.1,0.8,0c0.1,0,0.1-0.1,0.1,0c0,0,0,0.1,0,0.1c0,0,0,0.1,0,0.1
			c-0.4,0.1-0.7,0.1-1.1,0c-0.1-0.1-0.3-0.1-0.3-0.2c0-0.1,0-0.1,0.1-0.1C10.7,10.2,10.8,10.2,10.9,10.2z"/>
		<path class="st14" d="M11.9,10.7c-0.2,0-0.3,0-0.5,0.1c-0.2,0.1-0.4,0.1-0.5,0c-0.2-0.1-0.4-0.1-0.6-0.2c0-0.1,0.1-0.1,0.2-0.2
			c0-0.1,0.1,0,0.1,0c0.1,0.1,0.3,0.2,0.5,0.2c0,0,0.1,0,0.1,0c0.2,0.1,0.4,0,0.6,0C11.8,10.7,11.9,10.6,11.9,10.7z"/>
		<path class="st7" d="M11.1,10.6C11.1,10.6,11.1,10.6,11.1,10.6c-0.1-0.1-0.3,0-0.3-0.2c0.4,0.1,0.7,0.1,1.1,0
			c-0.1,0.1-0.2,0.2-0.4,0.2C11.4,10.6,11.2,10.5,11.1,10.6z"/>
		<path class="st8" d="M10.9,10.2c-0.1,0-0.3,0-0.4-0.1c-0.1,0-0.1,0-0.1,0.1c0,0-0.1,0-0.1,0c0-0.2,0.1-0.2,0.2-0.1
			C10.7,10.1,10.9,10,10.9,10.2z"/>
		<path class="st8" d="M9.5,10.6c-0.1,0-0.2-0.1-0.2,0.1c-0.1,0.1-0.1,0-0.1,0c0-0.1,0-0.1,0-0.2C9.3,10.4,9.4,10.4,9.5,10.6z"/>
		<path class="st10" d="M11.6,8.2C11.6,8.2,11.6,8.3,11.6,8.2c0,0.1,0,0.1,0,0.1c-0.1,0-0.1,0.1-0.1,0.1c0,0.1,0,0.3,0,0.4
			c0,0.1-0.1,0.2-0.1,0.2c-0.1,0-0.3,0-0.4,0c-0.1,0-0.1-0.1-0.1-0.2c0.1-0.2,0.1-0.4,0.2-0.6C11.3,8.1,11.5,8.2,11.6,8.2z"/>
		<path class="st11" d="M12,9.6c-0.1,0-0.1,0-0.2-0.1c0,0-0.1-0.1-0.1-0.1c-0.1,0-0.1,0.1-0.1,0.1c0,0.1,0,0.1,0,0.2
			c0,0.1,0.1,0.2-0.1,0.2c-0.2,0-0.4,0.2-0.5,0c0,0,0.1,0,0.1,0c0,0,0.1,0,0.1,0c0.2,0,0.2-0.1,0.2-0.3c0,0,0-0.1-0.1-0.1
			c0-0.1-0.2-0.2,0-0.3c0.1-0.1,0.3-0.1,0.4,0C12,9.4,12,9.5,12,9.6z"/>
		<path class="st11" d="M11,10c-0.1,0.1-0.2,0-0.3,0c-0.1,0-0.1-0.1-0.1-0.2c0.1-0.1,0-0.2,0-0.3c0-0.1,0-0.1-0.1,0
			c0,0-0.1,0.1-0.1,0.1c0.1-0.3,0.3-0.4,0.6-0.3c0.1,0.1,0.1,0.1,0.1,0.2C11,9.5,11,9.6,11,9.6C10.8,9.8,10.8,9.9,11,10z"/>
		<path class="st11" d="M11.6,8.2c-0.1,0-0.3-0.1-0.4,0c-0.2,0-0.3,0.1-0.3,0.3c0,0.2-0.1,0.2-0.3,0.2c-0.1,0-0.1-0.1-0.2-0.1
			c0,0,0,0,0,0c0.2,0,0.3-0.1,0.3-0.3c0-0.1,0-0.2,0.1-0.2c0,0.1,0.1,0.2,0.2,0.1c0.2-0.1,0.4-0.1,0.6-0.1l0,0
			C11.6,8.1,11.6,8.2,11.6,8.2z"/>
		<path class="st11" d="M11.7,8.3C11.7,8.3,11.7,8.3,11.7,8.3c0.2,0,0.3,0,0.3,0.2c0,0.1,0.1,0.1,0.2,0.1c0,0,0,0,0,0
			c-0.1,0.1-0.2,0.1-0.3,0.2c0,0.1-0.1,0-0.1-0.1C11.7,8.7,11.7,8.5,11.7,8.3z M11.8,8.6C11.8,8.6,11.8,8.6,11.8,8.6
			C11.8,8.6,11.8,8.6,11.8,8.6C11.8,8.6,11.8,8.6,11.8,8.6C11.8,8.6,11.8,8.6,11.8,8.6z"/>
		<path class="st10" d="M11.4,10c0,0-0.1,0-0.1,0c0,0,0-0.1-0.1-0.1c-0.1,0-0.2,0-0.1-0.1c0-0.1,0.1-0.1,0.2-0.1
			c0.1,0,0.2,0.1,0.2,0.2C11.4,9.9,11.4,9.9,11.4,10z"/>
		<path class="st0" d="M12.9,8c0.2-0.1,0.5-0.1,0.7,0c0,0,0.1,0,0.1,0c0,0,0,0,0.1,0l0,0c0,0.1,0,0.2,0,0.2c0,0.1,0,0.2,0,0.3
			c-0.1,0,0-0.3-0.2-0.2C13.4,8,13.4,8,13,8C13,8,12.9,8,12.9,8z"/>
		<path class="st6" d="M12.9,8C12.9,8,13,8,13,8c0,0.1,0.1,0.2,0,0.2c-0.1,0.1-0.2,0-0.2,0c0,0,0,0,0-0.1C12.8,8.1,12.8,8.1,12.9,8
			C12.8,8,12.9,8,12.9,8z"/>
		<path class="st10" d="M13.8,8.3c-0.1-0.1-0.1-0.1,0-0.2c0,0,0.1,0,0.1,0C13.8,8.1,13.8,8.2,13.8,8.3z"/>
		<path class="st0" d="M12.8,8.1C12.8,8.1,12.8,8.1,12.8,8.1c-0.2,0.2-0.1,0.3-0.1,0.5c0,0.1,0,0.2,0,0.2c-0.2-0.1-0.1-0.3-0.1-0.5
			C12.6,8.2,12.7,8,12.8,8.1z"/>
		<path class="st8" d="M10,8.4c-0.1-0.1,0-0.2-0.1-0.3c0-0.1,0-0.2,0-0.3C10,7.9,10.1,8,10.2,8C10.1,8.2,10.1,8.3,10,8.4z"/>
		<path class="st6" d="M9.4,7.8C9.4,7.9,9.3,8,9.3,8c-0.1,0-0.1,0-0.1-0.1c0-0.1,0-0.1,0.1-0.2C9.3,7.7,9.4,7.8,9.4,7.8z"/>
		<path class="st6" d="M9,7.6C9,7.6,9,7.6,9,7.6C9,7.6,9,7.7,9,7.6L9,7.6C9,7.7,9,7.6,9,7.6z"/>
		<path class="st2" d="M9,7.6C9,7.6,9,7.7,9,7.6C9,7.7,9,7.7,9,7.6C9,7.6,9,7.6,9,7.6z"/>
		<path class="st10" d="M13.8,8C13.7,8,13.7,8,13.8,8C13.7,8,13.8,8,13.8,8z"/>
		<path class="st8" d="M12.4,5C12.3,5.1,12.2,5.1,12,5c-0.1,0-0.2-0.1-0.3-0.2c-0.3-0.2-0.2-0.6,0.2-0.7c0.2-0.1,0.4,0,0.6,0.1
			c0.2,0.2,0.2,0.3,0.2,0.6C12.6,4.9,12.6,4.9,12.4,5c0.1-0.1,0.2-0.2,0.2-0.4c0-0.2-0.2-0.4-0.4-0.4c-0.1,0-0.5,0.2-0.5,0.3
			c0,0,0,0.1,0,0.1C11.7,4.9,12.1,5,12.4,5z"/>
		<path class="st7" d="M12.4,5c-0.3,0.1-0.7-0.1-0.7-0.4c0,0,0-0.1,0-0.1c0-0.1,0.4-0.3,0.5-0.3c0.2,0,0.4,0.2,0.4,0.4
			C12.6,4.7,12.5,4.8,12.4,5C12.4,4.9,12.4,4.9,12.4,5z M12.5,4.7c0-0.2-0.2-0.4-0.3-0.3c-0.1,0-0.3,0.1-0.3,0.2
			c0,0.1,0.3,0.3,0.4,0.3C12.4,4.9,12.5,4.8,12.5,4.7z"/>
		<path class="st5" d="M12.7,5.3c-0.1,0.4-0.4,0.6-0.7,0.4c-0.2-0.1-0.4-0.3-0.4-0.6c0.1,0.1,0.2,0.1,0.2,0.2
			C12.1,5.5,12.4,5.5,12.7,5.3z"/>
		<path class="st2" d="M14.4,6.6c-0.1,0.1-0.2,0-0.2-0.1C14.1,6.4,14,6.3,14,6.2C14.3,6.2,14.3,6.4,14.4,6.6z"/>
		<path class="st7" d="M11.6,8.1c-0.2-0.1-0.4,0-0.6,0.1c-0.1,0.1-0.2,0-0.2-0.1c0.1,0,0.2,0,0.3-0.1C11.3,7.9,11.5,7.9,11.6,8.1
			C11.6,8,11.6,8.1,11.6,8.1z"/>
		<path class="st8" d="M12,10.2c0-0.1-0.1-0.1-0.1,0c-0.2,0.1-0.5,0.1-0.8,0c0.1-0.1,0.3,0,0.4,0c0.2,0,0.3,0,0.4-0.1
			c0,0,0.1-0.1,0.1,0C12.1,10.1,12.1,10.2,12,10.2z"/>
		<path class="st7" d="M11.8,8.6C11.8,8.6,11.8,8.6,11.8,8.6C11.8,8.6,11.8,8.6,11.8,8.6C11.8,8.6,11.8,8.6,11.8,8.6
			C11.8,8.6,11.8,8.6,11.8,8.6z"/>
		<path class="st12" d="M12.5,4.7c0,0.1-0.1,0.2-0.2,0.2c-0.2,0-0.4-0.2-0.4-0.3c0-0.1,0.1-0.2,0.3-0.2C12.3,4.3,12.5,4.5,12.5,4.7z
			"/>
	</g>
</g>
</svg>
